%TF.GenerationSoftware,KiCad,Pcbnew,8.0.5*%
%TF.CreationDate,2024-11-27T13:11:34-06:00*%
%TF.ProjectId,Mini-Lora,4d696e69-2d4c-46f7-9261-2e6b69636164,rev?*%
%TF.SameCoordinates,Original*%
%TF.FileFunction,Copper,L1,Top*%
%TF.FilePolarity,Positive*%
%FSLAX46Y46*%
G04 Gerber Fmt 4.6, Leading zero omitted, Abs format (unit mm)*
G04 Created by KiCad (PCBNEW 8.0.5) date 2024-11-27 13:11:34*
%MOMM*%
%LPD*%
G01*
G04 APERTURE LIST*
G04 Aperture macros list*
%AMRoundRect*
0 Rectangle with rounded corners*
0 $1 Rounding radius*
0 $2 $3 $4 $5 $6 $7 $8 $9 X,Y pos of 4 corners*
0 Add a 4 corners polygon primitive as box body*
4,1,4,$2,$3,$4,$5,$6,$7,$8,$9,$2,$3,0*
0 Add four circle primitives for the rounded corners*
1,1,$1+$1,$2,$3*
1,1,$1+$1,$4,$5*
1,1,$1+$1,$6,$7*
1,1,$1+$1,$8,$9*
0 Add four rect primitives between the rounded corners*
20,1,$1+$1,$2,$3,$4,$5,0*
20,1,$1+$1,$4,$5,$6,$7,0*
20,1,$1+$1,$6,$7,$8,$9,0*
20,1,$1+$1,$8,$9,$2,$3,0*%
G04 Aperture macros list end*
%TA.AperFunction,SMDPad,CuDef*%
%ADD10RoundRect,0.100000X-0.550000X0.300000X-0.550000X-0.300000X0.550000X-0.300000X0.550000X0.300000X0*%
%TD*%
%TA.AperFunction,SMDPad,CuDef*%
%ADD11R,1.150000X1.300000*%
%TD*%
%TA.AperFunction,ComponentPad*%
%ADD12C,2.743200*%
%TD*%
%TA.AperFunction,SMDPad,CuDef*%
%ADD13RoundRect,0.101600X-0.660400X-0.406400X0.660400X-0.406400X0.660400X0.406400X-0.660400X0.406400X0*%
%TD*%
%TA.AperFunction,ComponentPad*%
%ADD14C,1.270000*%
%TD*%
%TA.AperFunction,SMDPad,CuDef*%
%ADD15RoundRect,0.101600X-0.998400X-0.406400X0.998400X-0.406400X0.998400X0.406400X-0.998400X0.406400X0*%
%TD*%
%TA.AperFunction,SMDPad,CuDef*%
%ADD16R,4.318000X1.524000*%
%TD*%
%TA.AperFunction,ComponentPad*%
%ADD17O,2.540000X1.270000*%
%TD*%
%TA.AperFunction,ComponentPad*%
%ADD18R,1.879600X1.879600*%
%TD*%
%TA.AperFunction,ComponentPad*%
%ADD19C,1.879600*%
%TD*%
%TA.AperFunction,ComponentPad*%
%ADD20C,1.600000*%
%TD*%
%TA.AperFunction,ComponentPad*%
%ADD21C,1.574800*%
%TD*%
%TA.AperFunction,ViaPad*%
%ADD22C,0.600000*%
%TD*%
%TA.AperFunction,ViaPad*%
%ADD23C,1.000000*%
%TD*%
%TA.AperFunction,ViaPad*%
%ADD24C,0.711200*%
%TD*%
%TA.AperFunction,Conductor*%
%ADD25C,1.016000*%
%TD*%
%TA.AperFunction,Conductor*%
%ADD26C,0.304800*%
%TD*%
%TA.AperFunction,Conductor*%
%ADD27C,0.406400*%
%TD*%
%TA.AperFunction,Conductor*%
%ADD28C,0.609600*%
%TD*%
%TA.AperFunction,Conductor*%
%ADD29C,0.200000*%
%TD*%
G04 APERTURE END LIST*
D10*
%TO.P,R5,1,1*%
%TO.N,/BLUE*%
X136450000Y-111000000D03*
%TO.P,R5,2,2*%
%TO.N,Net-(RGB0-BLUE)*%
X136450000Y-113000000D03*
%TD*%
D11*
%TO.P,BTN0,1,A0*%
%TO.N,+3V3*%
X129625000Y-106900000D03*
%TO.P,BTN0,2,A1*%
X129625000Y-103000000D03*
%TO.P,BTN0,3,B0*%
%TO.N,/D3*%
X131775000Y-106900000D03*
%TO.P,BTN0,4,B1*%
X131775000Y-103000000D03*
%TD*%
D10*
%TO.P,R4,1,1*%
%TO.N,/RED*%
X129450000Y-111000000D03*
%TO.P,R4,2,2*%
%TO.N,Net-(RGB0-RED)*%
X129450000Y-113000000D03*
%TD*%
%TO.P,R3,1,1*%
%TO.N,GND*%
X133600000Y-102900000D03*
%TO.P,R3,2,2*%
%TO.N,/D3*%
X133600000Y-104900000D03*
%TD*%
%TO.P,R1,1,1*%
%TO.N,/SDA*%
X139600000Y-111000000D03*
%TO.P,R1,2,2*%
%TO.N,+3V3*%
X139600000Y-113000000D03*
%TD*%
D12*
%TO.P,BAT3,GND,-*%
%TO.N,GND*%
X124750000Y-107580000D03*
X124750000Y-102500000D03*
X118002000Y-105040000D03*
%TO.P,BAT3,PWR,+*%
%TO.N,+BATT*%
X179258000Y-105020000D03*
X172510000Y-107560000D03*
X172510000Y-102480000D03*
%TD*%
D13*
%TO.P,J$2,ANT1,SIGNAL*%
%TO.N,Net-(U1-ANT)*%
X126193250Y-95740000D03*
D14*
%TO.P,J$2,ANT2,SIGNAL*%
X127430500Y-95740000D03*
D15*
%TO.P,J$2,GND1,GND@0*%
%TO.N,GND*%
X124573000Y-97210250D03*
%TO.P,J$2,GND2,GND@1*%
X124573000Y-94269750D03*
D16*
%TO.P,J$2,GND3,GND@2*%
X124700000Y-93200000D03*
%TO.P,J$2,GND4,GND@3*%
X124700000Y-98280000D03*
%TD*%
D17*
%TO.P,RGB0,1,RED*%
%TO.N,Net-(RGB0-RED)*%
X125381800Y-111876000D03*
%TO.P,RGB0,2,VCC*%
%TO.N,+3V3*%
X125350000Y-113400000D03*
%TO.P,RGB0,3,GREEN*%
%TO.N,Net-(RGB0-GREEN)*%
X125381800Y-114924000D03*
%TO.P,RGB0,4,BLUE*%
%TO.N,Net-(RGB0-BLUE)*%
X125350000Y-116448000D03*
%TD*%
D10*
%TO.P,R6,1,1*%
%TO.N,/GREEN*%
X132650000Y-111000000D03*
%TO.P,R6,2,2*%
%TO.N,Net-(RGB0-GREEN)*%
X132650000Y-113000000D03*
%TD*%
D18*
%TO.P,I2C0,1,1*%
%TO.N,Net-(I2C0-Pad1)*%
X145987300Y-108826350D03*
D19*
%TO.P,I2C0,2,2*%
%TO.N,Net-(I2C0-Pad2)*%
X146000000Y-106280000D03*
%TO.P,I2C0,3,3*%
%TO.N,/SCL*%
X145987300Y-103740000D03*
%TO.P,I2C0,4,4*%
%TO.N,/SDA*%
X146000000Y-101200000D03*
%TD*%
D10*
%TO.P,R2,1,1*%
%TO.N,/SCL*%
X142800000Y-111000000D03*
%TO.P,R2,2,2*%
%TO.N,+3V3*%
X142800000Y-113000000D03*
%TD*%
D20*
%TO.P,MOD1,1,BAT-*%
%TO.N,GND*%
X179650000Y-97400000D03*
%TO.P,MOD1,2,P0.06*%
%TO.N,/TX*%
X177110000Y-97400000D03*
%TO.P,MOD1,3,P0.08*%
%TO.N,/RX*%
X174570000Y-97400000D03*
%TO.P,MOD1,4,GND*%
%TO.N,unconnected-(MOD1-GND-Pad4)*%
X172030000Y-97400000D03*
%TO.P,MOD1,5,GND*%
%TO.N,GND*%
X169490000Y-97400000D03*
%TO.P,MOD1,6,P0.17*%
%TO.N,/DIO3*%
X166950000Y-97400000D03*
%TO.P,MOD1,7,P0.20*%
%TO.N,/D3*%
X164410000Y-97400000D03*
%TO.P,MOD1,8,P0.22*%
%TO.N,/DIO0*%
X161870000Y-97400000D03*
%TO.P,MOD1,9,P0.24*%
%TO.N,/BLUE*%
X159330000Y-97400000D03*
%TO.P,MOD1,10,P1.00*%
%TO.N,/GREEN*%
X156790000Y-97400000D03*
%TO.P,MOD1,11,P0.11*%
%TO.N,/DIO1*%
X154250000Y-97400000D03*
%TO.P,MOD1,12,P1.04*%
%TO.N,/DIO2*%
X151710000Y-97400000D03*
%TO.P,MOD1,13,P1.06*%
%TO.N,/RED*%
X149170000Y-97400000D03*
%TO.P,MOD1,14,P0.09*%
%TO.N,/SS*%
X149170010Y-112640010D03*
%TO.P,MOD1,15,P1.10*%
%TO.N,/MOSI*%
X151710010Y-112640010D03*
%TO.P,MOD1,16,P1.11*%
%TO.N,/MISO*%
X154250010Y-112640010D03*
%TO.P,MOD1,17,P1.13*%
%TO.N,/SCK*%
X156790010Y-112640010D03*
%TO.P,MOD1,18,P1.15*%
%TO.N,/RESET*%
X159330010Y-112640010D03*
%TO.P,MOD1,19,P0.02*%
%TO.N,/DIO5*%
X161870010Y-112640010D03*
%TO.P,MOD1,20,P0.29*%
%TO.N,/A2*%
X164410010Y-112640010D03*
%TO.P,MOD1,21,P0.31*%
%TO.N,/A3*%
X166950010Y-112640010D03*
%TO.P,MOD1,22,VCC*%
%TO.N,+3V3*%
X169490010Y-112640010D03*
%TO.P,MOD1,23,RST*%
%TO.N,unconnected-(MOD1-RST-Pad23)*%
X172030010Y-112640010D03*
%TO.P,MOD1,24,GND*%
%TO.N,GND*%
X174570010Y-112640010D03*
%TO.P,MOD1,25,RAW*%
%TO.N,VCC*%
X177110010Y-112640010D03*
%TO.P,MOD1,26,BAT+*%
%TO.N,+BATT*%
X179650010Y-112640010D03*
D21*
%TO.P,MOD1,27,P1.01*%
%TO.N,/DIO4*%
X152264800Y-100480000D03*
%TO.P,MOD1,28,P1.02*%
%TO.N,/SDA*%
X152264800Y-103020000D03*
%TO.P,MOD1,29,P1.07*%
%TO.N,/SCL*%
X152264800Y-105560000D03*
%TD*%
D22*
%TO.N,GND*%
X159700000Y-114450000D03*
X162350000Y-114550000D03*
X147100000Y-110950000D03*
X148200000Y-113750000D03*
X150450000Y-111800000D03*
X153000000Y-111800000D03*
X168200000Y-111900000D03*
X165650000Y-111800000D03*
X163100000Y-111750000D03*
X160550000Y-111900000D03*
X158000000Y-111800000D03*
X155500000Y-111800000D03*
X155550000Y-113350000D03*
X153000000Y-113250000D03*
X152050000Y-114600000D03*
X155000000Y-114500000D03*
X157050000Y-114650000D03*
X158050000Y-113450000D03*
X160550000Y-113400000D03*
X158700000Y-115450000D03*
X168200000Y-113350000D03*
X165700000Y-113400000D03*
X162000000Y-94600000D03*
X164250000Y-94900000D03*
X168200000Y-94200000D03*
X170450000Y-95150000D03*
X178350000Y-96550000D03*
X175800000Y-96600000D03*
X173300000Y-96750000D03*
X181100000Y-96550000D03*
X181100000Y-95300000D03*
X180200000Y-106700000D03*
X180700000Y-103600000D03*
X177700000Y-103600000D03*
X178150000Y-100050000D03*
X174350000Y-100100000D03*
X173700000Y-104000000D03*
X171400000Y-104000000D03*
X169500000Y-105000000D03*
X165200000Y-106800000D03*
X167800000Y-107200000D03*
X170450000Y-107150000D03*
X171450000Y-106000000D03*
X176400000Y-107600000D03*
X177850000Y-106500000D03*
X174400000Y-106450000D03*
X174050000Y-109000000D03*
X178050000Y-108800000D03*
X181150000Y-105700000D03*
X181050000Y-113950000D03*
X180750000Y-111450000D03*
X180700000Y-109250000D03*
X178400000Y-111650000D03*
X175950000Y-111650000D03*
X173200000Y-111600000D03*
X170800000Y-111600000D03*
D23*
%TO.N,+3V3*%
X181000000Y-94200000D03*
D24*
%TO.N,GND*%
X124000000Y-99796644D03*
D22*
X128600000Y-97800000D03*
X164700000Y-103200000D03*
X148000000Y-98000000D03*
X161500000Y-104000000D03*
D24*
X131400000Y-95300000D03*
D22*
X122400000Y-96800000D03*
X134700000Y-99300000D03*
D24*
X127545915Y-97383644D03*
D22*
X137200000Y-101400000D03*
X152958800Y-92456000D03*
X181000000Y-117000000D03*
X147000000Y-92600000D03*
X132700000Y-115500000D03*
X164400000Y-109900000D03*
X158300000Y-101400000D03*
X163118800Y-96469200D03*
X182143400Y-116789200D03*
X130500000Y-109500000D03*
X121600000Y-109000000D03*
X148100000Y-96600000D03*
X167500000Y-102300000D03*
X181600000Y-92900000D03*
X165633400Y-92481400D03*
X133200000Y-106400000D03*
X144000000Y-108500000D03*
X146500000Y-98000000D03*
X182450000Y-107550000D03*
X134700000Y-114500000D03*
X115000000Y-105000000D03*
X161800000Y-109900000D03*
X137000000Y-92600000D03*
X147400000Y-105000000D03*
D24*
X130800000Y-99500000D03*
X122750000Y-99800000D03*
D22*
X144800000Y-98000000D03*
X148600000Y-108400000D03*
X122500000Y-115700000D03*
X146500000Y-96600000D03*
X150900000Y-103900000D03*
X145100000Y-113800000D03*
X151400000Y-101700000D03*
X170400000Y-100000000D03*
X168097200Y-96393000D03*
X124800000Y-105000000D03*
X121600000Y-105100000D03*
X129500000Y-93800000D03*
X158038800Y-92481400D03*
D24*
X127609415Y-98717144D03*
D22*
X150400000Y-97900000D03*
X150393400Y-92456000D03*
X160629600Y-96596200D03*
X163100000Y-113500000D03*
X118000000Y-109000000D03*
D24*
X126800000Y-99796644D03*
D22*
X138900000Y-99500000D03*
X158064200Y-96570800D03*
X147300000Y-102500000D03*
X153400000Y-101700000D03*
D24*
X128300000Y-94700000D03*
D22*
X155500000Y-98000000D03*
X132800000Y-99200000D03*
X121500000Y-100900000D03*
X122700000Y-117200000D03*
X131000000Y-92600000D03*
X178300000Y-117000000D03*
D24*
X125250000Y-99800000D03*
D22*
X123700000Y-114500000D03*
X128000000Y-111200000D03*
X155524200Y-96545400D03*
X147500000Y-100500000D03*
X158400000Y-107300000D03*
X163118800Y-92481400D03*
X168173400Y-92456000D03*
X127600000Y-93500000D03*
D24*
X138658415Y-108813644D03*
D22*
X153100000Y-108300000D03*
X122500000Y-113800000D03*
X160500000Y-116200000D03*
X130800000Y-104900000D03*
X118000000Y-101000000D03*
X129000000Y-92600000D03*
X145700000Y-111500000D03*
X123700000Y-115700000D03*
X167000000Y-109900000D03*
X160553400Y-92481400D03*
X131300000Y-93800000D03*
X153600000Y-100000000D03*
X165633400Y-96520000D03*
X122400000Y-95700000D03*
X150500000Y-106100000D03*
X151000000Y-108400000D03*
X141000000Y-109600000D03*
X168000000Y-98900000D03*
X141000000Y-92600000D03*
X130700000Y-116200000D03*
X155800000Y-100700000D03*
X150400000Y-96500000D03*
X165700000Y-99000000D03*
X150000000Y-100400000D03*
X153400000Y-104300000D03*
X123900000Y-117400000D03*
X131700000Y-99600000D03*
X163600000Y-99900000D03*
X182397400Y-114249200D03*
X115000000Y-101000000D03*
X144800000Y-96600000D03*
X162500000Y-116200000D03*
X122400000Y-94600000D03*
X146900000Y-113600000D03*
X160600000Y-98300000D03*
X182346600Y-111760000D03*
D24*
X130200000Y-95224644D03*
D22*
X155800000Y-102900000D03*
D24*
X179996915Y-99987144D03*
D22*
X141500000Y-106100000D03*
D24*
X127400000Y-94500000D03*
D22*
X145000000Y-92600000D03*
X135200000Y-102900000D03*
D24*
X128500000Y-99400000D03*
D22*
X115000000Y-109000000D03*
D24*
X128800000Y-95500000D03*
D22*
X175800000Y-117000000D03*
X153000000Y-98000000D03*
X128300000Y-117300000D03*
D24*
X129600000Y-99600000D03*
D22*
X144000000Y-105800000D03*
X127600000Y-92600000D03*
X161500000Y-106000000D03*
D24*
X135000000Y-110000000D03*
D22*
X152958800Y-96570800D03*
X159900000Y-99900000D03*
X163100000Y-98300000D03*
D24*
X126400000Y-94660500D03*
D22*
X144900000Y-102500000D03*
X126900000Y-117100000D03*
X135000000Y-92600000D03*
X133000000Y-92600000D03*
X139000000Y-92600000D03*
X158100000Y-109700000D03*
X143000000Y-92600000D03*
X155473400Y-92481400D03*
X158300000Y-104300000D03*
X143900000Y-101300000D03*
X175800000Y-114000000D03*
X178300000Y-114000000D03*
X123300000Y-95700000D03*
X139200000Y-94900000D03*
X182372000Y-109194600D03*
D23*
%TO.N,+3V3*%
X137689915Y-94700000D03*
X129600000Y-117309944D03*
D24*
%TO.N,/D3*%
X140100000Y-99700000D03*
D22*
%TO.N,/RESET*%
X133784915Y-115300000D03*
%TO.N,/SS*%
X135689915Y-114550000D03*
%TO.N,/DIO5*%
X131689915Y-116150000D03*
%TD*%
D25*
%TO.N,+3V3*%
X169490010Y-113709990D02*
X169490010Y-112640010D01*
X165890056Y-117309944D02*
X169490010Y-113709990D01*
X129600000Y-117309944D02*
X165890056Y-117309944D01*
X169490010Y-110309990D02*
X169490010Y-111690010D01*
X169550000Y-110250000D02*
X169490010Y-110309990D01*
X182250000Y-106150000D02*
X178150000Y-110250000D01*
X182150000Y-94200000D02*
X182250000Y-94300000D01*
X178150000Y-110250000D02*
X169550000Y-110250000D01*
X181000000Y-94200000D02*
X182150000Y-94200000D01*
X182250000Y-94300000D02*
X182250000Y-106150000D01*
D26*
X148100000Y-111100000D02*
X169490010Y-111100000D01*
X146200000Y-113000000D02*
X148100000Y-111100000D01*
X169490010Y-111100000D02*
X169490010Y-111690010D01*
X142800000Y-113000000D02*
X146200000Y-113000000D01*
D25*
X169490010Y-111690010D02*
X169490010Y-112640010D01*
D26*
%TO.N,GND*%
X117830415Y-105003644D02*
X117862915Y-105003644D01*
X117862915Y-105003644D02*
X117999915Y-104993644D01*
D25*
%TO.N,+3V3*%
X123300000Y-113000000D02*
X123300000Y-111300000D01*
X123700000Y-113400000D02*
X123300000Y-113000000D01*
X129625000Y-103000000D02*
X129625000Y-102075000D01*
X129625000Y-106900000D02*
X129625000Y-103000000D01*
D27*
X139594915Y-113004644D02*
X139610915Y-112988644D01*
D25*
X127200000Y-110400000D02*
X129625000Y-107975000D01*
X129625000Y-107975000D02*
X129625000Y-106900000D01*
X123300000Y-111300000D02*
X124200000Y-110400000D01*
X124200000Y-110400000D02*
X127200000Y-110400000D01*
X137689915Y-99210085D02*
X137689915Y-94700000D01*
X135800000Y-101100000D02*
X137689915Y-99210085D01*
X130600000Y-101100000D02*
X135800000Y-101100000D01*
X125350000Y-113400000D02*
X123700000Y-113400000D01*
D27*
X139610915Y-112988644D02*
X142785915Y-112988644D01*
D25*
X129625000Y-102075000D02*
X130600000Y-101100000D01*
D26*
%TO.N,/D3*%
X131775000Y-104925000D02*
X131775000Y-103000000D01*
X131800000Y-104900000D02*
X131775000Y-104925000D01*
X131814415Y-106908644D02*
X131795915Y-106890144D01*
X131775000Y-104925000D02*
X131775000Y-106900000D01*
X140100000Y-99700000D02*
X134900000Y-104900000D01*
X134900000Y-104900000D02*
X133600000Y-104900000D01*
X133600000Y-104900000D02*
X131800000Y-104900000D01*
%TO.N,/SCL*%
X142800000Y-111000000D02*
X142797271Y-111000000D01*
X144866356Y-103733644D02*
X142800000Y-105800000D01*
X149480000Y-103740000D02*
X151310000Y-105570000D01*
X142797271Y-111000000D02*
X142785915Y-110988644D01*
X142800000Y-105800000D02*
X142800000Y-111000000D01*
X145954565Y-103733644D02*
X144866356Y-103733644D01*
X151310000Y-105570000D02*
X152267430Y-105570000D01*
X145987300Y-103740000D02*
X149480000Y-103740000D01*
%TO.N,/SDA*%
X139610915Y-110988644D02*
X139610915Y-106489085D01*
X151380000Y-103030000D02*
X152267430Y-103030000D01*
X149485000Y-101200000D02*
X151315000Y-103030000D01*
X144906356Y-101193644D02*
X146189515Y-101193644D01*
X146000000Y-101200000D02*
X149485000Y-101200000D01*
X139610915Y-106489085D02*
X144906356Y-101193644D01*
D28*
%TO.N,Net-(U1-ANT)*%
X126181665Y-95732644D02*
X127418915Y-95732644D01*
D26*
%TO.N,/GREEN*%
X132625915Y-110988644D02*
X132625915Y-110274085D01*
X156755915Y-98018644D02*
X156755915Y-97383644D01*
X144200000Y-98700000D02*
X156074559Y-98700000D01*
X156074559Y-98700000D02*
X156755915Y-98018644D01*
X132625915Y-110274085D02*
X144200000Y-98700000D01*
%TO.N,/BLUE*%
X159295915Y-97383644D02*
X157429559Y-99250000D01*
X157429559Y-99250000D02*
X145050000Y-99250000D01*
X145050000Y-99250000D02*
X136435915Y-107864085D01*
X136435915Y-110988644D02*
X136800915Y-110988644D01*
X136435915Y-107864085D02*
X136435915Y-110988644D01*
%TO.N,/RED*%
X144116356Y-97383644D02*
X130500000Y-111000000D01*
X149135915Y-97383644D02*
X144116356Y-97383644D01*
X130500000Y-111000000D02*
X129450000Y-111000000D01*
%TO.N,/RESET*%
X157600000Y-115300000D02*
X159330010Y-113569990D01*
X159330010Y-113569990D02*
X159330010Y-112640010D01*
X133784915Y-115300000D02*
X157600000Y-115300000D01*
%TO.N,/SS*%
X135689915Y-114550000D02*
X148400000Y-114550000D01*
X148400000Y-114550000D02*
X149135915Y-113814085D01*
X149135915Y-113814085D02*
X149135915Y-112623644D01*
%TO.N,Net-(RGB0-RED)*%
X129450915Y-112988644D02*
X128545915Y-112988644D01*
X125402815Y-111861644D02*
X127418915Y-111861644D01*
X127418915Y-111861644D02*
X128545915Y-112988644D01*
%TO.N,Net-(RGB0-BLUE)*%
X125804659Y-116000000D02*
X125371015Y-116433644D01*
X131400000Y-114000000D02*
X129400000Y-116000000D01*
X136435915Y-112988644D02*
X134461356Y-112988644D01*
X133450000Y-114000000D02*
X131400000Y-114000000D01*
X129400000Y-116000000D02*
X125804659Y-116000000D01*
X134461356Y-112988644D02*
X133450000Y-114000000D01*
%TO.N,Net-(RGB0-GREEN)*%
X129790356Y-114909644D02*
X125402815Y-114909644D01*
X131711356Y-112988644D02*
X129790356Y-114909644D01*
X132625915Y-112988644D02*
X131711356Y-112988644D01*
D29*
%TO.N,/DIO4*%
X152037631Y-100260201D02*
X152267430Y-100490000D01*
D26*
%TO.N,/DIO5*%
X159250000Y-116200000D02*
X161870010Y-113579990D01*
X131689915Y-116150000D02*
X131739915Y-116200000D01*
X161870010Y-113579990D02*
X161870010Y-112640010D01*
X131739915Y-116200000D02*
X159250000Y-116200000D01*
%TD*%
%TA.AperFunction,Conductor*%
%TO.N,GND*%
G36*
X124833694Y-92208150D02*
G01*
X124852000Y-92252344D01*
X124852000Y-93048000D01*
X127162999Y-93048000D01*
X127162999Y-92392611D01*
X127160050Y-92367192D01*
X127160050Y-92367191D01*
X127120487Y-92277589D01*
X127119383Y-92229766D01*
X127152417Y-92195169D01*
X127177662Y-92189844D01*
X181475307Y-92189844D01*
X181476253Y-92189988D01*
X181485023Y-92189890D01*
X181485024Y-92189891D01*
X181486861Y-92189870D01*
X181491739Y-92190007D01*
X181703558Y-92204291D01*
X181713241Y-92205713D01*
X181917801Y-92252405D01*
X181927156Y-92255329D01*
X181943253Y-92261786D01*
X182121881Y-92333441D01*
X182130669Y-92337795D01*
X182310777Y-92445406D01*
X182318775Y-92451081D01*
X182479832Y-92585543D01*
X182486844Y-92592400D01*
X182624882Y-92750398D01*
X182630729Y-92758258D01*
X182742357Y-92935915D01*
X182746904Y-92944599D01*
X182829365Y-93137525D01*
X182832501Y-93146818D01*
X182883766Y-93350268D01*
X182885408Y-93359936D01*
X182891989Y-93433056D01*
X182904150Y-93568176D01*
X182904463Y-93571648D01*
X182904715Y-93577251D01*
X182904715Y-93884226D01*
X182886409Y-93928420D01*
X182842215Y-93946726D01*
X182798021Y-93928420D01*
X182790248Y-93918949D01*
X182763355Y-93878701D01*
X182571298Y-93686644D01*
X182463055Y-93614318D01*
X182342775Y-93564497D01*
X182215093Y-93539100D01*
X180934907Y-93539100D01*
X180807224Y-93564497D01*
X180686944Y-93614318D01*
X180578701Y-93686644D01*
X180486644Y-93778701D01*
X180414318Y-93886944D01*
X180364497Y-94007224D01*
X180339100Y-94134906D01*
X180339100Y-94265093D01*
X180364497Y-94392775D01*
X180414318Y-94513055D01*
X180486644Y-94621298D01*
X180578701Y-94713355D01*
X180686944Y-94785681D01*
X180686945Y-94785681D01*
X180686946Y-94785682D01*
X180807223Y-94835502D01*
X180934907Y-94860900D01*
X181526600Y-94860900D01*
X181570794Y-94879206D01*
X181589100Y-94923400D01*
X181589100Y-105850358D01*
X181570794Y-105894552D01*
X177894552Y-109570794D01*
X177850358Y-109589100D01*
X169484906Y-109589100D01*
X169357224Y-109614496D01*
X169357221Y-109614497D01*
X169236948Y-109664316D01*
X169236944Y-109664319D01*
X169128701Y-109736644D01*
X168976654Y-109888691D01*
X168904328Y-109996934D01*
X168854507Y-110117214D01*
X168829110Y-110244896D01*
X168829110Y-110732200D01*
X168810804Y-110776394D01*
X168766610Y-110794700D01*
X148059801Y-110794700D01*
X148002733Y-110809993D01*
X147993221Y-110812542D01*
X147982159Y-110815506D01*
X147982157Y-110815507D01*
X147982155Y-110815507D01*
X147912541Y-110855698D01*
X146091847Y-112676394D01*
X146047653Y-112694700D01*
X143658092Y-112694700D01*
X143613898Y-112676394D01*
X143596793Y-112644392D01*
X143595922Y-112640014D01*
X143588227Y-112601323D01*
X143532331Y-112517669D01*
X143487931Y-112488002D01*
X143448678Y-112461773D01*
X143448676Y-112461772D01*
X143374911Y-112447100D01*
X142225091Y-112447100D01*
X142225087Y-112447101D01*
X142151324Y-112461772D01*
X142151320Y-112461774D01*
X142067669Y-112517669D01*
X142011775Y-112601321D01*
X142009472Y-112604767D01*
X141969698Y-112631343D01*
X141957505Y-112632544D01*
X140442495Y-112632544D01*
X140398301Y-112614238D01*
X140390528Y-112604767D01*
X140388227Y-112601323D01*
X140332331Y-112517669D01*
X140287931Y-112488002D01*
X140248678Y-112461773D01*
X140248676Y-112461772D01*
X140174911Y-112447100D01*
X139025091Y-112447100D01*
X139025087Y-112447101D01*
X138951324Y-112461772D01*
X138951320Y-112461774D01*
X138867669Y-112517669D01*
X138811773Y-112601321D01*
X138811772Y-112601323D01*
X138797100Y-112675088D01*
X138797100Y-113324908D01*
X138797101Y-113324912D01*
X138811772Y-113398675D01*
X138811773Y-113398677D01*
X138867669Y-113482331D01*
X138925778Y-113521158D01*
X138951321Y-113538226D01*
X138951323Y-113538227D01*
X139025089Y-113552900D01*
X140174910Y-113552899D01*
X140248677Y-113538227D01*
X140332331Y-113482331D01*
X140388227Y-113398677D01*
X140388948Y-113395053D01*
X140415522Y-113355278D01*
X140450247Y-113344744D01*
X141949753Y-113344744D01*
X141993947Y-113363050D01*
X142011052Y-113395051D01*
X142011772Y-113398675D01*
X142011773Y-113398677D01*
X142067669Y-113482331D01*
X142125778Y-113521158D01*
X142151321Y-113538226D01*
X142151323Y-113538227D01*
X142225089Y-113552900D01*
X143374910Y-113552899D01*
X143448677Y-113538227D01*
X143532331Y-113482331D01*
X143588227Y-113398677D01*
X143596794Y-113355606D01*
X143623370Y-113315833D01*
X143658093Y-113305300D01*
X146240191Y-113305300D01*
X146240193Y-113305300D01*
X146317841Y-113284494D01*
X146334817Y-113274692D01*
X146334820Y-113274692D01*
X146375018Y-113251482D01*
X146387459Y-113244300D01*
X148208154Y-111423606D01*
X148252348Y-111405300D01*
X168766610Y-111405300D01*
X168810804Y-111423606D01*
X168829110Y-111467800D01*
X168829110Y-111920895D01*
X168813237Y-111959213D01*
X168814894Y-111960573D01*
X168693873Y-112108039D01*
X168693865Y-112108050D01*
X168605386Y-112273582D01*
X168550896Y-112453210D01*
X168532499Y-112640009D01*
X168532499Y-112640010D01*
X168550896Y-112826809D01*
X168605386Y-113006437D01*
X168693865Y-113171969D01*
X168693873Y-113171980D01*
X168814895Y-113319447D01*
X168813238Y-113320806D01*
X168829110Y-113359124D01*
X168829110Y-113410348D01*
X168810804Y-113454542D01*
X165634608Y-116630738D01*
X165590414Y-116649044D01*
X131963952Y-116649044D01*
X131919758Y-116630738D01*
X131901452Y-116586544D01*
X131919758Y-116542350D01*
X131930163Y-116533965D01*
X131959330Y-116515221D01*
X131993119Y-116505300D01*
X159290191Y-116505300D01*
X159290193Y-116505300D01*
X159367841Y-116484494D01*
X159386296Y-116473838D01*
X159386299Y-116473838D01*
X159437457Y-116444301D01*
X159437456Y-116444301D01*
X159437459Y-116444300D01*
X162114311Y-113767449D01*
X162154504Y-113697831D01*
X162155343Y-113694700D01*
X162157185Y-113687827D01*
X162175309Y-113620187D01*
X162175310Y-113620181D01*
X162175310Y-113589530D01*
X162193616Y-113545336D01*
X162219668Y-113529721D01*
X162227986Y-113527197D01*
X162236434Y-113524635D01*
X162401975Y-113436151D01*
X162547073Y-113317073D01*
X162666151Y-113171975D01*
X162754635Y-113006434D01*
X162809123Y-112826811D01*
X162827521Y-112640010D01*
X162827521Y-112640009D01*
X163452499Y-112640009D01*
X163452499Y-112640010D01*
X163470896Y-112826809D01*
X163525386Y-113006437D01*
X163613865Y-113171969D01*
X163613873Y-113171980D01*
X163732945Y-113317071D01*
X163732948Y-113317074D01*
X163802093Y-113373819D01*
X163878045Y-113436151D01*
X163878048Y-113436152D01*
X163878050Y-113436154D01*
X164030565Y-113517675D01*
X164043586Y-113524635D01*
X164223209Y-113579123D01*
X164410010Y-113597521D01*
X164596811Y-113579123D01*
X164776434Y-113524635D01*
X164941975Y-113436151D01*
X165087073Y-113317073D01*
X165206151Y-113171975D01*
X165294635Y-113006434D01*
X165349123Y-112826811D01*
X165367521Y-112640010D01*
X165367521Y-112640009D01*
X165992499Y-112640009D01*
X165992499Y-112640010D01*
X166010896Y-112826809D01*
X166065386Y-113006437D01*
X166153865Y-113171969D01*
X166153873Y-113171980D01*
X166272945Y-113317071D01*
X166272948Y-113317074D01*
X166342093Y-113373819D01*
X166418045Y-113436151D01*
X166418048Y-113436152D01*
X166418050Y-113436154D01*
X166570565Y-113517675D01*
X166583586Y-113524635D01*
X166763209Y-113579123D01*
X166950010Y-113597521D01*
X167136811Y-113579123D01*
X167316434Y-113524635D01*
X167481975Y-113436151D01*
X167627073Y-113317073D01*
X167746151Y-113171975D01*
X167834635Y-113006434D01*
X167889123Y-112826811D01*
X167907521Y-112640010D01*
X167902623Y-112590284D01*
X167890140Y-112463537D01*
X167889123Y-112453209D01*
X167834635Y-112273586D01*
X167816410Y-112239490D01*
X167746154Y-112108050D01*
X167746152Y-112108048D01*
X167746151Y-112108045D01*
X167627073Y-111962947D01*
X167624180Y-111960573D01*
X167481980Y-111843873D01*
X167481978Y-111843872D01*
X167481975Y-111843869D01*
X167481973Y-111843867D01*
X167481969Y-111843865D01*
X167316437Y-111755386D01*
X167315906Y-111755225D01*
X167282999Y-111745242D01*
X167136809Y-111700896D01*
X166950010Y-111682499D01*
X166763210Y-111700896D01*
X166583582Y-111755386D01*
X166418050Y-111843865D01*
X166418039Y-111843873D01*
X166272948Y-111962945D01*
X166272945Y-111962948D01*
X166153873Y-112108039D01*
X166153865Y-112108050D01*
X166065386Y-112273582D01*
X166010896Y-112453210D01*
X165992499Y-112640009D01*
X165367521Y-112640009D01*
X165362623Y-112590284D01*
X165350140Y-112463537D01*
X165349123Y-112453209D01*
X165294635Y-112273586D01*
X165276410Y-112239490D01*
X165206154Y-112108050D01*
X165206152Y-112108048D01*
X165206151Y-112108045D01*
X165087073Y-111962947D01*
X165084180Y-111960573D01*
X164941980Y-111843873D01*
X164941978Y-111843872D01*
X164941975Y-111843869D01*
X164941973Y-111843867D01*
X164941969Y-111843865D01*
X164776437Y-111755386D01*
X164775906Y-111755225D01*
X164742999Y-111745242D01*
X164596809Y-111700896D01*
X164410010Y-111682499D01*
X164223210Y-111700896D01*
X164043582Y-111755386D01*
X163878050Y-111843865D01*
X163878039Y-111843873D01*
X163732948Y-111962945D01*
X163732945Y-111962948D01*
X163613873Y-112108039D01*
X163613865Y-112108050D01*
X163525386Y-112273582D01*
X163470896Y-112453210D01*
X163452499Y-112640009D01*
X162827521Y-112640009D01*
X162822623Y-112590284D01*
X162810140Y-112463537D01*
X162809123Y-112453209D01*
X162754635Y-112273586D01*
X162736410Y-112239490D01*
X162666154Y-112108050D01*
X162666152Y-112108048D01*
X162666151Y-112108045D01*
X162547073Y-111962947D01*
X162544180Y-111960573D01*
X162401980Y-111843873D01*
X162401978Y-111843872D01*
X162401975Y-111843869D01*
X162401973Y-111843867D01*
X162401969Y-111843865D01*
X162236437Y-111755386D01*
X162235906Y-111755225D01*
X162202999Y-111745242D01*
X162056809Y-111700896D01*
X161870010Y-111682499D01*
X161683210Y-111700896D01*
X161503582Y-111755386D01*
X161338050Y-111843865D01*
X161338039Y-111843873D01*
X161192948Y-111962945D01*
X161192945Y-111962948D01*
X161073873Y-112108039D01*
X161073865Y-112108050D01*
X160985386Y-112273582D01*
X160930896Y-112453210D01*
X160912499Y-112640009D01*
X160912499Y-112640010D01*
X160930896Y-112826809D01*
X160985386Y-113006437D01*
X161073865Y-113171969D01*
X161073873Y-113171980D01*
X161192945Y-113317071D01*
X161192948Y-113317074D01*
X161262093Y-113373819D01*
X161338045Y-113436151D01*
X161338048Y-113436152D01*
X161338050Y-113436154D01*
X161372452Y-113454542D01*
X161422760Y-113481432D01*
X161453107Y-113518409D01*
X161448418Y-113566014D01*
X161437492Y-113580746D01*
X159141847Y-115876394D01*
X159097653Y-115894700D01*
X132096512Y-115894700D01*
X132052318Y-115876394D01*
X132049278Y-115873129D01*
X131989552Y-115804202D01*
X131989551Y-115804201D01*
X131879991Y-115733792D01*
X131879989Y-115733791D01*
X131879987Y-115733790D01*
X131755034Y-115697100D01*
X131755032Y-115697100D01*
X131624798Y-115697100D01*
X131624796Y-115697100D01*
X131499842Y-115733790D01*
X131390279Y-115804201D01*
X131304993Y-115902627D01*
X131250891Y-116021091D01*
X131232358Y-116150000D01*
X131250891Y-116278908D01*
X131291488Y-116367800D01*
X131304994Y-116397374D01*
X131390279Y-116495799D01*
X131449668Y-116533965D01*
X131476951Y-116573258D01*
X131468458Y-116620333D01*
X131429165Y-116647616D01*
X131415879Y-116649044D01*
X129534907Y-116649044D01*
X129407224Y-116674441D01*
X129286944Y-116724262D01*
X129178701Y-116796588D01*
X129086644Y-116888645D01*
X129014318Y-116996888D01*
X128964497Y-117117168D01*
X128939100Y-117244850D01*
X128939100Y-117375037D01*
X128964497Y-117502719D01*
X128964498Y-117502721D01*
X129014318Y-117622998D01*
X129014319Y-117622999D01*
X129079280Y-117720221D01*
X129088612Y-117767137D01*
X129062036Y-117806911D01*
X129027313Y-117817444D01*
X122786483Y-117817444D01*
X122780358Y-117817143D01*
X122643450Y-117803662D01*
X122631437Y-117801272D01*
X122518896Y-117767137D01*
X122502742Y-117762237D01*
X122491423Y-117757549D01*
X122372815Y-117694156D01*
X122362628Y-117687350D01*
X122258664Y-117602036D01*
X122250001Y-117593373D01*
X122164684Y-117489423D01*
X122157876Y-117479236D01*
X122134679Y-117435843D01*
X122094470Y-117360626D01*
X122089784Y-117349312D01*
X122086636Y-117338937D01*
X122050739Y-117220620D01*
X122048349Y-117208605D01*
X122034916Y-117072294D01*
X122034615Y-117066165D01*
X122034615Y-111234906D01*
X122639100Y-111234906D01*
X122639100Y-113065093D01*
X122664497Y-113192775D01*
X122714318Y-113313055D01*
X122786644Y-113421298D01*
X122786646Y-113421300D01*
X123184457Y-113819110D01*
X123184462Y-113819116D01*
X123278701Y-113913355D01*
X123386944Y-113985681D01*
X123386945Y-113985681D01*
X123386946Y-113985682D01*
X123507223Y-114035502D01*
X123634906Y-114060900D01*
X123634907Y-114060900D01*
X124266965Y-114060900D01*
X124301688Y-114071433D01*
X124341788Y-114098227D01*
X124341794Y-114098230D01*
X124348506Y-114101010D01*
X124372244Y-114110842D01*
X124406070Y-114144666D01*
X124406071Y-114192501D01*
X124375591Y-114222999D01*
X124376299Y-114224324D01*
X124373588Y-114225772D01*
X124244543Y-114311997D01*
X124134797Y-114421743D01*
X124048572Y-114550788D01*
X124048571Y-114550791D01*
X123989178Y-114694181D01*
X123969263Y-114794300D01*
X123958900Y-114846399D01*
X123958900Y-115001601D01*
X123989179Y-115153822D01*
X124016467Y-115219701D01*
X124048571Y-115297208D01*
X124048572Y-115297211D01*
X124134797Y-115426256D01*
X124244543Y-115536002D01*
X124373588Y-115622227D01*
X124376299Y-115623676D01*
X124375585Y-115625011D01*
X124406070Y-115655496D01*
X124406071Y-115703331D01*
X124372246Y-115737156D01*
X124341796Y-115749768D01*
X124341788Y-115749772D01*
X124212743Y-115835997D01*
X124102997Y-115945743D01*
X124016772Y-116074788D01*
X124016771Y-116074791D01*
X123957378Y-116218181D01*
X123927100Y-116370398D01*
X123927100Y-116525601D01*
X123956706Y-116674442D01*
X123957379Y-116677822D01*
X123976615Y-116724262D01*
X124016771Y-116821208D01*
X124016772Y-116821211D01*
X124102997Y-116950256D01*
X124212743Y-117060002D01*
X124341788Y-117146227D01*
X124341789Y-117146227D01*
X124341790Y-117146228D01*
X124485178Y-117205621D01*
X124637399Y-117235900D01*
X126062601Y-117235900D01*
X126214822Y-117205621D01*
X126358210Y-117146228D01*
X126487257Y-117060002D01*
X126597002Y-116950257D01*
X126683228Y-116821210D01*
X126742621Y-116677822D01*
X126772900Y-116525601D01*
X126772900Y-116370399D01*
X126772900Y-116370398D01*
X126772900Y-116367800D01*
X126791206Y-116323606D01*
X126835400Y-116305300D01*
X129440191Y-116305300D01*
X129440193Y-116305300D01*
X129517841Y-116284494D01*
X129527513Y-116278909D01*
X129527515Y-116278909D01*
X129587457Y-116244301D01*
X129587456Y-116244301D01*
X129587459Y-116244300D01*
X130531759Y-115300000D01*
X133327358Y-115300000D01*
X133345891Y-115428908D01*
X133398588Y-115544295D01*
X133399994Y-115547374D01*
X133485279Y-115645799D01*
X133594839Y-115716208D01*
X133594841Y-115716208D01*
X133594842Y-115716209D01*
X133719796Y-115752900D01*
X133719798Y-115752900D01*
X133850034Y-115752900D01*
X133946359Y-115724615D01*
X133974991Y-115716208D01*
X134084551Y-115645799D01*
X134100951Y-115626871D01*
X134143727Y-115605459D01*
X134148186Y-115605300D01*
X157640191Y-115605300D01*
X157640193Y-115605300D01*
X157717841Y-115584494D01*
X157735150Y-115574500D01*
X157735152Y-115574500D01*
X157769205Y-115554838D01*
X157787459Y-115544300D01*
X159574311Y-113757449D01*
X159614504Y-113687831D01*
X159616029Y-113682138D01*
X159621720Y-113660901D01*
X159621720Y-113660900D01*
X159635309Y-113610187D01*
X159635310Y-113610182D01*
X159635310Y-113589530D01*
X159653616Y-113545336D01*
X159679668Y-113529721D01*
X159687986Y-113527197D01*
X159696434Y-113524635D01*
X159861975Y-113436151D01*
X160007073Y-113317073D01*
X160126151Y-113171975D01*
X160214635Y-113006434D01*
X160269123Y-112826811D01*
X160287521Y-112640010D01*
X160282623Y-112590284D01*
X160270140Y-112463537D01*
X160269123Y-112453209D01*
X160214635Y-112273586D01*
X160196410Y-112239490D01*
X160126154Y-112108050D01*
X160126152Y-112108048D01*
X160126151Y-112108045D01*
X160007073Y-111962947D01*
X160004180Y-111960573D01*
X159861980Y-111843873D01*
X159861978Y-111843872D01*
X159861975Y-111843869D01*
X159861973Y-111843867D01*
X159861969Y-111843865D01*
X159696437Y-111755386D01*
X159695906Y-111755225D01*
X159662999Y-111745242D01*
X159516809Y-111700896D01*
X159330010Y-111682499D01*
X159143210Y-111700896D01*
X158963582Y-111755386D01*
X158798050Y-111843865D01*
X158798039Y-111843873D01*
X158652948Y-111962945D01*
X158652945Y-111962948D01*
X158533873Y-112108039D01*
X158533865Y-112108050D01*
X158445386Y-112273582D01*
X158390896Y-112453210D01*
X158372499Y-112640009D01*
X158372499Y-112640010D01*
X158390896Y-112826809D01*
X158445386Y-113006437D01*
X158533865Y-113171969D01*
X158533873Y-113171980D01*
X158652945Y-113317071D01*
X158652948Y-113317074D01*
X158722093Y-113373819D01*
X158798045Y-113436151D01*
X158798048Y-113436152D01*
X158798050Y-113436154D01*
X158832227Y-113454422D01*
X158876244Y-113477949D01*
X158906591Y-113514926D01*
X158901902Y-113562531D01*
X158890976Y-113577263D01*
X157491847Y-114976394D01*
X157447653Y-114994700D01*
X136040708Y-114994700D01*
X135996514Y-114976394D01*
X135978208Y-114932200D01*
X135993474Y-114891271D01*
X135999957Y-114883790D01*
X136005952Y-114876871D01*
X136048728Y-114855459D01*
X136053186Y-114855300D01*
X148440191Y-114855300D01*
X148440193Y-114855300D01*
X148517841Y-114834494D01*
X148587459Y-114794300D01*
X149380215Y-114001544D01*
X149420409Y-113931926D01*
X149433744Y-113882159D01*
X149441215Y-113854278D01*
X149441215Y-113599872D01*
X149459521Y-113555678D01*
X149485571Y-113540063D01*
X149536434Y-113524635D01*
X149701975Y-113436151D01*
X149847073Y-113317073D01*
X149966151Y-113171975D01*
X150054635Y-113006434D01*
X150109123Y-112826811D01*
X150127521Y-112640010D01*
X150127521Y-112640009D01*
X150752499Y-112640009D01*
X150752499Y-112640010D01*
X150770896Y-112826809D01*
X150825386Y-113006437D01*
X150913865Y-113171969D01*
X150913873Y-113171980D01*
X151032945Y-113317071D01*
X151032948Y-113317074D01*
X151102093Y-113373819D01*
X151178045Y-113436151D01*
X151178048Y-113436152D01*
X151178050Y-113436154D01*
X151330565Y-113517675D01*
X151343586Y-113524635D01*
X151523209Y-113579123D01*
X151710010Y-113597521D01*
X151896811Y-113579123D01*
X152076434Y-113524635D01*
X152241975Y-113436151D01*
X152387073Y-113317073D01*
X152506151Y-113171975D01*
X152594635Y-113006434D01*
X152649123Y-112826811D01*
X152667521Y-112640010D01*
X152667521Y-112640009D01*
X153292499Y-112640009D01*
X153292499Y-112640010D01*
X153310896Y-112826809D01*
X153365386Y-113006437D01*
X153453865Y-113171969D01*
X153453873Y-113171980D01*
X153572945Y-113317071D01*
X153572948Y-113317074D01*
X153642093Y-113373819D01*
X153718045Y-113436151D01*
X153718048Y-113436152D01*
X153718050Y-113436154D01*
X153870565Y-113517675D01*
X153883586Y-113524635D01*
X154063209Y-113579123D01*
X154250010Y-113597521D01*
X154436811Y-113579123D01*
X154616434Y-113524635D01*
X154781975Y-113436151D01*
X154927073Y-113317073D01*
X155046151Y-113171975D01*
X155134635Y-113006434D01*
X155189123Y-112826811D01*
X155207521Y-112640010D01*
X155207521Y-112640009D01*
X155832499Y-112640009D01*
X155832499Y-112640010D01*
X155850896Y-112826809D01*
X155905386Y-113006437D01*
X155993865Y-113171969D01*
X155993873Y-113171980D01*
X156112945Y-113317071D01*
X156112948Y-113317074D01*
X156182093Y-113373819D01*
X156258045Y-113436151D01*
X156258048Y-113436152D01*
X156258050Y-113436154D01*
X156410565Y-113517675D01*
X156423586Y-113524635D01*
X156603209Y-113579123D01*
X156790010Y-113597521D01*
X156976811Y-113579123D01*
X157156434Y-113524635D01*
X157321975Y-113436151D01*
X157467073Y-113317073D01*
X157586151Y-113171975D01*
X157674635Y-113006434D01*
X157729123Y-112826811D01*
X157747521Y-112640010D01*
X157742623Y-112590284D01*
X157730140Y-112463537D01*
X157729123Y-112453209D01*
X157674635Y-112273586D01*
X157656410Y-112239490D01*
X157586154Y-112108050D01*
X157586152Y-112108048D01*
X157586151Y-112108045D01*
X157467073Y-111962947D01*
X157464180Y-111960573D01*
X157321980Y-111843873D01*
X157321978Y-111843872D01*
X157321975Y-111843869D01*
X157321973Y-111843867D01*
X157321969Y-111843865D01*
X157156437Y-111755386D01*
X157155906Y-111755225D01*
X157122999Y-111745242D01*
X156976809Y-111700896D01*
X156790010Y-111682499D01*
X156603210Y-111700896D01*
X156423582Y-111755386D01*
X156258050Y-111843865D01*
X156258039Y-111843873D01*
X156112948Y-111962945D01*
X156112945Y-111962948D01*
X155993873Y-112108039D01*
X155993865Y-112108050D01*
X155905386Y-112273582D01*
X155850896Y-112453210D01*
X155832499Y-112640009D01*
X155207521Y-112640009D01*
X155202623Y-112590284D01*
X155190140Y-112463537D01*
X155189123Y-112453209D01*
X155134635Y-112273586D01*
X155116410Y-112239490D01*
X155046154Y-112108050D01*
X155046152Y-112108048D01*
X155046151Y-112108045D01*
X154927073Y-111962947D01*
X154924180Y-111960573D01*
X154781980Y-111843873D01*
X154781978Y-111843872D01*
X154781975Y-111843869D01*
X154781973Y-111843867D01*
X154781969Y-111843865D01*
X154616437Y-111755386D01*
X154615906Y-111755225D01*
X154582999Y-111745242D01*
X154436809Y-111700896D01*
X154250010Y-111682499D01*
X154063210Y-111700896D01*
X153883582Y-111755386D01*
X153718050Y-111843865D01*
X153718039Y-111843873D01*
X153572948Y-111962945D01*
X153572945Y-111962948D01*
X153453873Y-112108039D01*
X153453865Y-112108050D01*
X153365386Y-112273582D01*
X153310896Y-112453210D01*
X153292499Y-112640009D01*
X152667521Y-112640009D01*
X152662623Y-112590284D01*
X152650140Y-112463537D01*
X152649123Y-112453209D01*
X152594635Y-112273586D01*
X152576410Y-112239490D01*
X152506154Y-112108050D01*
X152506152Y-112108048D01*
X152506151Y-112108045D01*
X152387073Y-111962947D01*
X152384180Y-111960573D01*
X152241980Y-111843873D01*
X152241978Y-111843872D01*
X152241975Y-111843869D01*
X152241973Y-111843867D01*
X152241969Y-111843865D01*
X152076437Y-111755386D01*
X152075906Y-111755225D01*
X152042999Y-111745242D01*
X151896809Y-111700896D01*
X151710010Y-111682499D01*
X151523210Y-111700896D01*
X151343582Y-111755386D01*
X151178050Y-111843865D01*
X151178039Y-111843873D01*
X151032948Y-111962945D01*
X151032945Y-111962948D01*
X150913873Y-112108039D01*
X150913865Y-112108050D01*
X150825386Y-112273582D01*
X150770896Y-112453210D01*
X150752499Y-112640009D01*
X150127521Y-112640009D01*
X150122623Y-112590284D01*
X150110140Y-112463537D01*
X150109123Y-112453209D01*
X150054635Y-112273586D01*
X150036410Y-112239490D01*
X149966154Y-112108050D01*
X149966152Y-112108048D01*
X149966151Y-112108045D01*
X149847073Y-111962947D01*
X149844180Y-111960573D01*
X149701980Y-111843873D01*
X149701978Y-111843872D01*
X149701975Y-111843869D01*
X149701973Y-111843867D01*
X149701969Y-111843865D01*
X149536437Y-111755386D01*
X149535906Y-111755225D01*
X149502999Y-111745242D01*
X149356809Y-111700896D01*
X149170010Y-111682499D01*
X148983210Y-111700896D01*
X148803582Y-111755386D01*
X148638050Y-111843865D01*
X148638039Y-111843873D01*
X148492948Y-111962945D01*
X148492945Y-111962948D01*
X148373873Y-112108039D01*
X148373865Y-112108050D01*
X148285386Y-112273582D01*
X148230896Y-112453210D01*
X148212499Y-112640009D01*
X148212499Y-112640010D01*
X148230896Y-112826809D01*
X148285386Y-113006437D01*
X148373865Y-113171969D01*
X148373873Y-113171980D01*
X148492945Y-113317071D01*
X148492948Y-113317074D01*
X148562093Y-113373819D01*
X148638045Y-113436151D01*
X148638048Y-113436152D01*
X148638050Y-113436154D01*
X148672452Y-113454542D01*
X148797578Y-113521423D01*
X148827924Y-113558399D01*
X148830615Y-113576542D01*
X148830615Y-113661738D01*
X148812309Y-113705932D01*
X148291847Y-114226394D01*
X148247653Y-114244700D01*
X136053186Y-114244700D01*
X136008992Y-114226394D01*
X136005951Y-114223128D01*
X135997311Y-114213157D01*
X135989551Y-114204201D01*
X135879991Y-114133792D01*
X135879989Y-114133791D01*
X135879987Y-114133790D01*
X135755034Y-114097100D01*
X135755032Y-114097100D01*
X135624798Y-114097100D01*
X135624796Y-114097100D01*
X135499842Y-114133790D01*
X135390279Y-114204201D01*
X135304993Y-114302627D01*
X135250891Y-114421091D01*
X135232358Y-114550000D01*
X135250891Y-114678908D01*
X135304993Y-114797373D01*
X135304994Y-114797374D01*
X135386356Y-114891272D01*
X135401462Y-114936659D01*
X135380049Y-114979435D01*
X135339121Y-114994700D01*
X134148186Y-114994700D01*
X134103992Y-114976394D01*
X134100951Y-114973128D01*
X134094955Y-114966208D01*
X134084551Y-114954201D01*
X133974991Y-114883792D01*
X133974989Y-114883791D01*
X133974987Y-114883790D01*
X133850034Y-114847100D01*
X133850032Y-114847100D01*
X133719798Y-114847100D01*
X133719796Y-114847100D01*
X133594842Y-114883790D01*
X133485279Y-114954201D01*
X133399993Y-115052627D01*
X133345891Y-115171091D01*
X133327358Y-115300000D01*
X130531759Y-115300000D01*
X131508153Y-114323606D01*
X131552347Y-114305300D01*
X133490191Y-114305300D01*
X133490193Y-114305300D01*
X133567841Y-114284494D01*
X133571190Y-114282560D01*
X133600729Y-114265507D01*
X133636766Y-114244700D01*
X133637459Y-114244300D01*
X134569509Y-113312250D01*
X134613703Y-113293944D01*
X135589649Y-113293944D01*
X135633843Y-113312250D01*
X135650948Y-113344252D01*
X135661772Y-113398675D01*
X135661773Y-113398677D01*
X135717669Y-113482331D01*
X135775778Y-113521158D01*
X135801321Y-113538226D01*
X135801323Y-113538227D01*
X135875089Y-113552900D01*
X137024910Y-113552899D01*
X137098677Y-113538227D01*
X137182331Y-113482331D01*
X137238227Y-113398677D01*
X137252900Y-113324911D01*
X137252899Y-112675090D01*
X137238227Y-112601323D01*
X137182331Y-112517669D01*
X137137931Y-112488002D01*
X137098678Y-112461773D01*
X137098676Y-112461772D01*
X137024911Y-112447100D01*
X135875091Y-112447100D01*
X135875087Y-112447101D01*
X135801324Y-112461772D01*
X135801320Y-112461774D01*
X135717669Y-112517669D01*
X135661773Y-112601321D01*
X135661772Y-112601323D01*
X135655465Y-112633037D01*
X135628890Y-112672811D01*
X135594166Y-112683344D01*
X134421158Y-112683344D01*
X134373793Y-112696036D01*
X134364320Y-112698575D01*
X134348786Y-112702737D01*
X134343509Y-112704151D01*
X134273897Y-112744343D01*
X134273891Y-112744348D01*
X133521785Y-113496455D01*
X133477591Y-113514761D01*
X133433397Y-113496455D01*
X133415091Y-113452261D01*
X133425625Y-113417537D01*
X133438226Y-113398679D01*
X133438227Y-113398676D01*
X133439138Y-113394098D01*
X133452900Y-113324911D01*
X133452899Y-112675090D01*
X133438227Y-112601323D01*
X133382331Y-112517669D01*
X133337931Y-112488002D01*
X133298678Y-112461773D01*
X133298676Y-112461772D01*
X133224911Y-112447100D01*
X132075091Y-112447100D01*
X132075087Y-112447101D01*
X132001324Y-112461772D01*
X132001320Y-112461774D01*
X131917669Y-112517669D01*
X131861773Y-112601321D01*
X131861772Y-112601323D01*
X131855465Y-112633037D01*
X131828890Y-112672811D01*
X131794166Y-112683344D01*
X131671158Y-112683344D01*
X131623793Y-112696036D01*
X131614320Y-112698575D01*
X131598786Y-112702737D01*
X131593509Y-112704151D01*
X131523897Y-112744343D01*
X131523891Y-112744348D01*
X129682203Y-114586038D01*
X129638009Y-114604344D01*
X126778972Y-114604344D01*
X126734778Y-114586038D01*
X126721230Y-114565762D01*
X126715029Y-114550792D01*
X126715026Y-114550787D01*
X126628802Y-114421743D01*
X126519056Y-114311997D01*
X126390011Y-114225772D01*
X126390008Y-114225771D01*
X126377132Y-114220437D01*
X126359553Y-114213156D01*
X126325729Y-114179332D01*
X126325728Y-114131497D01*
X126356214Y-114101010D01*
X126355501Y-114099676D01*
X126358206Y-114098229D01*
X126358210Y-114098228D01*
X126487257Y-114012002D01*
X126597002Y-113902257D01*
X126683228Y-113773210D01*
X126742621Y-113629822D01*
X126772900Y-113477601D01*
X126772900Y-113322399D01*
X126742621Y-113170178D01*
X126683228Y-113026790D01*
X126597002Y-112897743D01*
X126487257Y-112787998D01*
X126487256Y-112787997D01*
X126358211Y-112701772D01*
X126355501Y-112700324D01*
X126356211Y-112698995D01*
X126325721Y-112668484D01*
X126325736Y-112620648D01*
X126359553Y-112586843D01*
X126390010Y-112574228D01*
X126519057Y-112488002D01*
X126628802Y-112378257D01*
X126715028Y-112249210D01*
X126733123Y-112205526D01*
X126766948Y-112171701D01*
X126790865Y-112166944D01*
X127266568Y-112166944D01*
X127310761Y-112185249D01*
X128358456Y-113232945D01*
X128425254Y-113271510D01*
X128428074Y-113273138D01*
X128470451Y-113284493D01*
X128505717Y-113293943D01*
X128505719Y-113293943D01*
X128505722Y-113293944D01*
X128589649Y-113293944D01*
X128633843Y-113312250D01*
X128650948Y-113344252D01*
X128661772Y-113398675D01*
X128661773Y-113398677D01*
X128717669Y-113482331D01*
X128775778Y-113521158D01*
X128801321Y-113538226D01*
X128801323Y-113538227D01*
X128875089Y-113552900D01*
X130024910Y-113552899D01*
X130098677Y-113538227D01*
X130182331Y-113482331D01*
X130238227Y-113398677D01*
X130252900Y-113324911D01*
X130252899Y-112675090D01*
X130238227Y-112601323D01*
X130182331Y-112517669D01*
X130137931Y-112488002D01*
X130098678Y-112461773D01*
X130098676Y-112461772D01*
X130024911Y-112447100D01*
X128875091Y-112447100D01*
X128875087Y-112447101D01*
X128801324Y-112461772D01*
X128801320Y-112461774D01*
X128717668Y-112517669D01*
X128675475Y-112580814D01*
X128635701Y-112607389D01*
X128588785Y-112598056D01*
X128579315Y-112590284D01*
X127606379Y-111617348D01*
X127606375Y-111617345D01*
X127606374Y-111617344D01*
X127536756Y-111577150D01*
X127536755Y-111577149D01*
X127536754Y-111577149D01*
X127459112Y-111556344D01*
X127459108Y-111556344D01*
X126778972Y-111556344D01*
X126734778Y-111538038D01*
X126721230Y-111517762D01*
X126715029Y-111502792D01*
X126715026Y-111502787D01*
X126628802Y-111373743D01*
X126519056Y-111263997D01*
X126387457Y-111176066D01*
X126388327Y-111174762D01*
X126361065Y-111141548D01*
X126365749Y-111093942D01*
X126402724Y-111063593D01*
X126420872Y-111060900D01*
X127265093Y-111060900D01*
X127392777Y-111035502D01*
X127513054Y-110985682D01*
X127621299Y-110913355D01*
X127859566Y-110675088D01*
X128647100Y-110675088D01*
X128647100Y-111324908D01*
X128647101Y-111324912D01*
X128661772Y-111398675D01*
X128661773Y-111398677D01*
X128717669Y-111482331D01*
X128770695Y-111517762D01*
X128801321Y-111538226D01*
X128801323Y-111538227D01*
X128875089Y-111552900D01*
X130024910Y-111552899D01*
X130098677Y-111538227D01*
X130182331Y-111482331D01*
X130238227Y-111398677D01*
X130246794Y-111355606D01*
X130273370Y-111315833D01*
X130308093Y-111305300D01*
X130540191Y-111305300D01*
X130540193Y-111305300D01*
X130617841Y-111284494D01*
X130653341Y-111263998D01*
X130687459Y-111244300D01*
X144224509Y-97707250D01*
X144268703Y-97688944D01*
X148215518Y-97688944D01*
X148259712Y-97707250D01*
X148275327Y-97733301D01*
X148285373Y-97766421D01*
X148373855Y-97931959D01*
X148373863Y-97931970D01*
X148492933Y-98077059D01*
X148492937Y-98077063D01*
X148638035Y-98196141D01*
X148638038Y-98196142D01*
X148638040Y-98196144D01*
X148789460Y-98277080D01*
X148819807Y-98314057D01*
X148815118Y-98361662D01*
X148778141Y-98392009D01*
X148759998Y-98394700D01*
X144159802Y-98394700D01*
X144082161Y-98415505D01*
X144082159Y-98415505D01*
X144012539Y-98455701D01*
X144012535Y-98455704D01*
X132381613Y-110086627D01*
X132381612Y-110086628D01*
X132363957Y-110117211D01*
X132363956Y-110117213D01*
X132351878Y-110138130D01*
X132341420Y-110156244D01*
X132320615Y-110233887D01*
X132320615Y-110384600D01*
X132302309Y-110428794D01*
X132258115Y-110447100D01*
X132075091Y-110447100D01*
X132075087Y-110447101D01*
X132001324Y-110461772D01*
X132001320Y-110461774D01*
X131917669Y-110517669D01*
X131861773Y-110601321D01*
X131861772Y-110601323D01*
X131847100Y-110675088D01*
X131847100Y-111324908D01*
X131847101Y-111324912D01*
X131861772Y-111398675D01*
X131861773Y-111398677D01*
X131917669Y-111482331D01*
X131970695Y-111517762D01*
X132001321Y-111538226D01*
X132001323Y-111538227D01*
X132075089Y-111552900D01*
X133224910Y-111552899D01*
X133298677Y-111538227D01*
X133382331Y-111482331D01*
X133438227Y-111398677D01*
X133452900Y-111324911D01*
X133452899Y-110675090D01*
X133438227Y-110601323D01*
X133382331Y-110517669D01*
X133340504Y-110489721D01*
X133298678Y-110461773D01*
X133298676Y-110461772D01*
X133224911Y-110447100D01*
X133035547Y-110447100D01*
X132991353Y-110428794D01*
X132973047Y-110384600D01*
X132991353Y-110340406D01*
X144308153Y-99023606D01*
X144352347Y-99005300D01*
X144712052Y-99005300D01*
X144756246Y-99023606D01*
X144774552Y-99067800D01*
X144756246Y-99111994D01*
X136191615Y-107676625D01*
X136176446Y-107702900D01*
X136176445Y-107702900D01*
X136151423Y-107746238D01*
X136151421Y-107746243D01*
X136130615Y-107823887D01*
X136130615Y-110384600D01*
X136112309Y-110428794D01*
X136068115Y-110447100D01*
X135875091Y-110447100D01*
X135875087Y-110447101D01*
X135801324Y-110461772D01*
X135801320Y-110461774D01*
X135717669Y-110517669D01*
X135661773Y-110601321D01*
X135661772Y-110601323D01*
X135647100Y-110675088D01*
X135647100Y-111324908D01*
X135647101Y-111324912D01*
X135661772Y-111398675D01*
X135661773Y-111398677D01*
X135717669Y-111482331D01*
X135770695Y-111517762D01*
X135801321Y-111538226D01*
X135801323Y-111538227D01*
X135875089Y-111552900D01*
X137024910Y-111552899D01*
X137098677Y-111538227D01*
X137182331Y-111482331D01*
X137238227Y-111398677D01*
X137252900Y-111324911D01*
X137252899Y-110675090D01*
X137252899Y-110675088D01*
X138797100Y-110675088D01*
X138797100Y-111324908D01*
X138797101Y-111324912D01*
X138811772Y-111398675D01*
X138811773Y-111398677D01*
X138867669Y-111482331D01*
X138920695Y-111517762D01*
X138951321Y-111538226D01*
X138951323Y-111538227D01*
X139025089Y-111552900D01*
X140174910Y-111552899D01*
X140248677Y-111538227D01*
X140332331Y-111482331D01*
X140388227Y-111398677D01*
X140402900Y-111324911D01*
X140402899Y-110675090D01*
X140402899Y-110675088D01*
X141997100Y-110675088D01*
X141997100Y-111324908D01*
X141997101Y-111324912D01*
X142011772Y-111398675D01*
X142011773Y-111398677D01*
X142067669Y-111482331D01*
X142120695Y-111517762D01*
X142151321Y-111538226D01*
X142151323Y-111538227D01*
X142225089Y-111552900D01*
X143374910Y-111552899D01*
X143448677Y-111538227D01*
X143532331Y-111482331D01*
X143588227Y-111398677D01*
X143602900Y-111324911D01*
X143602899Y-110675090D01*
X143588227Y-110601323D01*
X143532331Y-110517669D01*
X143490504Y-110489721D01*
X143448678Y-110461773D01*
X143448676Y-110461772D01*
X143374911Y-110447100D01*
X143167800Y-110447100D01*
X143123606Y-110428794D01*
X143105300Y-110384600D01*
X143105300Y-107871493D01*
X144894600Y-107871493D01*
X144894600Y-109781204D01*
X144894601Y-109781208D01*
X144903471Y-109825806D01*
X144903472Y-109825808D01*
X144937266Y-109876384D01*
X144987842Y-109910178D01*
X145032443Y-109919050D01*
X146942156Y-109919049D01*
X146986758Y-109910178D01*
X147037334Y-109876384D01*
X147071128Y-109825808D01*
X147080000Y-109781207D01*
X147079999Y-107871494D01*
X147071128Y-107826892D01*
X147037334Y-107776316D01*
X147003539Y-107753734D01*
X146986757Y-107742521D01*
X146951028Y-107735414D01*
X146942157Y-107733650D01*
X146942156Y-107733650D01*
X145032445Y-107733650D01*
X145032441Y-107733651D01*
X144987843Y-107742521D01*
X144987842Y-107742522D01*
X144937266Y-107776316D01*
X144903471Y-107826892D01*
X144894600Y-107871493D01*
X143105300Y-107871493D01*
X143105300Y-107559995D01*
X170980786Y-107559995D01*
X170980786Y-107560004D01*
X170999611Y-107799215D01*
X170999612Y-107799219D01*
X171051760Y-108016432D01*
X171055631Y-108032553D01*
X171147460Y-108254249D01*
X171147462Y-108254253D01*
X171272837Y-108458845D01*
X171272838Y-108458847D01*
X171272840Y-108458849D01*
X171307425Y-108499343D01*
X171428681Y-108641318D01*
X171506422Y-108707714D01*
X171611151Y-108797160D01*
X171815751Y-108922540D01*
X172037447Y-109014369D01*
X172270778Y-109070387D01*
X172270780Y-109070387D01*
X172270784Y-109070388D01*
X172509996Y-109089214D01*
X172510000Y-109089214D01*
X172510004Y-109089214D01*
X172749215Y-109070388D01*
X172749217Y-109070387D01*
X172749222Y-109070387D01*
X172982553Y-109014369D01*
X173204249Y-108922540D01*
X173408849Y-108797160D01*
X173591318Y-108641318D01*
X173747160Y-108458849D01*
X173872540Y-108254249D01*
X173964369Y-108032553D01*
X174020387Y-107799222D01*
X174024557Y-107746244D01*
X174039214Y-107560004D01*
X174039214Y-107559995D01*
X174020388Y-107320784D01*
X174020387Y-107320780D01*
X174018586Y-107313279D01*
X173964369Y-107087447D01*
X173872540Y-106865751D01*
X173872537Y-106865746D01*
X173747162Y-106661154D01*
X173747161Y-106661153D01*
X173747160Y-106661151D01*
X173651558Y-106549214D01*
X173591318Y-106478681D01*
X173408845Y-106322837D01*
X173204253Y-106197462D01*
X173204250Y-106197461D01*
X173204249Y-106197460D01*
X172982553Y-106105631D01*
X172982547Y-106105629D01*
X172982546Y-106105629D01*
X172749219Y-106049612D01*
X172749215Y-106049611D01*
X172510004Y-106030786D01*
X172509996Y-106030786D01*
X172270784Y-106049611D01*
X172270780Y-106049612D01*
X172037453Y-106105629D01*
X172037449Y-106105630D01*
X172037447Y-106105631D01*
X171850924Y-106182891D01*
X171815746Y-106197462D01*
X171611154Y-106322837D01*
X171428681Y-106478681D01*
X171272837Y-106661154D01*
X171147462Y-106865746D01*
X171147460Y-106865751D01*
X171056759Y-107084726D01*
X171055629Y-107087453D01*
X170999612Y-107320780D01*
X170999611Y-107320784D01*
X170980786Y-107559995D01*
X143105300Y-107559995D01*
X143105300Y-106279995D01*
X144902619Y-106279995D01*
X144902619Y-106280004D01*
X144921302Y-106481635D01*
X144921304Y-106481646D01*
X144945241Y-106565773D01*
X144976723Y-106676420D01*
X145066988Y-106857697D01*
X145076082Y-106869739D01*
X145172263Y-106997104D01*
X145189026Y-107019301D01*
X145263785Y-107087453D01*
X145338675Y-107155725D01*
X145338676Y-107155726D01*
X145338680Y-107155729D01*
X145510855Y-107262335D01*
X145699687Y-107335489D01*
X145898746Y-107372700D01*
X145898749Y-107372700D01*
X146101251Y-107372700D01*
X146101254Y-107372700D01*
X146300313Y-107335489D01*
X146489145Y-107262335D01*
X146661320Y-107155729D01*
X146810974Y-107019301D01*
X146933012Y-106857697D01*
X147023277Y-106676420D01*
X147078696Y-106481643D01*
X147078697Y-106481635D01*
X147097381Y-106280004D01*
X147097381Y-106279995D01*
X147078697Y-106078364D01*
X147078695Y-106078353D01*
X147042843Y-105952347D01*
X147023277Y-105883580D01*
X146933012Y-105702303D01*
X146810974Y-105540699D01*
X146698566Y-105438225D01*
X146661324Y-105404274D01*
X146661321Y-105404272D01*
X146661320Y-105404271D01*
X146489145Y-105297665D01*
X146489143Y-105297664D01*
X146434258Y-105276402D01*
X146300313Y-105224511D01*
X146300310Y-105224510D01*
X146300309Y-105224510D01*
X146101258Y-105187300D01*
X146101254Y-105187300D01*
X145898746Y-105187300D01*
X145898741Y-105187300D01*
X145699690Y-105224510D01*
X145699687Y-105224510D01*
X145699687Y-105224511D01*
X145660157Y-105239825D01*
X145510856Y-105297664D01*
X145338675Y-105404274D01*
X145189024Y-105540701D01*
X145189022Y-105540703D01*
X145066988Y-105702303D01*
X144976723Y-105883579D01*
X144921304Y-106078353D01*
X144921302Y-106078364D01*
X144902619Y-106279995D01*
X143105300Y-106279995D01*
X143105300Y-105952347D01*
X143123606Y-105908153D01*
X143901698Y-105130061D01*
X144879769Y-104151989D01*
X144923962Y-104133684D01*
X144968156Y-104151990D01*
X144979909Y-104168323D01*
X145054288Y-104317697D01*
X145129784Y-104417669D01*
X145159563Y-104457104D01*
X145176326Y-104479301D01*
X145251085Y-104547453D01*
X145325975Y-104615725D01*
X145325976Y-104615726D01*
X145325980Y-104615729D01*
X145498155Y-104722335D01*
X145686987Y-104795489D01*
X145886046Y-104832700D01*
X145886049Y-104832700D01*
X146088551Y-104832700D01*
X146088554Y-104832700D01*
X146287613Y-104795489D01*
X146476445Y-104722335D01*
X146648620Y-104615729D01*
X146798274Y-104479301D01*
X146920312Y-104317697D01*
X147010577Y-104136420D01*
X147023587Y-104090695D01*
X147053289Y-104053198D01*
X147083701Y-104045300D01*
X149327653Y-104045300D01*
X149371847Y-104063606D01*
X151122541Y-105814301D01*
X151192155Y-105854492D01*
X151192156Y-105854492D01*
X151192159Y-105854494D01*
X151239676Y-105867226D01*
X151269802Y-105875299D01*
X151269804Y-105875299D01*
X151269807Y-105875300D01*
X151333149Y-105875300D01*
X151377343Y-105893606D01*
X151392590Y-105918487D01*
X151401059Y-105944555D01*
X151401061Y-105944559D01*
X151401062Y-105944561D01*
X151494252Y-106105972D01*
X151499891Y-106115739D01*
X151499892Y-106115741D01*
X151632149Y-106262627D01*
X151632150Y-106262628D01*
X151792054Y-106378805D01*
X151792060Y-106378809D01*
X151972631Y-106459204D01*
X152165971Y-106500300D01*
X152363629Y-106500300D01*
X152556969Y-106459204D01*
X152737540Y-106378809D01*
X152897449Y-106262628D01*
X152902373Y-106257160D01*
X153008075Y-106139766D01*
X153029709Y-106115739D01*
X153128538Y-105944561D01*
X153189618Y-105756576D01*
X153210279Y-105560000D01*
X153189618Y-105363424D01*
X153168581Y-105298678D01*
X153128540Y-105175444D01*
X153128539Y-105175442D01*
X153128538Y-105175439D01*
X153038793Y-105019995D01*
X177728786Y-105019995D01*
X177728786Y-105020004D01*
X177747611Y-105259215D01*
X177747612Y-105259219D01*
X177794110Y-105452898D01*
X177803631Y-105492553D01*
X177882168Y-105682158D01*
X177895462Y-105714253D01*
X178020837Y-105918845D01*
X178176681Y-106101318D01*
X178280918Y-106190343D01*
X178359151Y-106257160D01*
X178359153Y-106257161D01*
X178359154Y-106257162D01*
X178563746Y-106382537D01*
X178563751Y-106382540D01*
X178785447Y-106474369D01*
X179018778Y-106530387D01*
X179018780Y-106530387D01*
X179018784Y-106530388D01*
X179257996Y-106549214D01*
X179258000Y-106549214D01*
X179258004Y-106549214D01*
X179497215Y-106530388D01*
X179497217Y-106530387D01*
X179497222Y-106530387D01*
X179730553Y-106474369D01*
X179952249Y-106382540D01*
X180156849Y-106257160D01*
X180339318Y-106101318D01*
X180495160Y-105918849D01*
X180620540Y-105714249D01*
X180712369Y-105492553D01*
X180768387Y-105259222D01*
X180768672Y-105255608D01*
X180787214Y-105020004D01*
X180787214Y-105019995D01*
X180768388Y-104780784D01*
X180768387Y-104780780D01*
X180766586Y-104773279D01*
X180712369Y-104547447D01*
X180620540Y-104325751D01*
X180620537Y-104325746D01*
X180495162Y-104121154D01*
X180495161Y-104121153D01*
X180495160Y-104121151D01*
X180383478Y-103990387D01*
X180339318Y-103938681D01*
X180174250Y-103797702D01*
X180156849Y-103782840D01*
X180156847Y-103782838D01*
X180156845Y-103782837D01*
X179952253Y-103657462D01*
X179952250Y-103657461D01*
X179952249Y-103657460D01*
X179730553Y-103565631D01*
X179730547Y-103565629D01*
X179730546Y-103565629D01*
X179497219Y-103509612D01*
X179497215Y-103509611D01*
X179258004Y-103490786D01*
X179257996Y-103490786D01*
X179018784Y-103509611D01*
X179018780Y-103509612D01*
X178785453Y-103565629D01*
X178785449Y-103565630D01*
X178785447Y-103565631D01*
X178598924Y-103642891D01*
X178563746Y-103657462D01*
X178359154Y-103782837D01*
X178176681Y-103938681D01*
X178020837Y-104121154D01*
X177895462Y-104325746D01*
X177895460Y-104325751D01*
X177804759Y-104544726D01*
X177803629Y-104547453D01*
X177747612Y-104780780D01*
X177747611Y-104780784D01*
X177728786Y-105019995D01*
X153038793Y-105019995D01*
X153029709Y-105004261D01*
X153029707Y-105004259D01*
X153029707Y-105004258D01*
X152897450Y-104857372D01*
X152897449Y-104857371D01*
X152737545Y-104741194D01*
X152737542Y-104741192D01*
X152737540Y-104741191D01*
X152611602Y-104685120D01*
X152556972Y-104660797D01*
X152556969Y-104660796D01*
X152556967Y-104660795D01*
X152556965Y-104660795D01*
X152363629Y-104619700D01*
X152165971Y-104619700D01*
X151972634Y-104660795D01*
X151972619Y-104660800D01*
X151792062Y-104741190D01*
X151792056Y-104741193D01*
X151632151Y-104857371D01*
X151632145Y-104857377D01*
X151499892Y-105004258D01*
X151499891Y-105004260D01*
X151422072Y-105139047D01*
X151384121Y-105168167D01*
X151336695Y-105161924D01*
X151323751Y-105151991D01*
X149667464Y-103495704D01*
X149667460Y-103495701D01*
X149667459Y-103495700D01*
X149597841Y-103455506D01*
X149597840Y-103455505D01*
X149597839Y-103455505D01*
X149520197Y-103434700D01*
X149520193Y-103434700D01*
X147083701Y-103434700D01*
X147039507Y-103416394D01*
X147023587Y-103389305D01*
X147020509Y-103378487D01*
X147010577Y-103343580D01*
X146920312Y-103162303D01*
X146798274Y-103000699D01*
X146704390Y-102915112D01*
X146648624Y-102864274D01*
X146648621Y-102864272D01*
X146648620Y-102864271D01*
X146476445Y-102757665D01*
X146476443Y-102757664D01*
X146377212Y-102719222D01*
X146287613Y-102684511D01*
X146287610Y-102684510D01*
X146287609Y-102684510D01*
X146088558Y-102647300D01*
X146088554Y-102647300D01*
X145886046Y-102647300D01*
X145886041Y-102647300D01*
X145686990Y-102684510D01*
X145498156Y-102757664D01*
X145325975Y-102864274D01*
X145176324Y-103000701D01*
X145176322Y-103000703D01*
X145054288Y-103162303D01*
X144964023Y-103343579D01*
X144952822Y-103382948D01*
X144923121Y-103420445D01*
X144892708Y-103428344D01*
X144826158Y-103428344D01*
X144748517Y-103449149D01*
X144748511Y-103449151D01*
X144678897Y-103489342D01*
X142555700Y-105612540D01*
X142551973Y-105618996D01*
X142546514Y-105628452D01*
X142536178Y-105646354D01*
X142515506Y-105682157D01*
X142515506Y-105682158D01*
X142494700Y-105759802D01*
X142494700Y-110384600D01*
X142476394Y-110428794D01*
X142432200Y-110447100D01*
X142225091Y-110447100D01*
X142225087Y-110447101D01*
X142151324Y-110461772D01*
X142151320Y-110461774D01*
X142067669Y-110517669D01*
X142011773Y-110601321D01*
X142011772Y-110601323D01*
X141997100Y-110675088D01*
X140402899Y-110675088D01*
X140388227Y-110601323D01*
X140332331Y-110517669D01*
X140290504Y-110489721D01*
X140248678Y-110461773D01*
X140248676Y-110461772D01*
X140174911Y-110447100D01*
X139978715Y-110447100D01*
X139934521Y-110428794D01*
X139916215Y-110384600D01*
X139916215Y-106641431D01*
X139934520Y-106597238D01*
X144901543Y-101630214D01*
X144945736Y-101611909D01*
X144989930Y-101630215D01*
X145001684Y-101646550D01*
X145021170Y-101685682D01*
X145066988Y-101777697D01*
X145076082Y-101789739D01*
X145172263Y-101917104D01*
X145189026Y-101939301D01*
X145263785Y-102007453D01*
X145338675Y-102075725D01*
X145338676Y-102075726D01*
X145338680Y-102075729D01*
X145510855Y-102182335D01*
X145699687Y-102255489D01*
X145898746Y-102292700D01*
X145898749Y-102292700D01*
X146101251Y-102292700D01*
X146101254Y-102292700D01*
X146300313Y-102255489D01*
X146489145Y-102182335D01*
X146661320Y-102075729D01*
X146810974Y-101939301D01*
X146933012Y-101777697D01*
X147023277Y-101596420D01*
X147036287Y-101550695D01*
X147065989Y-101513198D01*
X147096401Y-101505300D01*
X149332653Y-101505300D01*
X149376847Y-101523606D01*
X151127541Y-103274301D01*
X151197155Y-103314492D01*
X151197157Y-103314492D01*
X151197159Y-103314494D01*
X151197160Y-103314494D01*
X151197162Y-103314495D01*
X151241576Y-103326395D01*
X151274807Y-103335299D01*
X151333149Y-103335299D01*
X151377343Y-103353605D01*
X151392590Y-103378487D01*
X151401058Y-103404553D01*
X151401059Y-103404555D01*
X151401061Y-103404559D01*
X151401062Y-103404561D01*
X151474013Y-103530917D01*
X151499891Y-103575739D01*
X151499892Y-103575741D01*
X151632149Y-103722627D01*
X151632150Y-103722628D01*
X151767830Y-103821205D01*
X151792060Y-103838809D01*
X151972631Y-103919204D01*
X152165971Y-103960300D01*
X152363629Y-103960300D01*
X152556969Y-103919204D01*
X152737540Y-103838809D01*
X152897449Y-103722628D01*
X152902373Y-103717160D01*
X153029707Y-103575741D01*
X153029706Y-103575741D01*
X153029709Y-103575739D01*
X153128538Y-103404561D01*
X153189618Y-103216576D01*
X153210279Y-103020000D01*
X153189618Y-102823424D01*
X153155760Y-102719219D01*
X153128540Y-102635444D01*
X153128539Y-102635442D01*
X153128538Y-102635439D01*
X153038793Y-102479995D01*
X170980786Y-102479995D01*
X170980786Y-102480004D01*
X170999611Y-102719215D01*
X170999612Y-102719219D01*
X171024629Y-102823424D01*
X171055631Y-102952553D01*
X171109621Y-103082896D01*
X171147462Y-103174253D01*
X171272837Y-103378845D01*
X171272838Y-103378847D01*
X171272840Y-103378849D01*
X171292469Y-103401832D01*
X171428681Y-103561318D01*
X171478654Y-103603998D01*
X171611151Y-103717160D01*
X171611153Y-103717161D01*
X171611154Y-103717162D01*
X171815746Y-103842537D01*
X171815751Y-103842540D01*
X172037447Y-103934369D01*
X172270778Y-103990387D01*
X172270780Y-103990387D01*
X172270784Y-103990388D01*
X172509996Y-104009214D01*
X172510000Y-104009214D01*
X172510004Y-104009214D01*
X172749215Y-103990388D01*
X172749217Y-103990387D01*
X172749222Y-103990387D01*
X172982553Y-103934369D01*
X173204249Y-103842540D01*
X173408849Y-103717160D01*
X173591318Y-103561318D01*
X173747160Y-103378849D01*
X173872540Y-103174249D01*
X173964369Y-102952553D01*
X174020387Y-102719222D01*
X174024079Y-102672319D01*
X174039214Y-102480004D01*
X174039214Y-102479995D01*
X174020388Y-102240784D01*
X174020387Y-102240780D01*
X174019441Y-102236840D01*
X173964369Y-102007447D01*
X173872540Y-101785751D01*
X173868529Y-101779206D01*
X173747162Y-101581154D01*
X173747161Y-101581153D01*
X173747160Y-101581151D01*
X173682378Y-101505300D01*
X173591318Y-101398681D01*
X173408845Y-101242837D01*
X173204253Y-101117462D01*
X173204250Y-101117461D01*
X173204249Y-101117460D01*
X172982553Y-101025631D01*
X172982547Y-101025629D01*
X172982546Y-101025629D01*
X172749219Y-100969612D01*
X172749215Y-100969611D01*
X172510004Y-100950786D01*
X172509996Y-100950786D01*
X172270784Y-100969611D01*
X172270780Y-100969612D01*
X172037453Y-101025629D01*
X172037449Y-101025630D01*
X172037447Y-101025631D01*
X171908675Y-101078970D01*
X171815746Y-101117462D01*
X171611154Y-101242837D01*
X171428681Y-101398681D01*
X171272837Y-101581154D01*
X171147462Y-101785746D01*
X171147460Y-101785751D01*
X171056759Y-102004726D01*
X171055629Y-102007453D01*
X170999612Y-102240780D01*
X170999611Y-102240784D01*
X170980786Y-102479995D01*
X153038793Y-102479995D01*
X153029709Y-102464261D01*
X153029707Y-102464259D01*
X153029707Y-102464258D01*
X152897450Y-102317372D01*
X152897449Y-102317371D01*
X152737545Y-102201194D01*
X152737542Y-102201192D01*
X152737540Y-102201191D01*
X152611602Y-102145120D01*
X152556972Y-102120797D01*
X152556969Y-102120796D01*
X152556967Y-102120795D01*
X152556965Y-102120795D01*
X152363629Y-102079700D01*
X152165971Y-102079700D01*
X151972634Y-102120795D01*
X151972619Y-102120800D01*
X151792062Y-102201190D01*
X151792056Y-102201193D01*
X151632151Y-102317371D01*
X151632145Y-102317377D01*
X151499892Y-102464258D01*
X151499891Y-102464260D01*
X151423902Y-102595878D01*
X151385951Y-102624998D01*
X151338525Y-102618755D01*
X151325581Y-102608822D01*
X149672464Y-100955704D01*
X149672460Y-100955701D01*
X149672459Y-100955700D01*
X149602841Y-100915506D01*
X149602840Y-100915505D01*
X149602839Y-100915505D01*
X149525197Y-100894700D01*
X149525193Y-100894700D01*
X147096401Y-100894700D01*
X147052207Y-100876394D01*
X147036287Y-100849305D01*
X147034478Y-100842948D01*
X147023277Y-100803580D01*
X146933012Y-100622303D01*
X146810974Y-100460699D01*
X146714388Y-100372649D01*
X146661324Y-100324274D01*
X146661321Y-100324272D01*
X146661320Y-100324271D01*
X146489145Y-100217665D01*
X146489143Y-100217664D01*
X146427780Y-100193892D01*
X146300313Y-100144511D01*
X146300310Y-100144510D01*
X146300309Y-100144510D01*
X146101258Y-100107300D01*
X146101254Y-100107300D01*
X145898746Y-100107300D01*
X145898741Y-100107300D01*
X145699690Y-100144510D01*
X145699687Y-100144510D01*
X145699687Y-100144511D01*
X145660157Y-100159825D01*
X145510856Y-100217664D01*
X145338675Y-100324274D01*
X145189023Y-100460702D01*
X145066988Y-100622303D01*
X144976723Y-100803579D01*
X144965522Y-100842948D01*
X144935821Y-100880445D01*
X144905408Y-100888344D01*
X144866158Y-100888344D01*
X144788517Y-100909149D01*
X144788515Y-100909150D01*
X144759091Y-100926138D01*
X144759090Y-100926137D01*
X144718897Y-100949343D01*
X144718891Y-100949348D01*
X139366614Y-106301626D01*
X139339269Y-106348991D01*
X139339268Y-106348993D01*
X139326421Y-106371242D01*
X139326421Y-106371243D01*
X139305615Y-106448887D01*
X139305615Y-110384600D01*
X139287309Y-110428794D01*
X139243115Y-110447100D01*
X139025091Y-110447100D01*
X139025087Y-110447101D01*
X138951324Y-110461772D01*
X138951320Y-110461774D01*
X138867669Y-110517669D01*
X138811773Y-110601321D01*
X138811772Y-110601323D01*
X138797100Y-110675088D01*
X137252899Y-110675088D01*
X137238227Y-110601323D01*
X137182331Y-110517669D01*
X137140504Y-110489721D01*
X137098678Y-110461773D01*
X137098676Y-110461772D01*
X137024911Y-110447100D01*
X136803715Y-110447100D01*
X136759521Y-110428794D01*
X136741215Y-110384600D01*
X136741215Y-108016432D01*
X136759521Y-107972238D01*
X145158154Y-99573606D01*
X145202348Y-99555300D01*
X151745452Y-99555300D01*
X151789646Y-99573606D01*
X151807952Y-99617800D01*
X151789646Y-99661994D01*
X151782189Y-99668363D01*
X151632151Y-99777371D01*
X151632145Y-99777377D01*
X151499892Y-99924258D01*
X151499891Y-99924260D01*
X151401059Y-100095444D01*
X151339982Y-100283421D01*
X151319321Y-100480000D01*
X151339982Y-100676578D01*
X151401059Y-100864555D01*
X151401061Y-100864559D01*
X151401062Y-100864561D01*
X151461824Y-100969804D01*
X151499891Y-101035739D01*
X151499892Y-101035741D01*
X151632149Y-101182627D01*
X151632150Y-101182628D01*
X151792054Y-101298805D01*
X151792060Y-101298809D01*
X151972631Y-101379204D01*
X152165971Y-101420300D01*
X152363629Y-101420300D01*
X152556969Y-101379204D01*
X152737540Y-101298809D01*
X152897449Y-101182628D01*
X153029709Y-101035739D01*
X153128538Y-100864561D01*
X153189618Y-100676576D01*
X153210279Y-100480000D01*
X153189618Y-100283424D01*
X153165274Y-100208500D01*
X153128540Y-100095444D01*
X153128539Y-100095442D01*
X153128538Y-100095439D01*
X153029709Y-99924261D01*
X153029707Y-99924259D01*
X153029707Y-99924258D01*
X152897450Y-99777372D01*
X152897449Y-99777371D01*
X152747412Y-99668363D01*
X152722418Y-99627577D01*
X152733586Y-99581063D01*
X152774372Y-99556069D01*
X152784149Y-99555300D01*
X157469750Y-99555300D01*
X157469752Y-99555300D01*
X157469887Y-99555264D01*
X157474958Y-99553905D01*
X157547400Y-99534494D01*
X157567066Y-99523139D01*
X157567068Y-99523139D01*
X157599587Y-99504363D01*
X157617018Y-99494300D01*
X158841596Y-98269720D01*
X158885789Y-98251415D01*
X158915251Y-98258795D01*
X158962388Y-98283990D01*
X158963576Y-98284625D01*
X159143199Y-98339113D01*
X159330000Y-98357511D01*
X159516801Y-98339113D01*
X159696424Y-98284625D01*
X159861965Y-98196141D01*
X160007063Y-98077063D01*
X160126141Y-97931965D01*
X160214625Y-97766424D01*
X160269113Y-97586801D01*
X160287511Y-97400000D01*
X160287511Y-97399999D01*
X160912489Y-97399999D01*
X160912489Y-97400000D01*
X160930886Y-97586799D01*
X160936023Y-97603732D01*
X160981920Y-97755036D01*
X160985376Y-97766427D01*
X161073855Y-97931959D01*
X161073863Y-97931970D01*
X161192933Y-98077059D01*
X161192937Y-98077063D01*
X161338035Y-98196141D01*
X161338038Y-98196142D01*
X161338040Y-98196144D01*
X161489460Y-98277080D01*
X161503576Y-98284625D01*
X161683199Y-98339113D01*
X161870000Y-98357511D01*
X162056801Y-98339113D01*
X162236424Y-98284625D01*
X162401965Y-98196141D01*
X162547063Y-98077063D01*
X162666141Y-97931965D01*
X162754625Y-97766424D01*
X162809113Y-97586801D01*
X162827511Y-97400000D01*
X162827511Y-97399999D01*
X163452489Y-97399999D01*
X163452489Y-97400000D01*
X163470886Y-97586799D01*
X163476023Y-97603732D01*
X163521920Y-97755036D01*
X163525376Y-97766427D01*
X163613855Y-97931959D01*
X163613863Y-97931970D01*
X163732933Y-98077059D01*
X163732937Y-98077063D01*
X163878035Y-98196141D01*
X163878038Y-98196142D01*
X163878040Y-98196144D01*
X164029460Y-98277080D01*
X164043576Y-98284625D01*
X164223199Y-98339113D01*
X164410000Y-98357511D01*
X164596801Y-98339113D01*
X164776424Y-98284625D01*
X164941965Y-98196141D01*
X165087063Y-98077063D01*
X165206141Y-97931965D01*
X165294625Y-97766424D01*
X165349113Y-97586801D01*
X165367511Y-97400000D01*
X165367511Y-97399999D01*
X165992489Y-97399999D01*
X165992489Y-97400000D01*
X166010886Y-97586799D01*
X166016023Y-97603732D01*
X166061920Y-97755036D01*
X166065376Y-97766427D01*
X166153855Y-97931959D01*
X166153863Y-97931970D01*
X166272933Y-98077059D01*
X166272937Y-98077063D01*
X166418035Y-98196141D01*
X166418038Y-98196142D01*
X166418040Y-98196144D01*
X166569460Y-98277080D01*
X166583576Y-98284625D01*
X166763199Y-98339113D01*
X166950000Y-98357511D01*
X167136801Y-98339113D01*
X167316424Y-98284625D01*
X167481965Y-98196141D01*
X167627063Y-98077063D01*
X167746141Y-97931965D01*
X167834625Y-97766424D01*
X167889113Y-97586801D01*
X167907511Y-97400000D01*
X167907511Y-97399995D01*
X168381270Y-97399995D01*
X168381270Y-97400004D01*
X168400146Y-97603721D01*
X168400148Y-97603732D01*
X168456140Y-97800519D01*
X168547341Y-97983674D01*
X168609307Y-98065730D01*
X169076624Y-97598412D01*
X169124149Y-97680727D01*
X169209273Y-97765851D01*
X169291585Y-97813374D01*
X168820968Y-98283991D01*
X168821836Y-98284782D01*
X168995796Y-98392493D01*
X169186587Y-98466406D01*
X169387694Y-98503999D01*
X169387702Y-98504000D01*
X169592298Y-98504000D01*
X169592305Y-98503999D01*
X169793412Y-98466406D01*
X169984203Y-98392493D01*
X170158160Y-98284784D01*
X170158161Y-98284783D01*
X170159030Y-98283990D01*
X169688414Y-97813374D01*
X169770727Y-97765851D01*
X169855851Y-97680727D01*
X169903374Y-97598413D01*
X170370691Y-98065730D01*
X170432660Y-97983670D01*
X170523859Y-97800519D01*
X170579851Y-97603732D01*
X170579853Y-97603721D01*
X170598730Y-97400004D01*
X170598730Y-97399999D01*
X171072489Y-97399999D01*
X171072489Y-97400000D01*
X171090886Y-97586799D01*
X171096023Y-97603732D01*
X171141920Y-97755036D01*
X171145376Y-97766427D01*
X171233855Y-97931959D01*
X171233863Y-97931970D01*
X171352933Y-98077059D01*
X171352937Y-98077063D01*
X171498035Y-98196141D01*
X171498038Y-98196142D01*
X171498040Y-98196144D01*
X171649460Y-98277080D01*
X171663576Y-98284625D01*
X171843199Y-98339113D01*
X172030000Y-98357511D01*
X172216801Y-98339113D01*
X172396424Y-98284625D01*
X172561965Y-98196141D01*
X172707063Y-98077063D01*
X172826141Y-97931965D01*
X172914625Y-97766424D01*
X172969113Y-97586801D01*
X172987511Y-97400000D01*
X172987511Y-97399999D01*
X173612489Y-97399999D01*
X173612489Y-97400000D01*
X173630886Y-97586799D01*
X173636023Y-97603732D01*
X173681920Y-97755036D01*
X173685376Y-97766427D01*
X173773855Y-97931959D01*
X173773863Y-97931970D01*
X173892933Y-98077059D01*
X173892937Y-98077063D01*
X174038035Y-98196141D01*
X174038038Y-98196142D01*
X174038040Y-98196144D01*
X174189460Y-98277080D01*
X174203576Y-98284625D01*
X174383199Y-98339113D01*
X174570000Y-98357511D01*
X174756801Y-98339113D01*
X174936424Y-98284625D01*
X175101965Y-98196141D01*
X175247063Y-98077063D01*
X175366141Y-97931965D01*
X175454625Y-97766424D01*
X175509113Y-97586801D01*
X175527511Y-97400000D01*
X175527511Y-97399999D01*
X176152489Y-97399999D01*
X176152489Y-97400000D01*
X176170886Y-97586799D01*
X176176023Y-97603732D01*
X176221920Y-97755036D01*
X176225376Y-97766427D01*
X176313855Y-97931959D01*
X176313863Y-97931970D01*
X176432933Y-98077059D01*
X176432937Y-98077063D01*
X176578035Y-98196141D01*
X176578038Y-98196142D01*
X176578040Y-98196144D01*
X176729460Y-98277080D01*
X176743576Y-98284625D01*
X176923199Y-98339113D01*
X177110000Y-98357511D01*
X177296801Y-98339113D01*
X177476424Y-98284625D01*
X177641965Y-98196141D01*
X177787063Y-98077063D01*
X177906141Y-97931965D01*
X177994625Y-97766424D01*
X178049113Y-97586801D01*
X178067511Y-97400000D01*
X178067511Y-97399995D01*
X178541270Y-97399995D01*
X178541270Y-97400004D01*
X178560146Y-97603721D01*
X178560148Y-97603732D01*
X178616140Y-97800519D01*
X178707341Y-97983674D01*
X178769307Y-98065730D01*
X179293487Y-97541549D01*
X179294964Y-97547061D01*
X179345124Y-97633940D01*
X179416060Y-97704876D01*
X179502939Y-97755036D01*
X179508447Y-97756512D01*
X178980968Y-98283991D01*
X178981836Y-98284782D01*
X179155796Y-98392493D01*
X179346587Y-98466406D01*
X179547694Y-98503999D01*
X179547702Y-98504000D01*
X179752298Y-98504000D01*
X179752305Y-98503999D01*
X179953412Y-98466406D01*
X180144203Y-98392493D01*
X180318160Y-98284784D01*
X180318161Y-98284783D01*
X180319030Y-98283990D01*
X179791552Y-97756512D01*
X179797061Y-97755036D01*
X179883940Y-97704876D01*
X179954876Y-97633940D01*
X180005036Y-97547061D01*
X180006512Y-97541551D01*
X180530691Y-98065730D01*
X180592660Y-97983670D01*
X180683859Y-97800519D01*
X180739851Y-97603732D01*
X180739853Y-97603721D01*
X180758730Y-97400004D01*
X180758730Y-97399995D01*
X180739853Y-97196278D01*
X180739851Y-97196267D01*
X180683859Y-96999480D01*
X180592658Y-96816325D01*
X180530691Y-96734268D01*
X180006511Y-97258447D01*
X180005036Y-97252939D01*
X179954876Y-97166060D01*
X179883940Y-97095124D01*
X179797061Y-97044964D01*
X179791549Y-97043487D01*
X180319029Y-96516008D01*
X180318159Y-96515214D01*
X180144203Y-96407506D01*
X179953412Y-96333593D01*
X179752305Y-96296000D01*
X179547694Y-96296000D01*
X179346587Y-96333593D01*
X179155796Y-96407506D01*
X178981840Y-96515215D01*
X178980969Y-96516008D01*
X179508448Y-97043487D01*
X179502939Y-97044964D01*
X179416060Y-97095124D01*
X179345124Y-97166060D01*
X179294964Y-97252939D01*
X179293487Y-97258448D01*
X178769306Y-96734267D01*
X178707339Y-96816329D01*
X178616140Y-96999480D01*
X178560148Y-97196267D01*
X178560146Y-97196278D01*
X178541270Y-97399995D01*
X178067511Y-97399995D01*
X178049113Y-97213199D01*
X177994625Y-97033576D01*
X177976400Y-96999480D01*
X177906144Y-96868040D01*
X177906142Y-96868038D01*
X177906141Y-96868035D01*
X177787063Y-96722937D01*
X177731033Y-96676955D01*
X177641970Y-96603863D01*
X177641968Y-96603862D01*
X177641965Y-96603859D01*
X177641963Y-96603857D01*
X177641959Y-96603855D01*
X177476427Y-96515376D01*
X177475896Y-96515215D01*
X177442989Y-96505232D01*
X177296799Y-96460886D01*
X177110000Y-96442489D01*
X176923200Y-96460886D01*
X176743572Y-96515376D01*
X176578040Y-96603855D01*
X176578029Y-96603863D01*
X176432938Y-96722935D01*
X176432935Y-96722938D01*
X176313863Y-96868029D01*
X176313855Y-96868040D01*
X176225376Y-97033572D01*
X176170886Y-97213200D01*
X176152489Y-97399999D01*
X175527511Y-97399999D01*
X175509113Y-97213199D01*
X175454625Y-97033576D01*
X175436400Y-96999480D01*
X175366144Y-96868040D01*
X175366142Y-96868038D01*
X175366141Y-96868035D01*
X175247063Y-96722937D01*
X175191033Y-96676955D01*
X175101970Y-96603863D01*
X175101968Y-96603862D01*
X175101965Y-96603859D01*
X175101963Y-96603857D01*
X175101959Y-96603855D01*
X174936427Y-96515376D01*
X174935896Y-96515215D01*
X174902989Y-96505232D01*
X174756799Y-96460886D01*
X174570000Y-96442489D01*
X174383200Y-96460886D01*
X174203572Y-96515376D01*
X174038040Y-96603855D01*
X174038029Y-96603863D01*
X173892938Y-96722935D01*
X173892935Y-96722938D01*
X173773863Y-96868029D01*
X173773855Y-96868040D01*
X173685376Y-97033572D01*
X173630886Y-97213200D01*
X173612489Y-97399999D01*
X172987511Y-97399999D01*
X172969113Y-97213199D01*
X172914625Y-97033576D01*
X172896400Y-96999480D01*
X172826144Y-96868040D01*
X172826142Y-96868038D01*
X172826141Y-96868035D01*
X172707063Y-96722937D01*
X172651033Y-96676955D01*
X172561970Y-96603863D01*
X172561968Y-96603862D01*
X172561965Y-96603859D01*
X172561963Y-96603857D01*
X172561959Y-96603855D01*
X172396427Y-96515376D01*
X172395896Y-96515215D01*
X172362989Y-96505232D01*
X172216799Y-96460886D01*
X172030000Y-96442489D01*
X171843200Y-96460886D01*
X171663572Y-96515376D01*
X171498040Y-96603855D01*
X171498029Y-96603863D01*
X171352938Y-96722935D01*
X171352935Y-96722938D01*
X171233863Y-96868029D01*
X171233855Y-96868040D01*
X171145376Y-97033572D01*
X171090886Y-97213200D01*
X171072489Y-97399999D01*
X170598730Y-97399999D01*
X170598730Y-97399995D01*
X170579853Y-97196278D01*
X170579851Y-97196267D01*
X170523859Y-96999480D01*
X170432658Y-96816325D01*
X170370691Y-96734268D01*
X169903373Y-97201585D01*
X169855851Y-97119273D01*
X169770727Y-97034149D01*
X169688412Y-96986624D01*
X170159029Y-96516008D01*
X170158159Y-96515214D01*
X169984203Y-96407506D01*
X169793412Y-96333593D01*
X169592305Y-96296000D01*
X169387694Y-96296000D01*
X169186587Y-96333593D01*
X168995796Y-96407506D01*
X168821840Y-96515215D01*
X168820969Y-96516008D01*
X169291586Y-96986625D01*
X169209273Y-97034149D01*
X169124149Y-97119273D01*
X169076625Y-97201586D01*
X168609306Y-96734267D01*
X168547339Y-96816329D01*
X168456140Y-96999480D01*
X168400148Y-97196267D01*
X168400146Y-97196278D01*
X168381270Y-97399995D01*
X167907511Y-97399995D01*
X167889113Y-97213199D01*
X167834625Y-97033576D01*
X167816400Y-96999480D01*
X167746144Y-96868040D01*
X167746142Y-96868038D01*
X167746141Y-96868035D01*
X167627063Y-96722937D01*
X167571033Y-96676955D01*
X167481970Y-96603863D01*
X167481968Y-96603862D01*
X167481965Y-96603859D01*
X167481963Y-96603857D01*
X167481959Y-96603855D01*
X167316427Y-96515376D01*
X167315896Y-96515215D01*
X167282989Y-96505232D01*
X167136799Y-96460886D01*
X166950000Y-96442489D01*
X166763200Y-96460886D01*
X166583572Y-96515376D01*
X166418040Y-96603855D01*
X166418029Y-96603863D01*
X166272938Y-96722935D01*
X166272935Y-96722938D01*
X166153863Y-96868029D01*
X166153855Y-96868040D01*
X166065376Y-97033572D01*
X166010886Y-97213200D01*
X165992489Y-97399999D01*
X165367511Y-97399999D01*
X165349113Y-97213199D01*
X165294625Y-97033576D01*
X165276400Y-96999480D01*
X165206144Y-96868040D01*
X165206142Y-96868038D01*
X165206141Y-96868035D01*
X165087063Y-96722937D01*
X165031033Y-96676955D01*
X164941970Y-96603863D01*
X164941968Y-96603862D01*
X164941965Y-96603859D01*
X164941963Y-96603857D01*
X164941959Y-96603855D01*
X164776427Y-96515376D01*
X164775896Y-96515215D01*
X164742989Y-96505232D01*
X164596799Y-96460886D01*
X164410000Y-96442489D01*
X164223200Y-96460886D01*
X164043572Y-96515376D01*
X163878040Y-96603855D01*
X163878029Y-96603863D01*
X163732938Y-96722935D01*
X163732935Y-96722938D01*
X163613863Y-96868029D01*
X163613855Y-96868040D01*
X163525376Y-97033572D01*
X163470886Y-97213200D01*
X163452489Y-97399999D01*
X162827511Y-97399999D01*
X162809113Y-97213199D01*
X162754625Y-97033576D01*
X162736400Y-96999480D01*
X162666144Y-96868040D01*
X162666142Y-96868038D01*
X162666141Y-96868035D01*
X162547063Y-96722937D01*
X162491033Y-96676955D01*
X162401970Y-96603863D01*
X162401968Y-96603862D01*
X162401965Y-96603859D01*
X162401963Y-96603857D01*
X162401959Y-96603855D01*
X162236427Y-96515376D01*
X162235896Y-96515215D01*
X162202989Y-96505232D01*
X162056799Y-96460886D01*
X161870000Y-96442489D01*
X161683200Y-96460886D01*
X161503572Y-96515376D01*
X161338040Y-96603855D01*
X161338029Y-96603863D01*
X161192938Y-96722935D01*
X161192935Y-96722938D01*
X161073863Y-96868029D01*
X161073855Y-96868040D01*
X160985376Y-97033572D01*
X160930886Y-97213200D01*
X160912489Y-97399999D01*
X160287511Y-97399999D01*
X160269113Y-97213199D01*
X160214625Y-97033576D01*
X160196400Y-96999480D01*
X160126144Y-96868040D01*
X160126142Y-96868038D01*
X160126141Y-96868035D01*
X160007063Y-96722937D01*
X159951033Y-96676955D01*
X159861970Y-96603863D01*
X159861968Y-96603862D01*
X159861965Y-96603859D01*
X159861963Y-96603857D01*
X159861959Y-96603855D01*
X159696427Y-96515376D01*
X159695896Y-96515215D01*
X159662989Y-96505232D01*
X159516799Y-96460886D01*
X159330000Y-96442489D01*
X159143200Y-96460886D01*
X158963572Y-96515376D01*
X158798040Y-96603855D01*
X158798029Y-96603863D01*
X158652938Y-96722935D01*
X158652935Y-96722938D01*
X158533863Y-96868029D01*
X158533855Y-96868040D01*
X158445376Y-97033572D01*
X158390886Y-97213200D01*
X158372489Y-97399999D01*
X158372489Y-97400000D01*
X158390886Y-97586799D01*
X158396023Y-97603732D01*
X158442879Y-97758198D01*
X158438191Y-97805801D01*
X158427265Y-97820533D01*
X157321406Y-98926394D01*
X157277212Y-98944700D01*
X156412506Y-98944700D01*
X156368312Y-98926394D01*
X156350006Y-98882200D01*
X156368312Y-98838006D01*
X156839419Y-98366898D01*
X156877485Y-98348894D01*
X156976801Y-98339113D01*
X157156424Y-98284625D01*
X157321965Y-98196141D01*
X157467063Y-98077063D01*
X157586141Y-97931965D01*
X157674625Y-97766424D01*
X157729113Y-97586801D01*
X157747511Y-97400000D01*
X157729113Y-97213199D01*
X157674625Y-97033576D01*
X157656400Y-96999480D01*
X157586144Y-96868040D01*
X157586142Y-96868038D01*
X157586141Y-96868035D01*
X157467063Y-96722937D01*
X157411033Y-96676955D01*
X157321970Y-96603863D01*
X157321968Y-96603862D01*
X157321965Y-96603859D01*
X157321963Y-96603857D01*
X157321959Y-96603855D01*
X157156427Y-96515376D01*
X157155896Y-96515215D01*
X157122989Y-96505232D01*
X156976799Y-96460886D01*
X156790000Y-96442489D01*
X156603200Y-96460886D01*
X156423572Y-96515376D01*
X156258040Y-96603855D01*
X156258029Y-96603863D01*
X156112938Y-96722935D01*
X156112935Y-96722938D01*
X155993863Y-96868029D01*
X155993855Y-96868040D01*
X155905376Y-97033572D01*
X155850886Y-97213200D01*
X155832489Y-97399999D01*
X155832489Y-97400000D01*
X155850886Y-97586799D01*
X155856023Y-97603732D01*
X155901920Y-97755036D01*
X155905376Y-97766427D01*
X155993855Y-97931959D01*
X155993857Y-97931963D01*
X155993859Y-97931965D01*
X156112937Y-98077063D01*
X156143556Y-98102191D01*
X156166105Y-98144376D01*
X156152220Y-98190152D01*
X156148101Y-98194697D01*
X155966405Y-98376394D01*
X155922213Y-98394700D01*
X154660002Y-98394700D01*
X154615808Y-98376394D01*
X154597502Y-98332200D01*
X154615808Y-98288006D01*
X154630540Y-98277080D01*
X154781959Y-98196144D01*
X154781957Y-98196144D01*
X154781965Y-98196141D01*
X154927063Y-98077063D01*
X155046141Y-97931965D01*
X155134625Y-97766424D01*
X155189113Y-97586801D01*
X155207511Y-97400000D01*
X155189113Y-97213199D01*
X155134625Y-97033576D01*
X155116400Y-96999480D01*
X155046144Y-96868040D01*
X155046142Y-96868038D01*
X155046141Y-96868035D01*
X154927063Y-96722937D01*
X154871033Y-96676955D01*
X154781970Y-96603863D01*
X154781968Y-96603862D01*
X154781965Y-96603859D01*
X154781963Y-96603857D01*
X154781959Y-96603855D01*
X154616427Y-96515376D01*
X154615896Y-96515215D01*
X154582989Y-96505232D01*
X154436799Y-96460886D01*
X154250000Y-96442489D01*
X154063200Y-96460886D01*
X153883572Y-96515376D01*
X153718040Y-96603855D01*
X153718029Y-96603863D01*
X153572938Y-96722935D01*
X153572935Y-96722938D01*
X153453863Y-96868029D01*
X153453855Y-96868040D01*
X153365376Y-97033572D01*
X153310886Y-97213200D01*
X153292489Y-97399999D01*
X153292489Y-97400000D01*
X153310886Y-97586799D01*
X153316023Y-97603732D01*
X153361920Y-97755036D01*
X153365376Y-97766427D01*
X153453855Y-97931959D01*
X153453863Y-97931970D01*
X153572933Y-98077059D01*
X153572937Y-98077063D01*
X153718035Y-98196141D01*
X153718038Y-98196142D01*
X153718040Y-98196144D01*
X153869460Y-98277080D01*
X153899807Y-98314057D01*
X153895118Y-98361662D01*
X153858141Y-98392009D01*
X153839998Y-98394700D01*
X152120002Y-98394700D01*
X152075808Y-98376394D01*
X152057502Y-98332200D01*
X152075808Y-98288006D01*
X152090540Y-98277080D01*
X152241959Y-98196144D01*
X152241957Y-98196144D01*
X152241965Y-98196141D01*
X152387063Y-98077063D01*
X152506141Y-97931965D01*
X152594625Y-97766424D01*
X152649113Y-97586801D01*
X152667511Y-97400000D01*
X152649113Y-97213199D01*
X152594625Y-97033576D01*
X152576400Y-96999480D01*
X152506144Y-96868040D01*
X152506142Y-96868038D01*
X152506141Y-96868035D01*
X152387063Y-96722937D01*
X152331033Y-96676955D01*
X152241970Y-96603863D01*
X152241968Y-96603862D01*
X152241965Y-96603859D01*
X152241963Y-96603857D01*
X152241959Y-96603855D01*
X152076427Y-96515376D01*
X152075896Y-96515215D01*
X152042989Y-96505232D01*
X151896799Y-96460886D01*
X151710000Y-96442489D01*
X151523200Y-96460886D01*
X151343572Y-96515376D01*
X151178040Y-96603855D01*
X151178029Y-96603863D01*
X151032938Y-96722935D01*
X151032935Y-96722938D01*
X150913863Y-96868029D01*
X150913855Y-96868040D01*
X150825376Y-97033572D01*
X150770886Y-97213200D01*
X150752489Y-97399999D01*
X150752489Y-97400000D01*
X150770886Y-97586799D01*
X150776023Y-97603732D01*
X150821920Y-97755036D01*
X150825376Y-97766427D01*
X150913855Y-97931959D01*
X150913863Y-97931970D01*
X151032933Y-98077059D01*
X151032937Y-98077063D01*
X151178035Y-98196141D01*
X151178038Y-98196142D01*
X151178040Y-98196144D01*
X151329460Y-98277080D01*
X151359807Y-98314057D01*
X151355118Y-98361662D01*
X151318141Y-98392009D01*
X151299998Y-98394700D01*
X149580002Y-98394700D01*
X149535808Y-98376394D01*
X149517502Y-98332200D01*
X149535808Y-98288006D01*
X149550540Y-98277080D01*
X149701959Y-98196144D01*
X149701957Y-98196144D01*
X149701965Y-98196141D01*
X149847063Y-98077063D01*
X149966141Y-97931965D01*
X150054625Y-97766424D01*
X150109113Y-97586801D01*
X150127511Y-97400000D01*
X150109113Y-97213199D01*
X150054625Y-97033576D01*
X150036400Y-96999480D01*
X149966144Y-96868040D01*
X149966142Y-96868038D01*
X149966141Y-96868035D01*
X149847063Y-96722937D01*
X149791033Y-96676955D01*
X149701970Y-96603863D01*
X149701968Y-96603862D01*
X149701965Y-96603859D01*
X149701963Y-96603857D01*
X149701959Y-96603855D01*
X149536427Y-96515376D01*
X149535896Y-96515215D01*
X149502989Y-96505232D01*
X149356799Y-96460886D01*
X149170000Y-96442489D01*
X148983200Y-96460886D01*
X148803572Y-96515376D01*
X148638040Y-96603855D01*
X148638029Y-96603863D01*
X148492938Y-96722935D01*
X148492935Y-96722938D01*
X148373863Y-96868029D01*
X148373855Y-96868040D01*
X148285372Y-97033580D01*
X148285371Y-97033583D01*
X148285249Y-97033988D01*
X148285158Y-97034098D01*
X148284195Y-97036423D01*
X148283490Y-97036130D01*
X148254902Y-97070965D01*
X148225441Y-97078344D01*
X144076158Y-97078344D01*
X144028793Y-97091036D01*
X144019320Y-97093575D01*
X144003786Y-97097737D01*
X143998509Y-97099151D01*
X143928897Y-97139343D01*
X143928891Y-97139348D01*
X130391847Y-110676394D01*
X130347653Y-110694700D01*
X130308092Y-110694700D01*
X130263898Y-110676394D01*
X130246793Y-110644392D01*
X130238227Y-110601324D01*
X130238225Y-110601321D01*
X130182331Y-110517669D01*
X130140504Y-110489721D01*
X130098678Y-110461773D01*
X130098676Y-110461772D01*
X130024911Y-110447100D01*
X128875091Y-110447100D01*
X128875087Y-110447101D01*
X128801324Y-110461772D01*
X128801320Y-110461774D01*
X128717669Y-110517669D01*
X128661773Y-110601321D01*
X128661772Y-110601323D01*
X128647100Y-110675088D01*
X127859566Y-110675088D01*
X130138355Y-108396299D01*
X130210682Y-108288054D01*
X130260502Y-108167777D01*
X130285900Y-108040093D01*
X130285900Y-107909906D01*
X130285900Y-107709900D01*
X130304206Y-107665706D01*
X130307302Y-107663165D01*
X130310230Y-107660236D01*
X130310234Y-107660234D01*
X130344028Y-107609658D01*
X130352900Y-107565057D01*
X130352899Y-106234944D01*
X130344028Y-106190342D01*
X130310234Y-106139766D01*
X130310232Y-106139764D01*
X130310231Y-106139763D01*
X130305882Y-106135414D01*
X130307889Y-106133406D01*
X130287100Y-106102290D01*
X130285900Y-106090100D01*
X130285900Y-103809900D01*
X130304206Y-103765706D01*
X130307302Y-103763165D01*
X130310230Y-103760236D01*
X130310234Y-103760234D01*
X130344028Y-103709658D01*
X130352900Y-103665057D01*
X130352899Y-102334944D01*
X130352899Y-102334943D01*
X131047100Y-102334943D01*
X131047100Y-103665054D01*
X131047101Y-103665058D01*
X131055971Y-103709656D01*
X131055972Y-103709658D01*
X131089766Y-103760234D01*
X131140342Y-103794028D01*
X131184943Y-103802900D01*
X131407200Y-103802899D01*
X131451394Y-103821205D01*
X131469700Y-103865399D01*
X131469700Y-106034600D01*
X131451394Y-106078794D01*
X131407200Y-106097100D01*
X131184945Y-106097100D01*
X131184941Y-106097101D01*
X131140343Y-106105971D01*
X131140342Y-106105972D01*
X131089766Y-106139766D01*
X131055971Y-106190342D01*
X131047100Y-106234943D01*
X131047100Y-107565054D01*
X131047101Y-107565058D01*
X131055971Y-107609656D01*
X131055972Y-107609658D01*
X131089766Y-107660234D01*
X131140342Y-107694028D01*
X131184943Y-107702900D01*
X132365056Y-107702899D01*
X132409658Y-107694028D01*
X132460234Y-107660234D01*
X132494028Y-107609658D01*
X132502900Y-107565057D01*
X132502899Y-106234944D01*
X132494028Y-106190342D01*
X132460234Y-106139766D01*
X132409658Y-106105972D01*
X132409657Y-106105971D01*
X132373928Y-106098864D01*
X132365057Y-106097100D01*
X132365056Y-106097100D01*
X132142800Y-106097100D01*
X132098606Y-106078794D01*
X132080300Y-106034600D01*
X132080300Y-105267800D01*
X132098606Y-105223606D01*
X132142800Y-105205300D01*
X132741908Y-105205300D01*
X132786102Y-105223606D01*
X132803207Y-105255608D01*
X132811772Y-105298675D01*
X132811773Y-105298677D01*
X132867669Y-105382331D01*
X132930265Y-105424157D01*
X132951321Y-105438226D01*
X132951323Y-105438227D01*
X133025089Y-105452900D01*
X134174910Y-105452899D01*
X134248677Y-105438227D01*
X134332331Y-105382331D01*
X134388227Y-105298677D01*
X134396794Y-105255606D01*
X134423370Y-105215833D01*
X134458093Y-105205300D01*
X134940191Y-105205300D01*
X134940193Y-105205300D01*
X135017841Y-105184494D01*
X135087459Y-105144300D01*
X140004953Y-100226806D01*
X140049147Y-100208500D01*
X140173112Y-100208500D01*
X140173112Y-100208499D01*
X140313411Y-100167304D01*
X140362686Y-100135637D01*
X140436419Y-100088252D01*
X140532173Y-99977746D01*
X140532176Y-99977743D01*
X140592919Y-99844734D01*
X140613729Y-99700000D01*
X140592919Y-99555266D01*
X140532176Y-99422257D01*
X140532173Y-99422253D01*
X140436419Y-99311747D01*
X140313415Y-99232698D01*
X140313406Y-99232694D01*
X140173113Y-99191500D01*
X140173111Y-99191500D01*
X140026889Y-99191500D01*
X140026887Y-99191500D01*
X139886593Y-99232694D01*
X139886584Y-99232698D01*
X139763580Y-99311747D01*
X139667826Y-99422253D01*
X139667823Y-99422258D01*
X139607081Y-99555264D01*
X139607080Y-99555267D01*
X139586271Y-99700000D01*
X139592122Y-99740698D01*
X139580291Y-99787047D01*
X139574452Y-99793786D01*
X134791847Y-104576394D01*
X134747653Y-104594700D01*
X134458092Y-104594700D01*
X134413898Y-104576394D01*
X134396793Y-104544392D01*
X134388227Y-104501324D01*
X134388225Y-104501321D01*
X134332331Y-104417669D01*
X134290504Y-104389721D01*
X134248678Y-104361773D01*
X134248676Y-104361772D01*
X134174911Y-104347100D01*
X133025091Y-104347100D01*
X133025087Y-104347101D01*
X132951324Y-104361772D01*
X132951320Y-104361774D01*
X132867669Y-104417669D01*
X132811773Y-104501321D01*
X132811772Y-104501323D01*
X132803206Y-104544393D01*
X132776630Y-104584167D01*
X132741907Y-104594700D01*
X132142800Y-104594700D01*
X132098606Y-104576394D01*
X132080300Y-104532200D01*
X132080300Y-103865399D01*
X132098606Y-103821205D01*
X132142800Y-103802899D01*
X132365055Y-103802899D01*
X132365056Y-103802899D01*
X132409658Y-103794028D01*
X132460234Y-103760234D01*
X132494028Y-103709658D01*
X132502900Y-103665057D01*
X132502900Y-103231794D01*
X132646001Y-103231794D01*
X132660984Y-103326400D01*
X132719082Y-103440424D01*
X132809575Y-103530917D01*
X132923599Y-103589015D01*
X132923604Y-103589017D01*
X133018191Y-103603998D01*
X133018207Y-103603999D01*
X133448000Y-103603999D01*
X133752000Y-103603999D01*
X134181791Y-103603999D01*
X134181794Y-103603998D01*
X134276400Y-103589015D01*
X134390424Y-103530917D01*
X134480917Y-103440424D01*
X134539015Y-103326400D01*
X134539017Y-103326395D01*
X134553998Y-103231808D01*
X134554000Y-103231792D01*
X134554000Y-103052000D01*
X133752000Y-103052000D01*
X133752000Y-103603999D01*
X133448000Y-103603999D01*
X133448000Y-103052000D01*
X132646001Y-103052000D01*
X132646001Y-103231794D01*
X132502900Y-103231794D01*
X132502899Y-102568207D01*
X132646000Y-102568207D01*
X132646000Y-102748000D01*
X133448000Y-102748000D01*
X133752000Y-102748000D01*
X134553999Y-102748000D01*
X134553999Y-102568209D01*
X134553998Y-102568205D01*
X134539015Y-102473599D01*
X134480917Y-102359575D01*
X134390424Y-102269082D01*
X134276400Y-102210984D01*
X134276395Y-102210982D01*
X134181808Y-102196001D01*
X134181793Y-102196000D01*
X133752000Y-102196000D01*
X133752000Y-102748000D01*
X133448000Y-102748000D01*
X133448000Y-102196000D01*
X133018209Y-102196000D01*
X133018205Y-102196001D01*
X132923599Y-102210984D01*
X132809575Y-102269082D01*
X132719082Y-102359575D01*
X132660984Y-102473599D01*
X132660982Y-102473604D01*
X132646001Y-102568191D01*
X132646000Y-102568207D01*
X132502899Y-102568207D01*
X132502899Y-102334944D01*
X132494028Y-102290342D01*
X132460234Y-102239766D01*
X132409658Y-102205972D01*
X132409657Y-102205971D01*
X132373928Y-102198864D01*
X132365057Y-102197100D01*
X132365056Y-102197100D01*
X131184945Y-102197100D01*
X131184941Y-102197101D01*
X131140343Y-102205971D01*
X131140342Y-102205972D01*
X131089766Y-102239766D01*
X131055971Y-102290342D01*
X131047100Y-102334943D01*
X130352899Y-102334943D01*
X130350591Y-102323341D01*
X130359922Y-102276428D01*
X130367691Y-102266961D01*
X130855447Y-101779206D01*
X130899641Y-101760900D01*
X135865093Y-101760900D01*
X135992777Y-101735502D01*
X136113054Y-101685682D01*
X136221299Y-101613355D01*
X138106067Y-99728584D01*
X138106072Y-99728581D01*
X138111212Y-99723440D01*
X138111214Y-99723440D01*
X138203270Y-99631384D01*
X138275597Y-99523139D01*
X138325417Y-99402862D01*
X138350815Y-99275178D01*
X138350815Y-94634907D01*
X138325417Y-94507223D01*
X138275597Y-94386946D01*
X138203270Y-94278701D01*
X138111214Y-94186645D01*
X138111213Y-94186644D01*
X138002970Y-94114318D01*
X137882690Y-94064497D01*
X137755008Y-94039100D01*
X137624822Y-94039100D01*
X137497139Y-94064497D01*
X137376859Y-94114318D01*
X137268616Y-94186644D01*
X137176559Y-94278701D01*
X137104233Y-94386944D01*
X137054412Y-94507224D01*
X137029015Y-94634906D01*
X137029015Y-98910443D01*
X137010709Y-98954637D01*
X135544552Y-100420794D01*
X135500358Y-100439100D01*
X130534906Y-100439100D01*
X130426322Y-100460699D01*
X130407223Y-100464498D01*
X130286944Y-100514318D01*
X130178701Y-100586644D01*
X130178699Y-100586646D01*
X130086643Y-100678703D01*
X129194910Y-101570435D01*
X129111644Y-101653701D01*
X129039318Y-101761944D01*
X128989497Y-101882224D01*
X128964100Y-102009906D01*
X128964100Y-102190100D01*
X128945794Y-102234294D01*
X128942691Y-102236840D01*
X128939768Y-102239763D01*
X128905971Y-102290342D01*
X128897100Y-102334943D01*
X128897100Y-103665054D01*
X128897101Y-103665058D01*
X128905971Y-103709656D01*
X128905973Y-103709660D01*
X128939763Y-103760231D01*
X128944117Y-103764584D01*
X128942108Y-103766592D01*
X128962898Y-103797702D01*
X128964100Y-103809900D01*
X128964100Y-106090100D01*
X128945794Y-106134294D01*
X128942691Y-106136840D01*
X128939768Y-106139763D01*
X128905971Y-106190342D01*
X128897100Y-106234943D01*
X128897100Y-107565054D01*
X128897101Y-107565058D01*
X128905971Y-107609656D01*
X128905973Y-107609660D01*
X128937443Y-107656758D01*
X128946775Y-107703674D01*
X128929670Y-107735675D01*
X126944552Y-109720794D01*
X126900358Y-109739100D01*
X124134906Y-109739100D01*
X124007226Y-109764497D01*
X124007224Y-109764497D01*
X124007223Y-109764498D01*
X123971998Y-109779088D01*
X123886947Y-109814317D01*
X123886944Y-109814318D01*
X123778701Y-109886644D01*
X123778699Y-109886646D01*
X123710699Y-109954647D01*
X123686645Y-109978701D01*
X123686643Y-109978703D01*
X123280746Y-110384600D01*
X122869910Y-110795435D01*
X122786644Y-110878701D01*
X122714318Y-110986944D01*
X122664497Y-111107224D01*
X122639100Y-111234906D01*
X122034615Y-111234906D01*
X122034615Y-111061217D01*
X122035293Y-111059548D01*
X122034638Y-111035304D01*
X122034615Y-111033615D01*
X122034615Y-111020838D01*
X122034193Y-111018858D01*
X122033296Y-110985682D01*
X122032124Y-110942291D01*
X121997879Y-110758394D01*
X121935287Y-110582117D01*
X121845890Y-110417803D01*
X121731889Y-110269497D01*
X121731887Y-110269495D01*
X121596095Y-110140854D01*
X121596090Y-110140850D01*
X121441839Y-110035031D01*
X121441833Y-110035028D01*
X121272936Y-109954648D01*
X121272934Y-109954647D01*
X121154921Y-109919801D01*
X121093528Y-109901673D01*
X120908053Y-109877419D01*
X120815630Y-109879921D01*
X120813939Y-109879944D01*
X115483365Y-109879944D01*
X115478462Y-109879751D01*
X115269340Y-109863294D01*
X115259654Y-109861760D01*
X115058075Y-109813369D01*
X115048747Y-109810339D01*
X114857213Y-109731007D01*
X114848475Y-109726555D01*
X114671711Y-109618238D01*
X114663776Y-109612473D01*
X114506134Y-109477839D01*
X114499199Y-109470904D01*
X114364558Y-109313266D01*
X114358797Y-109305337D01*
X114250467Y-109128569D01*
X114246022Y-109119846D01*
X114166677Y-108928303D01*
X114163652Y-108918994D01*
X114115245Y-108717392D01*
X114113714Y-108707722D01*
X114097308Y-108499343D01*
X114097115Y-108494438D01*
X114097115Y-107428000D01*
X123081092Y-107428000D01*
X123847920Y-107428000D01*
X123835600Y-107489939D01*
X123835600Y-107670061D01*
X123847920Y-107732000D01*
X123081093Y-107732000D01*
X123088470Y-107830434D01*
X123088470Y-107830436D01*
X123144351Y-108075270D01*
X123144352Y-108075273D01*
X123236105Y-108309056D01*
X123361679Y-108526555D01*
X123518252Y-108722891D01*
X123702359Y-108893716D01*
X123909850Y-109035180D01*
X124136122Y-109144146D01*
X124136126Y-109144147D01*
X124376091Y-109218167D01*
X124376090Y-109218167D01*
X124598000Y-109251615D01*
X124598000Y-108482079D01*
X124659939Y-108494400D01*
X124840061Y-108494400D01*
X124902000Y-108482079D01*
X124902000Y-109251615D01*
X125123909Y-109218167D01*
X125363873Y-109144147D01*
X125363877Y-109144146D01*
X125590149Y-109035180D01*
X125797640Y-108893716D01*
X125981747Y-108722891D01*
X126138320Y-108526555D01*
X126263894Y-108309056D01*
X126355647Y-108075273D01*
X126355648Y-108075270D01*
X126411529Y-107830436D01*
X126411529Y-107830434D01*
X126418907Y-107732000D01*
X125652080Y-107732000D01*
X125664400Y-107670061D01*
X125664400Y-107489939D01*
X125652080Y-107428000D01*
X126418907Y-107428000D01*
X126411529Y-107329565D01*
X126411529Y-107329563D01*
X126355648Y-107084729D01*
X126355647Y-107084726D01*
X126263894Y-106850943D01*
X126138320Y-106633444D01*
X125981747Y-106437108D01*
X125797640Y-106266283D01*
X125590149Y-106124819D01*
X125363877Y-106015853D01*
X125363873Y-106015852D01*
X125123909Y-105941832D01*
X124902000Y-105908383D01*
X124902000Y-106677920D01*
X124840061Y-106665600D01*
X124659939Y-106665600D01*
X124598000Y-106677920D01*
X124598000Y-105908383D01*
X124376090Y-105941832D01*
X124136126Y-106015852D01*
X124136122Y-106015853D01*
X123909850Y-106124819D01*
X123702359Y-106266283D01*
X123518252Y-106437108D01*
X123361679Y-106633444D01*
X123236105Y-106850943D01*
X123144352Y-107084726D01*
X123144351Y-107084729D01*
X123088470Y-107329563D01*
X123088470Y-107329565D01*
X123081092Y-107428000D01*
X114097115Y-107428000D01*
X114097115Y-104888000D01*
X116333092Y-104888000D01*
X117099920Y-104888000D01*
X117087600Y-104949939D01*
X117087600Y-105130061D01*
X117099920Y-105192000D01*
X116333093Y-105192000D01*
X116340470Y-105290434D01*
X116340470Y-105290436D01*
X116396351Y-105535270D01*
X116396352Y-105535273D01*
X116488105Y-105769056D01*
X116613679Y-105986555D01*
X116770252Y-106182891D01*
X116954359Y-106353716D01*
X117161850Y-106495180D01*
X117388122Y-106604146D01*
X117388126Y-106604147D01*
X117628091Y-106678167D01*
X117628090Y-106678167D01*
X117850000Y-106711615D01*
X117850000Y-105942079D01*
X117911939Y-105954400D01*
X118092061Y-105954400D01*
X118154000Y-105942079D01*
X118154000Y-106711615D01*
X118375909Y-106678167D01*
X118615873Y-106604147D01*
X118615877Y-106604146D01*
X118842149Y-106495180D01*
X119049640Y-106353716D01*
X119233747Y-106182891D01*
X119390320Y-105986555D01*
X119515894Y-105769056D01*
X119607647Y-105535273D01*
X119607648Y-105535270D01*
X119663529Y-105290436D01*
X119663529Y-105290434D01*
X119670907Y-105192000D01*
X118904080Y-105192000D01*
X118916400Y-105130061D01*
X118916400Y-104949939D01*
X118904080Y-104888000D01*
X119670907Y-104888000D01*
X119663529Y-104789565D01*
X119663529Y-104789563D01*
X119607648Y-104544729D01*
X119607647Y-104544726D01*
X119515894Y-104310943D01*
X119390320Y-104093444D01*
X119233747Y-103897108D01*
X119049640Y-103726283D01*
X118842149Y-103584819D01*
X118615877Y-103475853D01*
X118615873Y-103475852D01*
X118375909Y-103401832D01*
X118154000Y-103368383D01*
X118154000Y-104137920D01*
X118092061Y-104125600D01*
X117911939Y-104125600D01*
X117850000Y-104137920D01*
X117850000Y-103368383D01*
X117628090Y-103401832D01*
X117388126Y-103475852D01*
X117388122Y-103475853D01*
X117161850Y-103584819D01*
X116954359Y-103726283D01*
X116770252Y-103897108D01*
X116613679Y-104093444D01*
X116488105Y-104310943D01*
X116396352Y-104544726D01*
X116396351Y-104544729D01*
X116340470Y-104789563D01*
X116340470Y-104789565D01*
X116333092Y-104888000D01*
X114097115Y-104888000D01*
X114097115Y-102348000D01*
X123081092Y-102348000D01*
X123847920Y-102348000D01*
X123835600Y-102409939D01*
X123835600Y-102590061D01*
X123847920Y-102652000D01*
X123081093Y-102652000D01*
X123088470Y-102750434D01*
X123088470Y-102750436D01*
X123144351Y-102995270D01*
X123144352Y-102995273D01*
X123236105Y-103229056D01*
X123361679Y-103446555D01*
X123518252Y-103642891D01*
X123702359Y-103813716D01*
X123909850Y-103955180D01*
X124136122Y-104064146D01*
X124136126Y-104064147D01*
X124376091Y-104138167D01*
X124376090Y-104138167D01*
X124598000Y-104171615D01*
X124598000Y-103402079D01*
X124659939Y-103414400D01*
X124840061Y-103414400D01*
X124902000Y-103402079D01*
X124902000Y-104171615D01*
X125123909Y-104138167D01*
X125363873Y-104064147D01*
X125363877Y-104064146D01*
X125590149Y-103955180D01*
X125797640Y-103813716D01*
X125981747Y-103642891D01*
X126138320Y-103446555D01*
X126263894Y-103229056D01*
X126355647Y-102995273D01*
X126355648Y-102995270D01*
X126411529Y-102750436D01*
X126411529Y-102750434D01*
X126418907Y-102652000D01*
X125652080Y-102652000D01*
X125664400Y-102590061D01*
X125664400Y-102409939D01*
X125652080Y-102348000D01*
X126418907Y-102348000D01*
X126411529Y-102249565D01*
X126411529Y-102249563D01*
X126355648Y-102004729D01*
X126355647Y-102004726D01*
X126263894Y-101770943D01*
X126138320Y-101553444D01*
X125981747Y-101357108D01*
X125797640Y-101186283D01*
X125590149Y-101044819D01*
X125363877Y-100935853D01*
X125363873Y-100935852D01*
X125123909Y-100861832D01*
X124902000Y-100828383D01*
X124902000Y-101597920D01*
X124840061Y-101585600D01*
X124659939Y-101585600D01*
X124598000Y-101597920D01*
X124598000Y-100828383D01*
X124376090Y-100861832D01*
X124136126Y-100935852D01*
X124136122Y-100935853D01*
X123909850Y-101044819D01*
X123702359Y-101186283D01*
X123518252Y-101357108D01*
X123361679Y-101553444D01*
X123236105Y-101770943D01*
X123144352Y-102004726D01*
X123144351Y-102004729D01*
X123088470Y-102249563D01*
X123088470Y-102249565D01*
X123081092Y-102348000D01*
X114097115Y-102348000D01*
X114097115Y-101513592D01*
X114097308Y-101508690D01*
X114104262Y-101420300D01*
X114113760Y-101299565D01*
X114115293Y-101289888D01*
X114163685Y-101088298D01*
X114166715Y-101078970D01*
X114184621Y-101035739D01*
X114246048Y-100887432D01*
X114250491Y-100878713D01*
X114358818Y-100701933D01*
X114364571Y-100694014D01*
X114499222Y-100536353D01*
X114506134Y-100529441D01*
X114663787Y-100394791D01*
X114671720Y-100389028D01*
X114848483Y-100280706D01*
X114857212Y-100276259D01*
X115048755Y-100196919D01*
X115058060Y-100193895D01*
X115259655Y-100145497D01*
X115269342Y-100143964D01*
X115478093Y-100127536D01*
X115482996Y-100127344D01*
X122026883Y-100127344D01*
X122034615Y-100119612D01*
X122034615Y-99087388D01*
X122237001Y-99087388D01*
X122239949Y-99112807D01*
X122239949Y-99112808D01*
X122285857Y-99216778D01*
X122366221Y-99297142D01*
X122470194Y-99343051D01*
X122495611Y-99345999D01*
X124548000Y-99345999D01*
X124852000Y-99345999D01*
X126904388Y-99345999D01*
X126929807Y-99343050D01*
X126929808Y-99343050D01*
X127033778Y-99297142D01*
X127114142Y-99216778D01*
X127160051Y-99112805D01*
X127163000Y-99087388D01*
X127163000Y-98432000D01*
X124852000Y-98432000D01*
X124852000Y-99345999D01*
X124548000Y-99345999D01*
X124548000Y-98432000D01*
X122237001Y-98432000D01*
X122237001Y-99087388D01*
X122034615Y-99087388D01*
X122034615Y-97472611D01*
X122237000Y-97472611D01*
X122237000Y-98128000D01*
X124548000Y-98128000D01*
X124548000Y-98065250D01*
X124483500Y-98065250D01*
X124439306Y-98046944D01*
X124421000Y-98002750D01*
X124421000Y-97362250D01*
X124852000Y-97362250D01*
X124852000Y-98128000D01*
X127162999Y-98128000D01*
X127162999Y-97472611D01*
X127160050Y-97447192D01*
X127160050Y-97447191D01*
X127114142Y-97343221D01*
X127033778Y-97262857D01*
X126929805Y-97216948D01*
X126904389Y-97214000D01*
X126020000Y-97214000D01*
X126020000Y-97299750D01*
X126001694Y-97343944D01*
X125957500Y-97362250D01*
X124852000Y-97362250D01*
X124421000Y-97362250D01*
X123188500Y-97362250D01*
X123144306Y-97343944D01*
X123126000Y-97299750D01*
X123126000Y-97214000D01*
X122495611Y-97214000D01*
X122470192Y-97216949D01*
X122470191Y-97216949D01*
X122366221Y-97262857D01*
X122285857Y-97343221D01*
X122239948Y-97447194D01*
X122237000Y-97472611D01*
X122034615Y-97472611D01*
X122034615Y-94708069D01*
X123169000Y-94708069D01*
X123169001Y-94708085D01*
X123184041Y-94803044D01*
X123184044Y-94803054D01*
X123242371Y-94917527D01*
X123333222Y-95008378D01*
X123447695Y-95066705D01*
X123447705Y-95066708D01*
X123542664Y-95081748D01*
X123542680Y-95081750D01*
X123621500Y-95081750D01*
X123665694Y-95100056D01*
X123684000Y-95144250D01*
X123684000Y-96335750D01*
X123665694Y-96379944D01*
X123621500Y-96398250D01*
X123542680Y-96398250D01*
X123542664Y-96398251D01*
X123447705Y-96413291D01*
X123447695Y-96413294D01*
X123333222Y-96471621D01*
X123242371Y-96562472D01*
X123184044Y-96676945D01*
X123184041Y-96676955D01*
X123169001Y-96771914D01*
X123169000Y-96771930D01*
X123169000Y-97058250D01*
X125977000Y-97058250D01*
X125977000Y-96771930D01*
X125976998Y-96771914D01*
X125961958Y-96676955D01*
X125961955Y-96676945D01*
X125903628Y-96562472D01*
X125848749Y-96507593D01*
X125830443Y-96463399D01*
X125848749Y-96419205D01*
X125892941Y-96400899D01*
X126878716Y-96400899D01*
X126947508Y-96387216D01*
X126992948Y-96395594D01*
X127086480Y-96454365D01*
X127254066Y-96513006D01*
X127430500Y-96532885D01*
X127606934Y-96513006D01*
X127774520Y-96454365D01*
X127924856Y-96359902D01*
X128050402Y-96234356D01*
X128144865Y-96084020D01*
X128203506Y-95916434D01*
X128223385Y-95740000D01*
X128203506Y-95563566D01*
X128144865Y-95395980D01*
X128144862Y-95395976D01*
X128144862Y-95395974D01*
X128144861Y-95395973D01*
X128050403Y-95245646D01*
X128050402Y-95245644D01*
X127924855Y-95120097D01*
X127924853Y-95120096D01*
X127774526Y-95025638D01*
X127774525Y-95025637D01*
X127774520Y-95025635D01*
X127606934Y-94966994D01*
X127606933Y-94966993D01*
X127606931Y-94966993D01*
X127430500Y-94947115D01*
X127254068Y-94966993D01*
X127086474Y-95025637D01*
X127086473Y-95025638D01*
X126992949Y-95084403D01*
X126947504Y-95092782D01*
X126878717Y-95079100D01*
X125892944Y-95079100D01*
X125848750Y-95060794D01*
X125830444Y-95016600D01*
X125848750Y-94972406D01*
X125903628Y-94917527D01*
X125961955Y-94803054D01*
X125961958Y-94803044D01*
X125976998Y-94708085D01*
X125977000Y-94708069D01*
X125977000Y-94421750D01*
X123169000Y-94421750D01*
X123169000Y-94708069D01*
X122034615Y-94708069D01*
X122034615Y-94007388D01*
X122237001Y-94007388D01*
X122239949Y-94032807D01*
X122239949Y-94032808D01*
X122285857Y-94136778D01*
X122366221Y-94217142D01*
X122470194Y-94263051D01*
X122495611Y-94265999D01*
X123126000Y-94265999D01*
X123126000Y-94180250D01*
X123144306Y-94136056D01*
X123188500Y-94117750D01*
X124421000Y-94117750D01*
X124852000Y-94117750D01*
X125957500Y-94117750D01*
X126001694Y-94136056D01*
X126020000Y-94180250D01*
X126020000Y-94265999D01*
X126904388Y-94265999D01*
X126929807Y-94263050D01*
X126929808Y-94263050D01*
X127033778Y-94217142D01*
X127114142Y-94136778D01*
X127160051Y-94032805D01*
X127163000Y-94007388D01*
X127163000Y-93352000D01*
X124852000Y-93352000D01*
X124852000Y-94117750D01*
X124421000Y-94117750D01*
X124421000Y-93477250D01*
X124439306Y-93433056D01*
X124483500Y-93414750D01*
X124548000Y-93414750D01*
X124548000Y-93352000D01*
X122237001Y-93352000D01*
X122237001Y-94007388D01*
X122034615Y-94007388D01*
X122034615Y-92941708D01*
X122034916Y-92935585D01*
X122045467Y-92828402D01*
X122048393Y-92798677D01*
X122050779Y-92786674D01*
X122089816Y-92657965D01*
X122094505Y-92646647D01*
X122119379Y-92600107D01*
X122156355Y-92569759D01*
X122203960Y-92574446D01*
X122234308Y-92611422D01*
X122237000Y-92629567D01*
X122237000Y-93048000D01*
X124548000Y-93048000D01*
X124548000Y-92252344D01*
X124566306Y-92208150D01*
X124610500Y-92189844D01*
X124789500Y-92189844D01*
X124833694Y-92208150D01*
G37*
%TD.AperFunction*%
%TA.AperFunction,Conductor*%
G36*
X182876938Y-106513806D02*
G01*
X182903514Y-106553579D01*
X182904715Y-106565773D01*
X182904715Y-116420196D01*
X182904441Y-116422066D01*
X182904661Y-116431475D01*
X182904583Y-116436387D01*
X182893263Y-116640937D01*
X182891954Y-116650656D01*
X182849299Y-116848485D01*
X182846486Y-116857881D01*
X182773405Y-117046604D01*
X182769157Y-117055443D01*
X182667452Y-117230415D01*
X182661873Y-117238482D01*
X182534050Y-117395385D01*
X182527278Y-117402479D01*
X182376485Y-117537455D01*
X182368686Y-117543403D01*
X182198632Y-117653126D01*
X182189999Y-117657780D01*
X182004875Y-117739549D01*
X181995621Y-117742796D01*
X181799983Y-117794600D01*
X181790335Y-117796359D01*
X181662150Y-117809449D01*
X181587022Y-117817121D01*
X181580680Y-117817444D01*
X166468098Y-117817444D01*
X166423904Y-117799138D01*
X166405598Y-117754944D01*
X166423904Y-117710750D01*
X168188911Y-115945743D01*
X170003365Y-114131289D01*
X170075692Y-114023044D01*
X170125512Y-113902767D01*
X170150910Y-113775083D01*
X170150910Y-113644896D01*
X170150910Y-113359124D01*
X170166781Y-113320806D01*
X170165125Y-113319447D01*
X170226800Y-113244295D01*
X170286151Y-113171975D01*
X170374635Y-113006434D01*
X170429123Y-112826811D01*
X170447521Y-112640010D01*
X170447521Y-112640009D01*
X171072499Y-112640009D01*
X171072499Y-112640010D01*
X171090896Y-112826809D01*
X171145386Y-113006437D01*
X171233865Y-113171969D01*
X171233873Y-113171980D01*
X171352945Y-113317071D01*
X171352948Y-113317074D01*
X171422093Y-113373819D01*
X171498045Y-113436151D01*
X171498048Y-113436152D01*
X171498050Y-113436154D01*
X171650565Y-113517675D01*
X171663586Y-113524635D01*
X171843209Y-113579123D01*
X172030010Y-113597521D01*
X172216811Y-113579123D01*
X172396434Y-113524635D01*
X172561975Y-113436151D01*
X172707073Y-113317073D01*
X172826151Y-113171975D01*
X172914635Y-113006434D01*
X172969123Y-112826811D01*
X172987521Y-112640010D01*
X172987521Y-112640005D01*
X173461280Y-112640005D01*
X173461280Y-112640014D01*
X173480156Y-112843731D01*
X173480158Y-112843742D01*
X173536150Y-113040529D01*
X173627351Y-113223684D01*
X173689317Y-113305740D01*
X174156634Y-112838422D01*
X174204159Y-112920737D01*
X174289283Y-113005861D01*
X174371595Y-113053384D01*
X173900978Y-113524001D01*
X173901846Y-113524792D01*
X174075806Y-113632503D01*
X174266597Y-113706416D01*
X174467704Y-113744009D01*
X174467712Y-113744010D01*
X174672308Y-113744010D01*
X174672315Y-113744009D01*
X174873422Y-113706416D01*
X175064213Y-113632503D01*
X175238170Y-113524794D01*
X175238171Y-113524793D01*
X175239040Y-113524000D01*
X174768424Y-113053384D01*
X174850737Y-113005861D01*
X174935861Y-112920737D01*
X174983384Y-112838423D01*
X175450701Y-113305740D01*
X175512670Y-113223680D01*
X175603869Y-113040529D01*
X175659861Y-112843742D01*
X175659863Y-112843731D01*
X175678740Y-112640014D01*
X175678740Y-112640009D01*
X176152499Y-112640009D01*
X176152499Y-112640010D01*
X176170896Y-112826809D01*
X176225386Y-113006437D01*
X176313865Y-113171969D01*
X176313873Y-113171980D01*
X176432945Y-113317071D01*
X176432948Y-113317074D01*
X176502093Y-113373819D01*
X176578045Y-113436151D01*
X176578048Y-113436152D01*
X176578050Y-113436154D01*
X176730565Y-113517675D01*
X176743586Y-113524635D01*
X176923209Y-113579123D01*
X177110010Y-113597521D01*
X177296811Y-113579123D01*
X177476434Y-113524635D01*
X177641975Y-113436151D01*
X177787073Y-113317073D01*
X177906151Y-113171975D01*
X177994635Y-113006434D01*
X178049123Y-112826811D01*
X178067521Y-112640010D01*
X178067521Y-112640009D01*
X178692499Y-112640009D01*
X178692499Y-112640010D01*
X178710896Y-112826809D01*
X178765386Y-113006437D01*
X178853865Y-113171969D01*
X178853873Y-113171980D01*
X178972945Y-113317071D01*
X178972948Y-113317074D01*
X179042093Y-113373819D01*
X179118045Y-113436151D01*
X179118048Y-113436152D01*
X179118050Y-113436154D01*
X179270565Y-113517675D01*
X179283586Y-113524635D01*
X179463209Y-113579123D01*
X179650010Y-113597521D01*
X179836811Y-113579123D01*
X180016434Y-113524635D01*
X180181975Y-113436151D01*
X180327073Y-113317073D01*
X180446151Y-113171975D01*
X180534635Y-113006434D01*
X180589123Y-112826811D01*
X180607521Y-112640010D01*
X180602623Y-112590284D01*
X180590140Y-112463537D01*
X180589123Y-112453209D01*
X180534635Y-112273586D01*
X180516410Y-112239490D01*
X180446154Y-112108050D01*
X180446152Y-112108048D01*
X180446151Y-112108045D01*
X180327073Y-111962947D01*
X180324180Y-111960573D01*
X180181980Y-111843873D01*
X180181978Y-111843872D01*
X180181975Y-111843869D01*
X180181973Y-111843867D01*
X180181969Y-111843865D01*
X180016437Y-111755386D01*
X180015906Y-111755225D01*
X179982999Y-111745242D01*
X179836809Y-111700896D01*
X179650010Y-111682499D01*
X179463210Y-111700896D01*
X179283582Y-111755386D01*
X179118050Y-111843865D01*
X179118039Y-111843873D01*
X178972948Y-111962945D01*
X178972945Y-111962948D01*
X178853873Y-112108039D01*
X178853865Y-112108050D01*
X178765386Y-112273582D01*
X178710896Y-112453210D01*
X178692499Y-112640009D01*
X178067521Y-112640009D01*
X178062623Y-112590284D01*
X178050140Y-112463537D01*
X178049123Y-112453209D01*
X177994635Y-112273586D01*
X177976410Y-112239490D01*
X177906154Y-112108050D01*
X177906152Y-112108048D01*
X177906151Y-112108045D01*
X177787073Y-111962947D01*
X177784180Y-111960573D01*
X177641980Y-111843873D01*
X177641978Y-111843872D01*
X177641975Y-111843869D01*
X177641973Y-111843867D01*
X177641969Y-111843865D01*
X177476437Y-111755386D01*
X177475906Y-111755225D01*
X177442999Y-111745242D01*
X177296809Y-111700896D01*
X177110010Y-111682499D01*
X176923210Y-111700896D01*
X176743582Y-111755386D01*
X176578050Y-111843865D01*
X176578039Y-111843873D01*
X176432948Y-111962945D01*
X176432945Y-111962948D01*
X176313873Y-112108039D01*
X176313865Y-112108050D01*
X176225386Y-112273582D01*
X176170896Y-112453210D01*
X176152499Y-112640009D01*
X175678740Y-112640009D01*
X175678740Y-112640005D01*
X175659863Y-112436288D01*
X175659861Y-112436277D01*
X175603869Y-112239490D01*
X175512668Y-112056335D01*
X175450701Y-111974278D01*
X174983383Y-112441595D01*
X174935861Y-112359283D01*
X174850737Y-112274159D01*
X174768422Y-112226634D01*
X175239039Y-111756018D01*
X175238169Y-111755224D01*
X175064213Y-111647516D01*
X174873422Y-111573603D01*
X174672315Y-111536010D01*
X174467704Y-111536010D01*
X174266597Y-111573603D01*
X174075806Y-111647516D01*
X173901850Y-111755225D01*
X173900978Y-111756018D01*
X174371596Y-112226635D01*
X174289283Y-112274159D01*
X174204159Y-112359283D01*
X174156635Y-112441596D01*
X173689316Y-111974277D01*
X173627349Y-112056339D01*
X173536150Y-112239490D01*
X173480158Y-112436277D01*
X173480156Y-112436288D01*
X173461280Y-112640005D01*
X172987521Y-112640005D01*
X172982623Y-112590284D01*
X172970140Y-112463537D01*
X172969123Y-112453209D01*
X172914635Y-112273586D01*
X172896410Y-112239490D01*
X172826154Y-112108050D01*
X172826152Y-112108048D01*
X172826151Y-112108045D01*
X172707073Y-111962947D01*
X172704180Y-111960573D01*
X172561980Y-111843873D01*
X172561978Y-111843872D01*
X172561975Y-111843869D01*
X172561973Y-111843867D01*
X172561969Y-111843865D01*
X172396437Y-111755386D01*
X172395906Y-111755225D01*
X172362999Y-111745242D01*
X172216809Y-111700896D01*
X172030010Y-111682499D01*
X171843210Y-111700896D01*
X171663582Y-111755386D01*
X171498050Y-111843865D01*
X171498039Y-111843873D01*
X171352948Y-111962945D01*
X171352945Y-111962948D01*
X171233873Y-112108039D01*
X171233865Y-112108050D01*
X171145386Y-112273582D01*
X171090896Y-112453210D01*
X171072499Y-112640009D01*
X170447521Y-112640009D01*
X170442623Y-112590284D01*
X170430140Y-112463537D01*
X170429123Y-112453209D01*
X170374635Y-112273586D01*
X170356410Y-112239490D01*
X170286154Y-112108050D01*
X170286152Y-112108048D01*
X170286151Y-112108045D01*
X170279353Y-112099762D01*
X170165126Y-111960573D01*
X170166782Y-111959213D01*
X170150910Y-111920895D01*
X170150910Y-110973400D01*
X170169216Y-110929206D01*
X170213410Y-110910900D01*
X178215093Y-110910900D01*
X178342777Y-110885502D01*
X178463054Y-110835682D01*
X178571299Y-110763355D01*
X182763355Y-106571299D01*
X182790248Y-106531049D01*
X182830021Y-106504474D01*
X182876938Y-106513806D01*
G37*
%TD.AperFunction*%
%TA.AperFunction,Conductor*%
G36*
X183534609Y-91559950D02*
G01*
X183552915Y-91604144D01*
X183552915Y-118403144D01*
X183534609Y-118447338D01*
X183490415Y-118465644D01*
X113511415Y-118465644D01*
X113467221Y-118447338D01*
X113448915Y-118403144D01*
X113448915Y-108470342D01*
X114070655Y-108470342D01*
X114070658Y-108607125D01*
X114070659Y-108607135D01*
X114105388Y-108826366D01*
X114173989Y-109037480D01*
X114266060Y-109218167D01*
X114274769Y-109235258D01*
X114405246Y-109414836D01*
X114405248Y-109414838D01*
X114405251Y-109414842D01*
X114405253Y-109414843D01*
X114562209Y-109571793D01*
X114741793Y-109702262D01*
X114939575Y-109803033D01*
X115150686Y-109871624D01*
X115369928Y-109906346D01*
X115480915Y-109906344D01*
X115485204Y-109906344D01*
X120801582Y-109906344D01*
X120803714Y-109906651D01*
X120810984Y-109906454D01*
X120810985Y-109906455D01*
X120812532Y-109906413D01*
X120817973Y-109906502D01*
X121012004Y-109918201D01*
X121022765Y-109919799D01*
X121209136Y-109964373D01*
X121219464Y-109967819D01*
X121374401Y-110035028D01*
X121395257Y-110044075D01*
X121404828Y-110049261D01*
X121564714Y-110154889D01*
X121573238Y-110161658D01*
X121712346Y-110293440D01*
X121719568Y-110301589D01*
X121833682Y-110455529D01*
X121839376Y-110464803D01*
X121897995Y-110582123D01*
X121925025Y-110636220D01*
X121929026Y-110646353D01*
X121983603Y-110830029D01*
X121985784Y-110840703D01*
X121995944Y-110929206D01*
X122007592Y-111030676D01*
X122007807Y-111032544D01*
X122008215Y-111039672D01*
X122008215Y-117042698D01*
X122008155Y-117042844D01*
X122008159Y-117144999D01*
X122008160Y-117145002D01*
X122037959Y-117294765D01*
X122037959Y-117294766D01*
X122082581Y-117402479D01*
X122096405Y-117435847D01*
X122136543Y-117495912D01*
X122181250Y-117562816D01*
X122274236Y-117655793D01*
X122289233Y-117670789D01*
X122416206Y-117755624D01*
X122557290Y-117814058D01*
X122707062Y-117843846D01*
X122783415Y-117843844D01*
X122787704Y-117843844D01*
X129190490Y-117843844D01*
X129225213Y-117854377D01*
X129286944Y-117895625D01*
X129286945Y-117895625D01*
X129286946Y-117895626D01*
X129407223Y-117945446D01*
X129534907Y-117970844D01*
X165955149Y-117970844D01*
X166082833Y-117945446D01*
X166203110Y-117895626D01*
X166264843Y-117854376D01*
X166299566Y-117843844D01*
X181570967Y-117843844D01*
X181572836Y-117844117D01*
X181580433Y-117843939D01*
X181580434Y-117843940D01*
X181583822Y-117843860D01*
X181585279Y-117843844D01*
X181599951Y-117843844D01*
X181601997Y-117843410D01*
X181693206Y-117841291D01*
X181906717Y-117802371D01*
X182111511Y-117730528D01*
X182302544Y-117627533D01*
X182475113Y-117495921D01*
X182624968Y-117338933D01*
X182748420Y-117160435D01*
X182842427Y-116964822D01*
X182904676Y-116756911D01*
X182933634Y-116541822D01*
X182931131Y-116434238D01*
X182931115Y-116432786D01*
X182931115Y-93587501D01*
X182931260Y-93586553D01*
X182931119Y-93573941D01*
X182931115Y-93573242D01*
X182931115Y-93557077D01*
X182930854Y-93555809D01*
X182929795Y-93461265D01*
X182892193Y-93239958D01*
X182820435Y-93027259D01*
X182716287Y-92828403D01*
X182716287Y-92828402D01*
X182582317Y-92648291D01*
X182582318Y-92648291D01*
X182421813Y-92491347D01*
X182421812Y-92491346D01*
X182238747Y-92361453D01*
X182238741Y-92361450D01*
X182238739Y-92361448D01*
X182238734Y-92361445D01*
X182238728Y-92361442D01*
X182037612Y-92261792D01*
X182037602Y-92261788D01*
X182037598Y-92261786D01*
X181823343Y-92194816D01*
X181823335Y-92194814D01*
X181823331Y-92194814D01*
X181601250Y-92162188D01*
X181601243Y-92162187D01*
X181489552Y-92163440D01*
X181488851Y-92163444D01*
X127002998Y-92163444D01*
X126977754Y-92158119D01*
X126929807Y-92136949D01*
X126904389Y-92134000D01*
X124852000Y-92134000D01*
X124840862Y-92145138D01*
X124796668Y-92163444D01*
X124603332Y-92163444D01*
X124559138Y-92145138D01*
X124548000Y-92134000D01*
X122495611Y-92134000D01*
X122470192Y-92136949D01*
X122470191Y-92136949D01*
X122366221Y-92182857D01*
X122285857Y-92263221D01*
X122239946Y-92367199D01*
X122238713Y-92371733D01*
X122237675Y-92371450D01*
X122222129Y-92403595D01*
X122181261Y-92444464D01*
X122096427Y-92571433D01*
X122096427Y-92571434D01*
X122037995Y-92712518D01*
X122008211Y-92862290D01*
X122008215Y-92933177D01*
X122008215Y-100038444D01*
X121989909Y-100082638D01*
X121945715Y-100100944D01*
X115506833Y-100100944D01*
X115506762Y-100100914D01*
X115369927Y-100100914D01*
X115330970Y-100107084D01*
X115150687Y-100135637D01*
X115150682Y-100135638D01*
X115150679Y-100135639D01*
X114939582Y-100204228D01*
X114939570Y-100204233D01*
X114741794Y-100305005D01*
X114562223Y-100435472D01*
X114405256Y-100592442D01*
X114274790Y-100772019D01*
X114258710Y-100803580D01*
X114174019Y-100969804D01*
X114137074Y-101083517D01*
X114105429Y-101180918D01*
X114070711Y-101400155D01*
X114070711Y-101400159D01*
X114070715Y-101505676D01*
X114070715Y-108470196D01*
X114070655Y-108470342D01*
X113448915Y-108470342D01*
X113448915Y-91604144D01*
X113467221Y-91559950D01*
X113511415Y-91541644D01*
X183490415Y-91541644D01*
X183534609Y-91559950D01*
G37*
%TD.AperFunction*%
%TD*%
M02*
