M48
; DRILL file {KiCad 8.0.5} date 2024-11-27T13:11:37-0600
; FORMAT={-:-/ absolute / inch / decimal}
; #@! TF.CreationDate,2024-11-27T13:11:37-06:00
; #@! TF.GenerationSoftware,Kicad,Pcbnew,8.0.5
; #@! TF.FileFunction,Plated,1,2,PTH
FMAT,2
INCH
; #@! TA.AperFunction,Plated,PTH,ViaDrill
T1C0.0118
; #@! TA.AperFunction,Plated,PTH,ViaDrill
T2C0.0140
; #@! TA.AperFunction,Plated,PTH,ViaDrill
T3C0.0197
; #@! TA.AperFunction,Plated,PTH,ComponentDrill
T4C0.0220
; #@! TA.AperFunction,Plated,PTH,ComponentDrill
T5C0.0300
; #@! TA.AperFunction,Plated,PTH,ComponentDrill
T6C0.0315
; #@! TA.AperFunction,Plated,PTH,ComponentDrill
T7C0.0350
; #@! TA.AperFunction,Plated,PTH,ComponentDrill
T8C0.0354
; #@! TA.AperFunction,Plated,PTH,ComponentDrill
T9C0.0360
; #@! TA.AperFunction,Plated,PTH,ComponentDrill
T10C0.0360
; #@! TA.AperFunction,Plated,PTH,ComponentDrill
T11C0.0720
%
G90
G05
T1
X4.5276Y-3.9764
X4.5276Y-4.1339
X4.5276Y-4.2913
X4.6457Y-3.9764
X4.6457Y-4.2913
X4.7835Y-3.9724
X4.7874Y-4.1378
X4.7874Y-4.2913
X4.8189Y-3.7244
X4.8189Y-3.7677
X4.8189Y-3.811
X4.8228Y-4.4803
X4.8228Y-4.5551
X4.8307Y-4.6142
X4.8543Y-3.7677
X4.8701Y-4.5079
X4.8701Y-4.5551
X4.878Y-4.622
X4.9134Y-4.1339
X4.9961Y-4.6102
X5.0236Y-3.6457
X5.0236Y-3.6811
X5.0394Y-4.378
X5.0512Y-4.6181
X5.063Y-3.8504
X5.0787Y-3.6457
X5.0984Y-3.6929
X5.1378Y-4.311
X5.1457Y-4.5748
X5.1496Y-4.1299
X5.1575Y-3.6457
X5.1693Y-3.6929
X5.1846Y-4.5728
X5.185Y-3.9213
X5.2244Y-4.5472
X5.2283Y-3.9055
X5.2362Y-3.6457
X5.2441Y-4.189
X5.2671Y-4.5394
X5.3031Y-3.9094
X5.3031Y-4.5079
X5.315Y-3.6457
X5.3228Y-4.0512
X5.3421Y-4.5098
X5.3937Y-3.6457
X5.4016Y-3.9921
X5.4685Y-3.9173
X5.4724Y-3.6457
X5.4803Y-3.7362
X5.5512Y-3.6457
X5.5512Y-4.315
X5.5709Y-4.1772
X5.6299Y-3.6457
X5.6654Y-3.9882
X5.6693Y-4.1654
X5.6693Y-4.2717
X5.7008Y-3.8031
X5.7008Y-3.8583
X5.7047Y-4.0354
X5.7087Y-3.6457
X5.7126Y-4.4803
X5.7362Y-4.3898
X5.7677Y-3.8031
X5.7677Y-3.8583
X5.7835Y-4.4724
X5.7874Y-3.6457
X5.7913Y-4.3681
X5.7992Y-4.0354
X5.8031Y-4.1339
X5.8071Y-3.9567
X5.8268Y-3.8583
X5.8307Y-3.8031
X5.8346Y-4.4783
X5.8504Y-4.2677
X5.9055Y-3.9528
X5.921Y-3.64
X5.9213Y-3.7992
X5.9213Y-3.8543
X5.9232Y-4.4016
X5.9252Y-4.1772
X5.9409Y-4.0906
X5.9449Y-4.2677
X5.9606Y-4.0039
X5.9862Y-4.5118
X6.022Y-3.64
X6.022Y-3.802
X6.0236Y-3.8583
X6.0236Y-4.4016
X6.0236Y-4.4587
X6.0276Y-4.2638
X6.0394Y-4.0039
X6.0394Y-4.1063
X6.0472Y-3.937
X6.1024Y-4.5079
X6.121Y-3.641
X6.122Y-3.8583
X6.122Y-4.4016
X6.123Y-3.801
X6.124Y-4.4626
X6.1339Y-3.9646
X6.1339Y-4.0512
X6.1831Y-4.5138
X6.2205Y-4.4016
X6.222Y-3.641
X6.2224Y-4.4665
X6.223Y-3.802
X6.2244Y-4.3189
X6.2323Y-3.9921
X6.2323Y-4.1063
X6.2362Y-4.2244
X6.248Y-4.5453
X6.2874Y-4.5059
X6.2953Y-3.9331
X6.3189Y-4.5748
X6.3209Y-4.4055
X6.3209Y-4.4646
X6.321Y-3.641
X6.3228Y-3.8701
X6.324Y-3.803
X6.3583Y-4.0945
X6.3583Y-4.1732
X6.3701Y-4.3268
X6.378Y-3.7244
X6.3917Y-4.5098
X6.3976Y-4.5748
X6.4213Y-3.8701
X6.4213Y-4.3996
X6.4213Y-4.4685
X6.422Y-3.641
X6.422Y-3.798
X6.4409Y-3.9331
X6.4665Y-3.7362
X6.4724Y-4.3268
X6.4843Y-4.063
X6.5039Y-4.2047
X6.521Y-3.641
X6.521Y-3.8
X6.5217Y-4.4016
X6.5236Y-3.8976
X6.5236Y-4.4646
X6.5748Y-4.3268
X6.5945Y-4.0276
X6.6063Y-4.2205
X6.6142Y-3.8937
X6.618Y-3.795
X6.621Y-3.64
X6.622Y-3.7087
X6.622Y-4.4055
X6.622Y-4.4626
X6.6732Y-4.1339
X6.7087Y-3.937
X6.7106Y-3.7461
X6.7106Y-4.2185
X6.7244Y-4.3937
X6.748Y-4.0945
X6.75Y-4.1732
X6.8189Y-4.3937
X6.8228Y-3.8091
X6.8386Y-4.0945
X6.8524Y-4.2913
X6.8642Y-3.9409
X6.8661Y-4.1909
X6.9213Y-3.8031
X6.9213Y-4.4882
X6.9213Y-4.6063
X6.9272Y-4.3957
X6.9449Y-4.2362
X6.9961Y-4.0787
X7.002Y-4.1929
X7.0098Y-4.2835
X7.0138Y-3.939
X7.0197Y-4.4882
X7.0197Y-4.6063
X7.0217Y-3.8012
X7.0236Y-4.3957
X7.0945Y-4.2008
X7.1142Y-4.0787
X7.1142Y-4.3012
X7.1161Y-4.3878
X7.126Y-4.6063
X7.128Y-4.4862
X7.1299Y-3.752
X7.1299Y-3.8012
X7.1319Y-4.1614
X7.1496Y-3.6575
X7.171Y-4.598
X7.179Y-4.4
X7.18Y-4.299
X7.181Y-4.498
X7.1831Y-4.2343
T2
X4.8327Y-3.9291
X4.8819Y-3.929
X4.9311Y-3.9291
X4.9764Y-3.7268
X4.9921Y-3.929
X5.0157Y-3.7205
X5.0215Y-3.834
X5.024Y-3.8865
X5.0512Y-3.7283
X5.0591Y-3.9134
X5.0709Y-3.7598
X5.1024Y-3.9213
X5.126Y-3.749
X5.1496Y-3.9173
X5.1732Y-3.752
X5.315Y-4.3307
X5.459Y-4.284
X5.5157Y-3.9252
X7.0865Y-3.9365
T3
X5.1024Y-4.6185
X5.4209Y-3.7283
X7.126Y-3.7087
T4
X5.0169Y-3.7693
T5
X7.0728Y-3.8346
X7.0728Y-4.4346
T6
X4.935Y-4.4646
X4.935Y-4.5846
X4.9363Y-4.4046
X4.9363Y-4.5246
T7
X5.9947Y-3.9559
X5.9947Y-4.0559
X5.9947Y-4.1559
T8
X5.7475Y-4.0843
X5.7475Y-4.2845
X5.748Y-3.9843
X5.748Y-4.1843
T9
X5.8728Y-3.8346
T10
X5.8728Y-4.4346
X5.9728Y-3.8346
X5.9728Y-4.4346
X6.0728Y-3.8346
X6.0728Y-4.4346
X6.1728Y-3.8346
X6.1728Y-4.4346
X6.2728Y-3.8346
X6.2728Y-4.4346
X6.3728Y-3.8346
X6.3728Y-4.4346
X6.4728Y-3.8346
X6.4728Y-4.4346
X6.5728Y-3.8346
X6.5728Y-4.4346
X6.6728Y-3.8346
X6.6728Y-4.4346
X6.7728Y-3.8346
X6.7728Y-4.4346
X6.8728Y-3.8346
X6.8728Y-4.4346
X6.9728Y-3.8346
X6.9728Y-4.4346
T11
X4.6457Y-4.1354
X4.9114Y-4.0354
X4.9114Y-4.2354
X6.7917Y-4.0346
X6.7917Y-4.2346
X7.0574Y-4.1346
M30
