%TF.GenerationSoftware,KiCad,Pcbnew,8.0.5*%
%TF.CreationDate,2024-11-27T13:11:35-06:00*%
%TF.ProjectId,Mini-Lora,4d696e69-2d4c-46f7-9261-2e6b69636164,rev?*%
%TF.SameCoordinates,Original*%
%TF.FileFunction,Legend,Bot*%
%TF.FilePolarity,Positive*%
%FSLAX46Y46*%
G04 Gerber Fmt 4.6, Leading zero omitted, Abs format (unit mm)*
G04 Created by KiCad (PCBNEW 8.0.5) date 2024-11-27 13:11:35*
%MOMM*%
%LPD*%
G01*
G04 APERTURE LIST*
%ADD10C,0.100000*%
%ADD11C,0.251460*%
%ADD12C,0.133350*%
%ADD13C,0.190500*%
%ADD14C,0.150000*%
%ADD15C,0.032512*%
%ADD16C,0.120000*%
%ADD17C,0.254000*%
%ADD18C,0.152400*%
%ADD19C,0.355600*%
%ADD20C,0.200000*%
G04 APERTURE END LIST*
D10*
X144780000Y-105010000D02*
X147263650Y-105010000D01*
X147263650Y-107543600D01*
X144780000Y-107543600D01*
X144780000Y-105010000D01*
X147263650Y-99930000D02*
X148945600Y-99930000D01*
X148945600Y-102470000D01*
X147263650Y-102470000D01*
X147263650Y-99930000D01*
X147263650Y-107543600D02*
X148945600Y-107543600D01*
X148945600Y-110090000D01*
X147263650Y-110090000D01*
X147263650Y-107543600D01*
X144780000Y-107543600D02*
X147263650Y-107543600D01*
X147263650Y-110090000D01*
X144780000Y-110090000D01*
X144780000Y-107543600D01*
X147263650Y-105010000D02*
X148945600Y-105010000D01*
X148945600Y-107543600D01*
X147263650Y-107543600D01*
X147263650Y-105010000D01*
X153085800Y-106197400D02*
X158292800Y-106197400D01*
X158292800Y-109728000D01*
X153085800Y-109728000D01*
X153085800Y-106197400D01*
X147263650Y-102470000D02*
X148945600Y-102470000D01*
X148945600Y-105010000D01*
X147263650Y-105010000D01*
X147263650Y-102470000D01*
X144780000Y-102463600D02*
X147263650Y-102463600D01*
X147263650Y-105010000D01*
X144780000Y-105010000D01*
X144780000Y-102463600D01*
X144780000Y-99930000D02*
X147263650Y-99930000D01*
X147263650Y-102463600D01*
X144780000Y-102463600D01*
X144780000Y-99930000D01*
D11*
X160040532Y-117396129D02*
X160040532Y-115971189D01*
X160040532Y-115971189D02*
X159565552Y-116989003D01*
X159565552Y-116989003D02*
X159090572Y-115971189D01*
X159090572Y-115971189D02*
X159090572Y-117396129D01*
X158412029Y-117396129D02*
X158412029Y-116446169D01*
X158412029Y-115971189D02*
X158479883Y-116039043D01*
X158479883Y-116039043D02*
X158412029Y-116106897D01*
X158412029Y-116106897D02*
X158344175Y-116039043D01*
X158344175Y-116039043D02*
X158412029Y-115971189D01*
X158412029Y-115971189D02*
X158412029Y-116106897D01*
X157733486Y-116446169D02*
X157733486Y-117396129D01*
X157733486Y-116581877D02*
X157665632Y-116514023D01*
X157665632Y-116514023D02*
X157529923Y-116446169D01*
X157529923Y-116446169D02*
X157326360Y-116446169D01*
X157326360Y-116446169D02*
X157190652Y-116514023D01*
X157190652Y-116514023D02*
X157122798Y-116649732D01*
X157122798Y-116649732D02*
X157122798Y-117396129D01*
X156444255Y-117396129D02*
X156444255Y-116446169D01*
X156444255Y-115971189D02*
X156512109Y-116039043D01*
X156512109Y-116039043D02*
X156444255Y-116106897D01*
X156444255Y-116106897D02*
X156376401Y-116039043D01*
X156376401Y-116039043D02*
X156444255Y-115971189D01*
X156444255Y-115971189D02*
X156444255Y-116106897D01*
X155765712Y-116853295D02*
X154680044Y-116853295D01*
X153322958Y-117396129D02*
X154001501Y-117396129D01*
X154001501Y-117396129D02*
X154001501Y-115971189D01*
X152644415Y-117396129D02*
X152780124Y-117328275D01*
X152780124Y-117328275D02*
X152847978Y-117260420D01*
X152847978Y-117260420D02*
X152915832Y-117124712D01*
X152915832Y-117124712D02*
X152915832Y-116717586D01*
X152915832Y-116717586D02*
X152847978Y-116581877D01*
X152847978Y-116581877D02*
X152780124Y-116514023D01*
X152780124Y-116514023D02*
X152644415Y-116446169D01*
X152644415Y-116446169D02*
X152440852Y-116446169D01*
X152440852Y-116446169D02*
X152305144Y-116514023D01*
X152305144Y-116514023D02*
X152237290Y-116581877D01*
X152237290Y-116581877D02*
X152169435Y-116717586D01*
X152169435Y-116717586D02*
X152169435Y-117124712D01*
X152169435Y-117124712D02*
X152237290Y-117260420D01*
X152237290Y-117260420D02*
X152305144Y-117328275D01*
X152305144Y-117328275D02*
X152440852Y-117396129D01*
X152440852Y-117396129D02*
X152644415Y-117396129D01*
X151558747Y-117396129D02*
X151558747Y-116446169D01*
X151558747Y-116717586D02*
X151490893Y-116581877D01*
X151490893Y-116581877D02*
X151423039Y-116514023D01*
X151423039Y-116514023D02*
X151287330Y-116446169D01*
X151287330Y-116446169D02*
X151151621Y-116446169D01*
X150065953Y-117396129D02*
X150065953Y-116649732D01*
X150065953Y-116649732D02*
X150133807Y-116514023D01*
X150133807Y-116514023D02*
X150269515Y-116446169D01*
X150269515Y-116446169D02*
X150540933Y-116446169D01*
X150540933Y-116446169D02*
X150676641Y-116514023D01*
X150065953Y-117328275D02*
X150201661Y-117396129D01*
X150201661Y-117396129D02*
X150540933Y-117396129D01*
X150540933Y-117396129D02*
X150676641Y-117328275D01*
X150676641Y-117328275D02*
X150744495Y-117192566D01*
X150744495Y-117192566D02*
X150744495Y-117056857D01*
X150744495Y-117056857D02*
X150676641Y-116921149D01*
X150676641Y-116921149D02*
X150540933Y-116853295D01*
X150540933Y-116853295D02*
X150201661Y-116853295D01*
X150201661Y-116853295D02*
X150065953Y-116785440D01*
X149387410Y-116853295D02*
X148301742Y-116853295D01*
X147623199Y-117396129D02*
X147623199Y-115971189D01*
X147623199Y-115971189D02*
X146808948Y-117396129D01*
X146808948Y-117396129D02*
X146808948Y-115971189D01*
X145316154Y-117396129D02*
X145791134Y-116717586D01*
X146130405Y-117396129D02*
X146130405Y-115971189D01*
X146130405Y-115971189D02*
X145587571Y-115971189D01*
X145587571Y-115971189D02*
X145451862Y-116039043D01*
X145451862Y-116039043D02*
X145384008Y-116106897D01*
X145384008Y-116106897D02*
X145316154Y-116242606D01*
X145316154Y-116242606D02*
X145316154Y-116446169D01*
X145316154Y-116446169D02*
X145384008Y-116581877D01*
X145384008Y-116581877D02*
X145451862Y-116649732D01*
X145451862Y-116649732D02*
X145587571Y-116717586D01*
X145587571Y-116717586D02*
X146130405Y-116717586D01*
X144230485Y-116649732D02*
X144705465Y-116649732D01*
X144705465Y-117396129D02*
X144705465Y-115971189D01*
X144705465Y-115971189D02*
X144026922Y-115971189D01*
X142805545Y-115971189D02*
X143484088Y-115971189D01*
X143484088Y-115971189D02*
X143551942Y-116649732D01*
X143551942Y-116649732D02*
X143484088Y-116581877D01*
X143484088Y-116581877D02*
X143348380Y-116514023D01*
X143348380Y-116514023D02*
X143009108Y-116514023D01*
X143009108Y-116514023D02*
X142873400Y-116581877D01*
X142873400Y-116581877D02*
X142805545Y-116649732D01*
X142805545Y-116649732D02*
X142737691Y-116785440D01*
X142737691Y-116785440D02*
X142737691Y-117124712D01*
X142737691Y-117124712D02*
X142805545Y-117260420D01*
X142805545Y-117260420D02*
X142873400Y-117328275D01*
X142873400Y-117328275D02*
X143009108Y-117396129D01*
X143009108Y-117396129D02*
X143348380Y-117396129D01*
X143348380Y-117396129D02*
X143484088Y-117328275D01*
X143484088Y-117328275D02*
X143551942Y-117260420D01*
X142194856Y-116106897D02*
X142127002Y-116039043D01*
X142127002Y-116039043D02*
X141991294Y-115971189D01*
X141991294Y-115971189D02*
X141652022Y-115971189D01*
X141652022Y-115971189D02*
X141516314Y-116039043D01*
X141516314Y-116039043D02*
X141448459Y-116106897D01*
X141448459Y-116106897D02*
X141380605Y-116242606D01*
X141380605Y-116242606D02*
X141380605Y-116378315D01*
X141380605Y-116378315D02*
X141448459Y-116581877D01*
X141448459Y-116581877D02*
X142262711Y-117396129D01*
X142262711Y-117396129D02*
X141380605Y-117396129D01*
X139887810Y-115971189D02*
X139412830Y-117396129D01*
X139412830Y-117396129D02*
X138937850Y-115971189D01*
X137716473Y-117396129D02*
X138530724Y-117396129D01*
X138123599Y-117396129D02*
X138123599Y-115971189D01*
X138123599Y-115971189D02*
X138259307Y-116174752D01*
X138259307Y-116174752D02*
X138395016Y-116310460D01*
X138395016Y-116310460D02*
X138530724Y-116378315D01*
X137105784Y-117260420D02*
X137037930Y-117328275D01*
X137037930Y-117328275D02*
X137105784Y-117396129D01*
X137105784Y-117396129D02*
X137173638Y-117328275D01*
X137173638Y-117328275D02*
X137105784Y-117260420D01*
X137105784Y-117260420D02*
X137105784Y-117396129D01*
X135680844Y-117396129D02*
X136495095Y-117396129D01*
X136087970Y-117396129D02*
X136087970Y-115971189D01*
X136087970Y-115971189D02*
X136223678Y-116174752D01*
X136223678Y-116174752D02*
X136359387Y-116310460D01*
X136359387Y-116310460D02*
X136495095Y-116378315D01*
X134459467Y-117396129D02*
X134459467Y-116649732D01*
X134459467Y-116649732D02*
X134527321Y-116514023D01*
X134527321Y-116514023D02*
X134663029Y-116446169D01*
X134663029Y-116446169D02*
X134934447Y-116446169D01*
X134934447Y-116446169D02*
X135070155Y-116514023D01*
X134459467Y-117328275D02*
X134595175Y-117396129D01*
X134595175Y-117396129D02*
X134934447Y-117396129D01*
X134934447Y-117396129D02*
X135070155Y-117328275D01*
X135070155Y-117328275D02*
X135138009Y-117192566D01*
X135138009Y-117192566D02*
X135138009Y-117056857D01*
X135138009Y-117056857D02*
X135070155Y-116921149D01*
X135070155Y-116921149D02*
X134934447Y-116853295D01*
X134934447Y-116853295D02*
X134595175Y-116853295D01*
X134595175Y-116853295D02*
X134459467Y-116785440D01*
D12*
X148591860Y-100301425D02*
X148627843Y-100409375D01*
X148627843Y-100409375D02*
X148627843Y-100589292D01*
X148627843Y-100589292D02*
X148591860Y-100661258D01*
X148591860Y-100661258D02*
X148555876Y-100697242D01*
X148555876Y-100697242D02*
X148483910Y-100733225D01*
X148483910Y-100733225D02*
X148411943Y-100733225D01*
X148411943Y-100733225D02*
X148339976Y-100697242D01*
X148339976Y-100697242D02*
X148303993Y-100661258D01*
X148303993Y-100661258D02*
X148268010Y-100589292D01*
X148268010Y-100589292D02*
X148232026Y-100445358D01*
X148232026Y-100445358D02*
X148196043Y-100373392D01*
X148196043Y-100373392D02*
X148160060Y-100337408D01*
X148160060Y-100337408D02*
X148088093Y-100301425D01*
X148088093Y-100301425D02*
X148016126Y-100301425D01*
X148016126Y-100301425D02*
X147944160Y-100337408D01*
X147944160Y-100337408D02*
X147908176Y-100373392D01*
X147908176Y-100373392D02*
X147872193Y-100445358D01*
X147872193Y-100445358D02*
X147872193Y-100625275D01*
X147872193Y-100625275D02*
X147908176Y-100733225D01*
X148627843Y-101057075D02*
X147872193Y-101057075D01*
X147872193Y-101057075D02*
X147872193Y-101236992D01*
X147872193Y-101236992D02*
X147908176Y-101344942D01*
X147908176Y-101344942D02*
X147980143Y-101416909D01*
X147980143Y-101416909D02*
X148052110Y-101452892D01*
X148052110Y-101452892D02*
X148196043Y-101488875D01*
X148196043Y-101488875D02*
X148303993Y-101488875D01*
X148303993Y-101488875D02*
X148447926Y-101452892D01*
X148447926Y-101452892D02*
X148519893Y-101416909D01*
X148519893Y-101416909D02*
X148591860Y-101344942D01*
X148591860Y-101344942D02*
X148627843Y-101236992D01*
X148627843Y-101236992D02*
X148627843Y-101057075D01*
X148411943Y-101776742D02*
X148411943Y-102136575D01*
X148627843Y-101704775D02*
X147872193Y-101956659D01*
X147872193Y-101956659D02*
X148627843Y-102208542D01*
X157371793Y-106912833D02*
X157371793Y-107380616D01*
X157371793Y-107380616D02*
X157659660Y-107128733D01*
X157659660Y-107128733D02*
X157659660Y-107236683D01*
X157659660Y-107236683D02*
X157695643Y-107308649D01*
X157695643Y-107308649D02*
X157731626Y-107344633D01*
X157731626Y-107344633D02*
X157803593Y-107380616D01*
X157803593Y-107380616D02*
X157983510Y-107380616D01*
X157983510Y-107380616D02*
X158055476Y-107344633D01*
X158055476Y-107344633D02*
X158091460Y-107308649D01*
X158091460Y-107308649D02*
X158127443Y-107236683D01*
X158127443Y-107236683D02*
X158127443Y-107020783D01*
X158127443Y-107020783D02*
X158091460Y-106948816D01*
X158091460Y-106948816D02*
X158055476Y-106912833D01*
X157371793Y-107596516D02*
X158127443Y-107848400D01*
X158127443Y-107848400D02*
X157371793Y-108100283D01*
X157371793Y-108280200D02*
X157371793Y-108747983D01*
X157371793Y-108747983D02*
X157659660Y-108496100D01*
X157659660Y-108496100D02*
X157659660Y-108604050D01*
X157659660Y-108604050D02*
X157695643Y-108676016D01*
X157695643Y-108676016D02*
X157731626Y-108712000D01*
X157731626Y-108712000D02*
X157803593Y-108747983D01*
X157803593Y-108747983D02*
X157983510Y-108747983D01*
X157983510Y-108747983D02*
X158055476Y-108712000D01*
X158055476Y-108712000D02*
X158091460Y-108676016D01*
X158091460Y-108676016D02*
X158127443Y-108604050D01*
X158127443Y-108604050D02*
X158127443Y-108388150D01*
X158127443Y-108388150D02*
X158091460Y-108316183D01*
X158091460Y-108316183D02*
X158055476Y-108280200D01*
X148591860Y-102834016D02*
X148627843Y-102941966D01*
X148627843Y-102941966D02*
X148627843Y-103121883D01*
X148627843Y-103121883D02*
X148591860Y-103193849D01*
X148591860Y-103193849D02*
X148555876Y-103229833D01*
X148555876Y-103229833D02*
X148483910Y-103265816D01*
X148483910Y-103265816D02*
X148411943Y-103265816D01*
X148411943Y-103265816D02*
X148339976Y-103229833D01*
X148339976Y-103229833D02*
X148303993Y-103193849D01*
X148303993Y-103193849D02*
X148268010Y-103121883D01*
X148268010Y-103121883D02*
X148232026Y-102977949D01*
X148232026Y-102977949D02*
X148196043Y-102905983D01*
X148196043Y-102905983D02*
X148160060Y-102869999D01*
X148160060Y-102869999D02*
X148088093Y-102834016D01*
X148088093Y-102834016D02*
X148016126Y-102834016D01*
X148016126Y-102834016D02*
X147944160Y-102869999D01*
X147944160Y-102869999D02*
X147908176Y-102905983D01*
X147908176Y-102905983D02*
X147872193Y-102977949D01*
X147872193Y-102977949D02*
X147872193Y-103157866D01*
X147872193Y-103157866D02*
X147908176Y-103265816D01*
X148555876Y-104021466D02*
X148591860Y-103985483D01*
X148591860Y-103985483D02*
X148627843Y-103877533D01*
X148627843Y-103877533D02*
X148627843Y-103805566D01*
X148627843Y-103805566D02*
X148591860Y-103697616D01*
X148591860Y-103697616D02*
X148519893Y-103625650D01*
X148519893Y-103625650D02*
X148447926Y-103589666D01*
X148447926Y-103589666D02*
X148303993Y-103553683D01*
X148303993Y-103553683D02*
X148196043Y-103553683D01*
X148196043Y-103553683D02*
X148052110Y-103589666D01*
X148052110Y-103589666D02*
X147980143Y-103625650D01*
X147980143Y-103625650D02*
X147908176Y-103697616D01*
X147908176Y-103697616D02*
X147872193Y-103805566D01*
X147872193Y-103805566D02*
X147872193Y-103877533D01*
X147872193Y-103877533D02*
X147908176Y-103985483D01*
X147908176Y-103985483D02*
X147944160Y-104021466D01*
X148627843Y-104705150D02*
X148627843Y-104345316D01*
X148627843Y-104345316D02*
X147872193Y-104345316D01*
X147872193Y-107903433D02*
X147872193Y-108371216D01*
X147872193Y-108371216D02*
X148160060Y-108119333D01*
X148160060Y-108119333D02*
X148160060Y-108227283D01*
X148160060Y-108227283D02*
X148196043Y-108299249D01*
X148196043Y-108299249D02*
X148232026Y-108335233D01*
X148232026Y-108335233D02*
X148303993Y-108371216D01*
X148303993Y-108371216D02*
X148483910Y-108371216D01*
X148483910Y-108371216D02*
X148555876Y-108335233D01*
X148555876Y-108335233D02*
X148591860Y-108299249D01*
X148591860Y-108299249D02*
X148627843Y-108227283D01*
X148627843Y-108227283D02*
X148627843Y-108011383D01*
X148627843Y-108011383D02*
X148591860Y-107939416D01*
X148591860Y-107939416D02*
X148555876Y-107903433D01*
X147872193Y-108587116D02*
X148627843Y-108839000D01*
X148627843Y-108839000D02*
X147872193Y-109090883D01*
X147872193Y-109270800D02*
X147872193Y-109738583D01*
X147872193Y-109738583D02*
X148160060Y-109486700D01*
X148160060Y-109486700D02*
X148160060Y-109594650D01*
X148160060Y-109594650D02*
X148196043Y-109666616D01*
X148196043Y-109666616D02*
X148232026Y-109702600D01*
X148232026Y-109702600D02*
X148303993Y-109738583D01*
X148303993Y-109738583D02*
X148483910Y-109738583D01*
X148483910Y-109738583D02*
X148555876Y-109702600D01*
X148555876Y-109702600D02*
X148591860Y-109666616D01*
X148591860Y-109666616D02*
X148627843Y-109594650D01*
X148627843Y-109594650D02*
X148627843Y-109378750D01*
X148627843Y-109378750D02*
X148591860Y-109306783D01*
X148591860Y-109306783D02*
X148555876Y-109270800D01*
X153267576Y-107399667D02*
X153231593Y-107327700D01*
X153231593Y-107327700D02*
X153231593Y-107219750D01*
X153231593Y-107219750D02*
X153267576Y-107111800D01*
X153267576Y-107111800D02*
X153339543Y-107039834D01*
X153339543Y-107039834D02*
X153411510Y-107003850D01*
X153411510Y-107003850D02*
X153555443Y-106967867D01*
X153555443Y-106967867D02*
X153663393Y-106967867D01*
X153663393Y-106967867D02*
X153807326Y-107003850D01*
X153807326Y-107003850D02*
X153879293Y-107039834D01*
X153879293Y-107039834D02*
X153951260Y-107111800D01*
X153951260Y-107111800D02*
X153987243Y-107219750D01*
X153987243Y-107219750D02*
X153987243Y-107291717D01*
X153987243Y-107291717D02*
X153951260Y-107399667D01*
X153951260Y-107399667D02*
X153915276Y-107435650D01*
X153915276Y-107435650D02*
X153663393Y-107435650D01*
X153663393Y-107435650D02*
X153663393Y-107291717D01*
X153987243Y-107759500D02*
X153231593Y-107759500D01*
X153231593Y-107759500D02*
X153987243Y-108191300D01*
X153987243Y-108191300D02*
X153231593Y-108191300D01*
X153987243Y-108551133D02*
X153231593Y-108551133D01*
X153231593Y-108551133D02*
X153231593Y-108731050D01*
X153231593Y-108731050D02*
X153267576Y-108839000D01*
X153267576Y-108839000D02*
X153339543Y-108910967D01*
X153339543Y-108910967D02*
X153411510Y-108946950D01*
X153411510Y-108946950D02*
X153555443Y-108982933D01*
X153555443Y-108982933D02*
X153663393Y-108982933D01*
X153663393Y-108982933D02*
X153807326Y-108946950D01*
X153807326Y-108946950D02*
X153879293Y-108910967D01*
X153879293Y-108910967D02*
X153951260Y-108839000D01*
X153951260Y-108839000D02*
X153987243Y-108731050D01*
X153987243Y-108731050D02*
X153987243Y-108551133D01*
X147882776Y-105723267D02*
X147846793Y-105651300D01*
X147846793Y-105651300D02*
X147846793Y-105543350D01*
X147846793Y-105543350D02*
X147882776Y-105435400D01*
X147882776Y-105435400D02*
X147954743Y-105363434D01*
X147954743Y-105363434D02*
X148026710Y-105327450D01*
X148026710Y-105327450D02*
X148170643Y-105291467D01*
X148170643Y-105291467D02*
X148278593Y-105291467D01*
X148278593Y-105291467D02*
X148422526Y-105327450D01*
X148422526Y-105327450D02*
X148494493Y-105363434D01*
X148494493Y-105363434D02*
X148566460Y-105435400D01*
X148566460Y-105435400D02*
X148602443Y-105543350D01*
X148602443Y-105543350D02*
X148602443Y-105615317D01*
X148602443Y-105615317D02*
X148566460Y-105723267D01*
X148566460Y-105723267D02*
X148530476Y-105759250D01*
X148530476Y-105759250D02*
X148278593Y-105759250D01*
X148278593Y-105759250D02*
X148278593Y-105615317D01*
X148602443Y-106083100D02*
X147846793Y-106083100D01*
X147846793Y-106083100D02*
X148602443Y-106514900D01*
X148602443Y-106514900D02*
X147846793Y-106514900D01*
X148602443Y-106874733D02*
X147846793Y-106874733D01*
X147846793Y-106874733D02*
X147846793Y-107054650D01*
X147846793Y-107054650D02*
X147882776Y-107162600D01*
X147882776Y-107162600D02*
X147954743Y-107234567D01*
X147954743Y-107234567D02*
X148026710Y-107270550D01*
X148026710Y-107270550D02*
X148170643Y-107306533D01*
X148170643Y-107306533D02*
X148278593Y-107306533D01*
X148278593Y-107306533D02*
X148422526Y-107270550D01*
X148422526Y-107270550D02*
X148494493Y-107234567D01*
X148494493Y-107234567D02*
X148566460Y-107162600D01*
X148566460Y-107162600D02*
X148602443Y-107054650D01*
X148602443Y-107054650D02*
X148602443Y-106874733D01*
D13*
X128407983Y-102849208D02*
X127893936Y-102489375D01*
X128407983Y-102232351D02*
X127328483Y-102232351D01*
X127328483Y-102232351D02*
X127328483Y-102643589D01*
X127328483Y-102643589D02*
X127379888Y-102746399D01*
X127379888Y-102746399D02*
X127431293Y-102797804D01*
X127431293Y-102797804D02*
X127534102Y-102849208D01*
X127534102Y-102849208D02*
X127688317Y-102849208D01*
X127688317Y-102849208D02*
X127791126Y-102797804D01*
X127791126Y-102797804D02*
X127842531Y-102746399D01*
X127842531Y-102746399D02*
X127893936Y-102643589D01*
X127893936Y-102643589D02*
X127893936Y-102232351D01*
X127842531Y-103671685D02*
X127842531Y-103311851D01*
X128407983Y-103311851D02*
X127328483Y-103311851D01*
X127328483Y-103311851D02*
X127328483Y-103825899D01*
X128407983Y-104237137D02*
X127328483Y-104237137D01*
X127328483Y-104237137D02*
X128099555Y-104596971D01*
X128099555Y-104596971D02*
X127328483Y-104956804D01*
X127328483Y-104956804D02*
X128407983Y-104956804D01*
X128407983Y-105522256D02*
X128407983Y-105727875D01*
X128407983Y-105727875D02*
X128356579Y-105830685D01*
X128356579Y-105830685D02*
X128305174Y-105882089D01*
X128305174Y-105882089D02*
X128150959Y-105984899D01*
X128150959Y-105984899D02*
X127945340Y-106036304D01*
X127945340Y-106036304D02*
X127534102Y-106036304D01*
X127534102Y-106036304D02*
X127431293Y-105984899D01*
X127431293Y-105984899D02*
X127379888Y-105933494D01*
X127379888Y-105933494D02*
X127328483Y-105830685D01*
X127328483Y-105830685D02*
X127328483Y-105625066D01*
X127328483Y-105625066D02*
X127379888Y-105522256D01*
X127379888Y-105522256D02*
X127431293Y-105470851D01*
X127431293Y-105470851D02*
X127534102Y-105419447D01*
X127534102Y-105419447D02*
X127791126Y-105419447D01*
X127791126Y-105419447D02*
X127893936Y-105470851D01*
X127893936Y-105470851D02*
X127945340Y-105522256D01*
X127945340Y-105522256D02*
X127996745Y-105625066D01*
X127996745Y-105625066D02*
X127996745Y-105830685D01*
X127996745Y-105830685D02*
X127945340Y-105933494D01*
X127945340Y-105933494D02*
X127893936Y-105984899D01*
X127893936Y-105984899D02*
X127791126Y-106036304D01*
X127328483Y-107012994D02*
X127328483Y-106498946D01*
X127328483Y-106498946D02*
X127842531Y-106447542D01*
X127842531Y-106447542D02*
X127791126Y-106498946D01*
X127791126Y-106498946D02*
X127739721Y-106601756D01*
X127739721Y-106601756D02*
X127739721Y-106858780D01*
X127739721Y-106858780D02*
X127791126Y-106961589D01*
X127791126Y-106961589D02*
X127842531Y-107012994D01*
X127842531Y-107012994D02*
X127945340Y-107064399D01*
X127945340Y-107064399D02*
X128202364Y-107064399D01*
X128202364Y-107064399D02*
X128305174Y-107012994D01*
X128305174Y-107012994D02*
X128356579Y-106961589D01*
X128356579Y-106961589D02*
X128407983Y-106858780D01*
X128407983Y-106858780D02*
X128407983Y-106601756D01*
X128407983Y-106601756D02*
X128356579Y-106498946D01*
X128356579Y-106498946D02*
X128305174Y-106447542D01*
D14*
X182364819Y-88362619D02*
X181364819Y-88362619D01*
X181460057Y-88791190D02*
X181412438Y-88838809D01*
X181412438Y-88838809D02*
X181364819Y-88934047D01*
X181364819Y-88934047D02*
X181364819Y-89172142D01*
X181364819Y-89172142D02*
X181412438Y-89267380D01*
X181412438Y-89267380D02*
X181460057Y-89314999D01*
X181460057Y-89314999D02*
X181555295Y-89362618D01*
X181555295Y-89362618D02*
X181650533Y-89362618D01*
X181650533Y-89362618D02*
X181793390Y-89314999D01*
X181793390Y-89314999D02*
X182364819Y-88743571D01*
X182364819Y-88743571D02*
X182364819Y-89362618D01*
X182269580Y-90362618D02*
X182317200Y-90314999D01*
X182317200Y-90314999D02*
X182364819Y-90172142D01*
X182364819Y-90172142D02*
X182364819Y-90076904D01*
X182364819Y-90076904D02*
X182317200Y-89934047D01*
X182317200Y-89934047D02*
X182221961Y-89838809D01*
X182221961Y-89838809D02*
X182126723Y-89791190D01*
X182126723Y-89791190D02*
X181936247Y-89743571D01*
X181936247Y-89743571D02*
X181793390Y-89743571D01*
X181793390Y-89743571D02*
X181602914Y-89791190D01*
X181602914Y-89791190D02*
X181507676Y-89838809D01*
X181507676Y-89838809D02*
X181412438Y-89934047D01*
X181412438Y-89934047D02*
X181364819Y-90076904D01*
X181364819Y-90076904D02*
X181364819Y-90172142D01*
X181364819Y-90172142D02*
X181412438Y-90314999D01*
X181412438Y-90314999D02*
X181460057Y-90362618D01*
X181460057Y-90743571D02*
X181412438Y-90791190D01*
X181412438Y-90791190D02*
X181364819Y-90886428D01*
X181364819Y-90886428D02*
X181364819Y-91124523D01*
X181364819Y-91124523D02*
X181412438Y-91219761D01*
X181412438Y-91219761D02*
X181460057Y-91267380D01*
X181460057Y-91267380D02*
X181555295Y-91314999D01*
X181555295Y-91314999D02*
X181650533Y-91314999D01*
X181650533Y-91314999D02*
X181793390Y-91267380D01*
X181793390Y-91267380D02*
X182364819Y-90695952D01*
X182364819Y-90695952D02*
X182364819Y-91314999D01*
X162594819Y-118682619D02*
X161594819Y-118682619D01*
X161690057Y-119111190D02*
X161642438Y-119158809D01*
X161642438Y-119158809D02*
X161594819Y-119254047D01*
X161594819Y-119254047D02*
X161594819Y-119492142D01*
X161594819Y-119492142D02*
X161642438Y-119587380D01*
X161642438Y-119587380D02*
X161690057Y-119634999D01*
X161690057Y-119634999D02*
X161785295Y-119682618D01*
X161785295Y-119682618D02*
X161880533Y-119682618D01*
X161880533Y-119682618D02*
X162023390Y-119634999D01*
X162023390Y-119634999D02*
X162594819Y-119063571D01*
X162594819Y-119063571D02*
X162594819Y-119682618D01*
X162499580Y-120682618D02*
X162547200Y-120634999D01*
X162547200Y-120634999D02*
X162594819Y-120492142D01*
X162594819Y-120492142D02*
X162594819Y-120396904D01*
X162594819Y-120396904D02*
X162547200Y-120254047D01*
X162547200Y-120254047D02*
X162451961Y-120158809D01*
X162451961Y-120158809D02*
X162356723Y-120111190D01*
X162356723Y-120111190D02*
X162166247Y-120063571D01*
X162166247Y-120063571D02*
X162023390Y-120063571D01*
X162023390Y-120063571D02*
X161832914Y-120111190D01*
X161832914Y-120111190D02*
X161737676Y-120158809D01*
X161737676Y-120158809D02*
X161642438Y-120254047D01*
X161642438Y-120254047D02*
X161594819Y-120396904D01*
X161594819Y-120396904D02*
X161594819Y-120492142D01*
X161594819Y-120492142D02*
X161642438Y-120634999D01*
X161642438Y-120634999D02*
X161690057Y-120682618D01*
X162594819Y-121634999D02*
X162594819Y-121063571D01*
X162594819Y-121349285D02*
X161594819Y-121349285D01*
X161594819Y-121349285D02*
X161737676Y-121254047D01*
X161737676Y-121254047D02*
X161832914Y-121158809D01*
X161832914Y-121158809D02*
X161880533Y-121063571D01*
D10*
X179247580Y-98642306D02*
X179247580Y-99213734D01*
X179247580Y-98928020D02*
X180247580Y-98928020D01*
X180247580Y-98928020D02*
X180104723Y-99023258D01*
X180104723Y-99023258D02*
X180009485Y-99118496D01*
X180009485Y-99118496D02*
X179961866Y-99213734D01*
D14*
X168344819Y-108136666D02*
X169059104Y-108136666D01*
X169059104Y-108136666D02*
X169201961Y-108089047D01*
X169201961Y-108089047D02*
X169297200Y-107993809D01*
X169297200Y-107993809D02*
X169344819Y-107850952D01*
X169344819Y-107850952D02*
X169344819Y-107755714D01*
X168440057Y-108565238D02*
X168392438Y-108612857D01*
X168392438Y-108612857D02*
X168344819Y-108708095D01*
X168344819Y-108708095D02*
X168344819Y-108946190D01*
X168344819Y-108946190D02*
X168392438Y-109041428D01*
X168392438Y-109041428D02*
X168440057Y-109089047D01*
X168440057Y-109089047D02*
X168535295Y-109136666D01*
X168535295Y-109136666D02*
X168630533Y-109136666D01*
X168630533Y-109136666D02*
X168773390Y-109089047D01*
X168773390Y-109089047D02*
X169344819Y-108517619D01*
X169344819Y-108517619D02*
X169344819Y-109136666D01*
X145225419Y-111734695D02*
X146034942Y-111734695D01*
X146034942Y-111734695D02*
X146130180Y-111782314D01*
X146130180Y-111782314D02*
X146177800Y-111829933D01*
X146177800Y-111829933D02*
X146225419Y-111925171D01*
X146225419Y-111925171D02*
X146225419Y-112115647D01*
X146225419Y-112115647D02*
X146177800Y-112210885D01*
X146177800Y-112210885D02*
X146130180Y-112258504D01*
X146130180Y-112258504D02*
X146034942Y-112306123D01*
X146034942Y-112306123D02*
X145225419Y-112306123D01*
X146225419Y-113306123D02*
X146225419Y-112734695D01*
X146225419Y-113020409D02*
X145225419Y-113020409D01*
X145225419Y-113020409D02*
X145368276Y-112925171D01*
X145368276Y-112925171D02*
X145463514Y-112829933D01*
X145463514Y-112829933D02*
X145511133Y-112734695D01*
X168364819Y-101556666D02*
X169079104Y-101556666D01*
X169079104Y-101556666D02*
X169221961Y-101509047D01*
X169221961Y-101509047D02*
X169317200Y-101413809D01*
X169317200Y-101413809D02*
X169364819Y-101270952D01*
X169364819Y-101270952D02*
X169364819Y-101175714D01*
X169364819Y-102556666D02*
X169364819Y-101985238D01*
X169364819Y-102270952D02*
X168364819Y-102270952D01*
X168364819Y-102270952D02*
X168507676Y-102175714D01*
X168507676Y-102175714D02*
X168602914Y-102080476D01*
X168602914Y-102080476D02*
X168650533Y-101985238D01*
D15*
X133674060Y-93733055D02*
X133656256Y-93715251D01*
X133656256Y-93715251D02*
X133602843Y-93697446D01*
X133602843Y-93697446D02*
X133567235Y-93697446D01*
X133567235Y-93697446D02*
X133513822Y-93715251D01*
X133513822Y-93715251D02*
X133478214Y-93750859D01*
X133478214Y-93750859D02*
X133460409Y-93786467D01*
X133460409Y-93786467D02*
X133442605Y-93857684D01*
X133442605Y-93857684D02*
X133442605Y-93911097D01*
X133442605Y-93911097D02*
X133460409Y-93982313D01*
X133460409Y-93982313D02*
X133478214Y-94017922D01*
X133478214Y-94017922D02*
X133513822Y-94053530D01*
X133513822Y-94053530D02*
X133567235Y-94071334D01*
X133567235Y-94071334D02*
X133602843Y-94071334D01*
X133602843Y-94071334D02*
X133656256Y-94053530D01*
X133656256Y-94053530D02*
X133674060Y-94035726D01*
X133816493Y-94035726D02*
X133834297Y-94053530D01*
X133834297Y-94053530D02*
X133869906Y-94071334D01*
X133869906Y-94071334D02*
X133958927Y-94071334D01*
X133958927Y-94071334D02*
X133994535Y-94053530D01*
X133994535Y-94053530D02*
X134012339Y-94035726D01*
X134012339Y-94035726D02*
X134030144Y-94000118D01*
X134030144Y-94000118D02*
X134030144Y-93964509D01*
X134030144Y-93964509D02*
X134012339Y-93911097D01*
X134012339Y-93911097D02*
X133798689Y-93697446D01*
X133798689Y-93697446D02*
X134030144Y-93697446D01*
D16*
%TO.C,I2C2*%
X171640000Y-90100000D02*
X171640000Y-84100000D01*
X171640000Y-84100000D02*
X172400000Y-84100000D01*
X174180000Y-90100000D02*
X174180000Y-84100000D01*
X174180000Y-84100000D02*
X174940000Y-84100000D01*
X176720000Y-90100000D02*
X176720000Y-84100000D01*
X176720000Y-84100000D02*
X177480000Y-84100000D01*
X179260000Y-90100000D02*
X179260000Y-84100000D01*
X179260000Y-84100000D02*
X180020000Y-84100000D01*
X180970000Y-90100000D02*
X170690000Y-90100000D01*
X172400000Y-84100000D02*
X172400000Y-90100000D01*
X174940000Y-84100000D02*
X174940000Y-90100000D01*
X177480000Y-84100000D02*
X177480000Y-90100000D01*
X179360000Y-84100000D02*
X179360000Y-90100000D01*
X179480000Y-84100000D02*
X179480000Y-90100000D01*
X179600000Y-84100000D02*
X179600000Y-90100000D01*
X179720000Y-84100000D02*
X179720000Y-90100000D01*
X179840000Y-84100000D02*
X179840000Y-90100000D01*
X179960000Y-84100000D02*
X179960000Y-90100000D01*
X180020000Y-84100000D02*
X180020000Y-90100000D01*
X180970000Y-92760000D02*
X180970000Y-90100000D01*
X170690000Y-90100000D02*
X170690000Y-92760000D01*
X173290000Y-90100000D02*
X173290000Y-92760000D01*
X175830000Y-90100000D02*
X175830000Y-92760000D01*
X178370000Y-90100000D02*
X178370000Y-92760000D01*
X170690000Y-92760000D02*
X180970000Y-92760000D01*
X179260000Y-92760000D02*
X179260000Y-93090000D01*
X180020000Y-92760000D02*
X180020000Y-93090000D01*
X171640000Y-92760000D02*
X171640000Y-93157071D01*
X172400000Y-92760000D02*
X172400000Y-93157071D01*
X174180000Y-92760000D02*
X174180000Y-93157071D01*
X174940000Y-92760000D02*
X174940000Y-93157071D01*
X176720000Y-92760000D02*
X176720000Y-93157071D01*
X177480000Y-92760000D02*
X177480000Y-93157071D01*
X180910000Y-95470000D02*
X179640000Y-95470000D01*
X180910000Y-94200000D02*
X180910000Y-95470000D01*
%TO.C,I2C1*%
X163140000Y-115750000D02*
X163140000Y-114480000D01*
X163140000Y-114480000D02*
X164410000Y-114480000D01*
X166570000Y-117190000D02*
X166570000Y-116792929D01*
X167330000Y-117190000D02*
X167330000Y-116792929D01*
X169110000Y-117190000D02*
X169110000Y-116792929D01*
X169870000Y-117190000D02*
X169870000Y-116792929D01*
X171650000Y-117190000D02*
X171650000Y-116792929D01*
X172410000Y-117190000D02*
X172410000Y-116792929D01*
X164030000Y-117190000D02*
X164030000Y-116860000D01*
X164790000Y-117190000D02*
X164790000Y-116860000D01*
X173360000Y-117190000D02*
X163080000Y-117190000D01*
X165680000Y-119850000D02*
X165680000Y-117190000D01*
X168220000Y-119850000D02*
X168220000Y-117190000D01*
X170760000Y-119850000D02*
X170760000Y-117190000D01*
X173360000Y-119850000D02*
X173360000Y-117190000D01*
X163080000Y-117190000D02*
X163080000Y-119850000D01*
X164030000Y-125850000D02*
X164030000Y-119850000D01*
X164090000Y-125850000D02*
X164090000Y-119850000D01*
X164210000Y-125850000D02*
X164210000Y-119850000D01*
X164330000Y-125850000D02*
X164330000Y-119850000D01*
X164450000Y-125850000D02*
X164450000Y-119850000D01*
X164570000Y-125850000D02*
X164570000Y-119850000D01*
X164690000Y-125850000D02*
X164690000Y-119850000D01*
X166570000Y-125850000D02*
X166570000Y-119850000D01*
X169110000Y-125850000D02*
X169110000Y-119850000D01*
X171650000Y-125850000D02*
X171650000Y-119850000D01*
X163080000Y-119850000D02*
X173360000Y-119850000D01*
X164790000Y-125850000D02*
X164030000Y-125850000D01*
X164790000Y-119850000D02*
X164790000Y-125850000D01*
X167330000Y-125850000D02*
X166570000Y-125850000D01*
X167330000Y-119850000D02*
X167330000Y-125850000D01*
X169870000Y-125850000D02*
X169110000Y-125850000D01*
X169870000Y-119850000D02*
X169870000Y-125850000D01*
X172410000Y-125850000D02*
X171650000Y-125850000D01*
X172410000Y-119850000D02*
X172410000Y-125850000D01*
D17*
%TO.C,J$2*%
X123417300Y-96921100D02*
G75*
G02*
X123417300Y-94635100I1143000J1143000D01*
G01*
X123811000Y-96489300D02*
G75*
G02*
X123811000Y-94965300I834414J762000D01*
G01*
X124179300Y-96082900D02*
G75*
G02*
X124179300Y-95320901I550694J381000D01*
G01*
D16*
%TO.C,J2*%
X160840000Y-103310000D02*
X160840000Y-106740000D01*
X165110000Y-102040000D02*
X163660000Y-102040000D01*
X165110000Y-103840000D02*
X165110000Y-102040000D01*
X165110000Y-106210000D02*
X165110000Y-108010000D01*
X165110000Y-108010000D02*
X163660000Y-108010000D01*
X166100000Y-106210000D02*
X165110000Y-106210000D01*
D18*
%TO.C,U$1*%
X154149700Y-109485000D02*
X154149700Y-106437000D01*
X154403700Y-106183000D02*
X156943700Y-106183000D01*
D19*
X155419700Y-107072000D02*
X154911700Y-107072000D01*
X156435700Y-108850000D02*
X155927700Y-108850000D01*
D18*
X156943700Y-109739000D02*
X154403700Y-109739000D01*
X157197700Y-109485000D02*
X157197700Y-106437000D01*
X154149700Y-106437000D02*
G75*
G02*
X154403700Y-106183000I254000J0D01*
G01*
X154403700Y-109739000D02*
G75*
G02*
X154149700Y-109485000I0J254000D01*
G01*
X156943700Y-106183000D02*
G75*
G02*
X157197700Y-106437000I0J-254000D01*
G01*
X157197700Y-109485000D02*
G75*
G02*
X156943700Y-109739000I-254000J0D01*
G01*
D16*
%TO.C,U1*%
X128589915Y-96842894D02*
X128589915Y-113042894D01*
X128589915Y-113042894D02*
X128989915Y-113042894D01*
X128989915Y-96842894D02*
X128589915Y-96842894D01*
X144389915Y-96842894D02*
X144789915Y-96842894D01*
X144789915Y-96842894D02*
X144789915Y-113042894D01*
X144925915Y-113782894D02*
X144589915Y-113542894D01*
X144925915Y-113302894D01*
X144925915Y-113782894D01*
G36*
X144925915Y-113782894D02*
G01*
X144589915Y-113542894D01*
X144925915Y-113302894D01*
X144925915Y-113782894D01*
G37*
%TO.C,J1*%
X160090000Y-102660000D02*
X160090000Y-107340000D01*
X166310000Y-101960000D02*
X167910000Y-101960000D01*
X166310000Y-103240000D02*
X166310000Y-101960000D01*
X166310000Y-106760000D02*
X166310000Y-108040000D01*
X166310000Y-108040000D02*
X167910000Y-108040000D01*
X167910000Y-100940000D02*
X163660000Y-100940000D01*
X167910000Y-101960000D02*
X167910000Y-100940000D01*
X167910000Y-108040000D02*
X167910000Y-109060000D01*
X167910000Y-109060000D02*
X163660000Y-109060000D01*
X169200000Y-106760000D02*
X166310000Y-106760000D01*
D20*
%TO.C,C2*%
X133173000Y-94800000D02*
X133373000Y-94800000D01*
X133473000Y-94300000D02*
X133473000Y-95300000D01*
X133873000Y-94300000D02*
X133873000Y-95300000D01*
X134173000Y-94800000D02*
X133973000Y-94800000D01*
%TD*%
M02*
